{
.appVersion = "3260";
.formatVersion = 3;
DisplayStrings = (
"AHHAVAHH OXOWAFAPATAUAYAÞYLYTJLVÆAVAOYO HH
Ti Tí Tî Tï Tì Tī Vă Tä Tü Tõ Tŭ Tř
HHTan oTo yTy vAv oVo oWo eYe Ly Ky Ac Ay gj
nin non nvn ovo oxo ayn fl fi fj ft gj ko rento
ďá ďu gj ľk włw yły ółr fħ ílïlîl
H.Y-Y.T,F.P,V:Y„V-T-AA’A“A’A-AL–L—L-
n.r.r,y.y,(o)(i)(d)(j)(f)[j]{f}
¿o,O? w@y «n•n» n
080 076 474 973 94 7078 54 24 272 679
P4T47A .47,9.7-»4
42°2129N 71°0349W
d m 15°C
0-",
"Ð",
"Đ",
"Ɔ",
"ɔ"
);
axes = (
{
name = Weight;
tag = wght;
}
);
customParameters = (
{
disabled = 1;
name = glyphOrder;
value = (
space,
exclam,
quotesingle,
quotedbl,
numbersign,
dollar,
percent,
ampersand,
parenleft,
parenright,
asterisk,
plus,
comma,
hyphen,
period,
slash,
zero,
one,
two,
three,
four,
five,
six,
seven,
eight,
nine,
colon,
semicolon,
less,
equal,
greater,
question,
at,
A,
B,
C,
D,
E,
F,
G,
H,
I,
J,
K,
L,
M,
N,
O,
P,
Q,
R,
S,
T,
U,
V,
W,
X,
Y,
Z,
bracketleft,
backslash,
bracketright,
asciicircum,
underscore,
grave,
a,
b,
c,
d,
e,
f,
g,
h,
i,
j,
k,
l,
m,
n,
o,
p,
q,
r,
s,
t,
u,
v,
w,
x,
y,
z,
braceleft,
bar,
braceright,
asciitilde,
exclamdown,
cent,
sterling,
currency,
yen,
brokenbar,
section,
dieresis,
copyright,
ordfeminine,
guillemetleft,
logicalnot,
registered,
macron,
degree,
plusminus,
twosuperior,
threesuperior,
acute,
mu,
paragraph,
periodcentered,
cedilla,
onesuperior,
ordmasculine,
guillemetright,
onequarter,
onehalf,
threequarters,
questiondown,
Agrave,
Aacute,
Acircumflex,
Atilde,
Adieresis,
Aring,
AE,
Ccedilla,
Egrave,
Eacute,
Ecircumflex,
Edieresis,
Igrave,
Iacute,
Icircumflex,
Idieresis,
Eth,
Ntilde,
Ograve,
Oacute,
Ocircumflex,
Otilde,
Odieresis,
multiply,
Oslash,
Ugrave,
Uacute,
Ucircumflex,
Udieresis,
Yacute,
Thorn,
germandbls,
agrave,
aacute,
acircumflex,
atilde,
adieresis,
aring,
ae,
ccedilla,
egrave,
eacute,
ecircumflex,
edieresis,
igrave,
iacute,
icircumflex,
idieresis,
eth,
ntilde,
ograve,
oacute,
ocircumflex,
otilde,
odieresis,
divide,
oslash,
ugrave,
uacute,
ucircumflex,
udieresis,

glyphs = (
{
glyphname = A;
kernLeft = A;
kernRight = A;
lastChange = "2024-11-25 05:31:00 +0000";
layers = (
{
anchors = (
{
name = ogonek;
pos = (515,30);
},
{
name = top;
pos = (346,712);
}
);
layerId = m01;
shapes = (
{
closed = 1;
nodes = (
(50,0,l),
(376,700,l),
(314,700,l),
(-21,0,l)
);
},
{
closed = 1;
nodes = (
(444,206,l),
(450,262,l),
(129,262,l),
(123,206,l)
);
},
{
closed = 1;
nodes = (
(539,0,l),
(376,700,l),
(318,700,l),
(475,0,l)
);
}
);
width = 580;
},
{
anchors = (
{
name = ogonek;
pos = (525,35);
},
{
name = top;
pos = (355,712);
}
);
layerId = m002;
shapes = (
{
closed = 1;
nodes = (
(73,0,l),
(394,700,l),
(308,700,l),
(-23,0,l)
);
},
{
closed = 1;
nodes = (
(448,195,l),
(458,275,l),
(137,275,l),
(127,195,l)
);
},
{
closed = 1;
nodes = (
(552,0,l),
(394,700,l),
(314,700,l),
(464,0,l)
);
}
);
width = 591;
},
{
anchors = (
{
name = ogonek;
pos = (596,41);
},
{
name = top;
pos = (392,712);
}
);
layerId = m003;
shapes = (
{
closed = 1;
nodes = (
(132,0,l),
(455,700,l),
(305,700,l),
(-26,0,l)
);
},
{
closed = 1;
nodes = (
(490,161,l),
(505,287,l),
(183,287,l),
(168,161,l)
);
},
{
closed = 1;
nodes = (
(633,0,l),
(475,700,l),
(337,700,l),
(481,0,l)
);
}
);
width = 669;
}
);
unicode = 65;
},
{
glyphname = AE;
kernLeft = A;
lastChange = "2024-11-25 04:31:09 +0000";
layers = (
{
anchors = (
{
name = top;
pos = (649,701);
}
);
layerId = m01;
shapes = (
{
closed = 1;
nodes = (
(35,0,l),
(492,700,l),
(430,700,l),
(-36,0,l)
);
},
{
closed = 1;
nodes = (
(408,190,l),
(415,246,l),
(161,246,l),
(154,190,l)
);
},
{
closed = 1;
nodes = (
(776,0,l),
(783,56,l),
(449,56,l),
(483,332,l),
(755,332,l),
(762,388,l),
(490,388,l),
(521,644,l),
(855,644,l),
(862,700,l),
(464,700,l),
(378,0,l)
);
}
);
width = 867;
},
{
anchors = (
{
name = top;
pos = (669,700);
}
);
layerId = m002;
shapes = (
{
closed = 1;
nodes = (
(73,0,l),
(525,700,l),
(439,700,l),
(-23,0,l)
);
},
{
closed = 1;
nodes = (
(459,169,l),
(469,249,l),
(185,249,l),
(175,169,l)
);
},
{
closed = 1;
nodes = (
(807,0,l),
(817,80,l),
(494,80,l),
(524,320,l),
(786,320,l),
(795,398,l),
(533,398,l),
(560,620,l),
(883,620,l),
(893,700,l),
(482,700,l),
(396,0,l)
);
}
);
width = 896;
},
{
anchors = (
{
name = top;
pos = (715,700);
}
);
layerId = m003;
shapes = (
{
closed = 1;
nodes = (
(132,0,l),
(589,700,l),
(439,700,l),
(-26,0,l)
);
},
{
closed = 1;
nodes = (
(460,142,l),
(476,268,l),
(185,268,l),
(169,142,l)
);
},
{
closed = 1;
nodes = (
(894,0,l),
(909,126,l),
(598,126,l),
(619,297,l),
(879,297,l),
(895,423,l),
(635,423,l),
(653,574,l),
(964,574,l),
(980,700,l),
(523,700,l),
(437,0,l)
);
}
);
width = 967;
}
);
unicode = 198;
},
{
glyphname = B;
kernLeft = B;
kernRight = B;
lastChange = "2024-11-25 04:31:09 +0000";
layers = (
{
layerId = m01;
shapes = (
{
closed = 1;
nodes = (
(299,0,ls),
(459,0,o),
(545,72,o),
(561,202,cs),
(572,288,o),
(530,343,o),
(439,365,c),
(501,385,o),
(551,438,o),
(562,526,cs),
(576,642,o),
(506,701,o),
(374,701,cs),
(155,701,l),
(69,0,l)
);
},
{
closed = 1;
nodes = (
(170,330,l),
(170,330,o),
(359,330,o),
(359,330,cs),
(457,330,o),
(508,277,o),
(499,202,cs),
(489,122,o),
(427,56,o),
(316,56,cs),
(136,56,l)
);
},
{
closed = 1;
nodes = (
(208,645,l),
(208,645,o),
(362,645,o),
(362,645,cs),
(469,645,o),
(508,595,o),
(500,525,cs),
(489,439,o),
(429,386,o),
(332,386,cs),
(177,386,l)
);
}
);
width = 618;
},
{
layerId = m002;
shapes = (
{
closed = 1;
nodes = (
(322,0,ls),
(487,0,o),
(575,73,o),
(591,200,cs),
(602,287,o),
(561,344,o),
(469,366,c),
(530,384,o),
(579,424,o),
(591,521,cs),
(606,637,o),
(537,701,o),
(400,701,cs),
(164,701,l),
(78,0,l)
);
},
{
closed = 1;
nodes = (
(205,319,l),
(205,319,o),
(371,319,o),
(371,319,cs),
(463,319,o),
(507,267,o),
(499,200,cs),
(489,120,o),
(429,80,o),
(332,80,cs),
(176,80,l)
);
},
{
closed = 1;
nodes = (
(243,621,l),
(243,621,o),
(386,621,o),
(386,621,cs),
(459,621,o),
(508,587,o),
(500,520,cs),
(490,435,o),
(432,399,o),
(359,399,cs),
(215,399,l)
);
}
);
width = 655;
},
{
layerId = m003;
shapes = (
{
closed = 1;
nodes = (
(371,0,ls),
(542,0,o),
(635,77,o),
(651,204,cs),
(661,283,o),
(621,341,o),
(545,363,c),
(593,386,o),
(640,434,o),
(650,518,cs),
(663,620,o),
(597,701,o),
(449,701,cs),
(164,701,l),
(78,0,l)
);
},
{
closed = 1;
nodes = (
(260,293,l),
(260,293,o),
(397,293,o),
(397,293,c),
(464,293,o),
(504,264,o),
(498,211,cs),
(490,145,o),
(443,126,o),
(366,126,cs),
(239,126,l)
);
},
{
closed = 1;
nodes = (
(294,575,l),
(294,575,o),
(415,575,o),
(415,575,cs),
(471,575,o),
(501,549,o),
(496,504,cs),
(488,441,o),
(452,419,o),
(397,419,cs),
(275,419,l)
);
}
);
width = 701;
}
);
unicode = 66;
},
{
glyphname = C;
kernLeft = O;
lastChange = "2024-11-25 04:36:21 +0000";
layers = (
{
anchors = (
{
name = bottom;
pos = (328,-6);
},
{
name = top;
pos = (395,713);
}
);
layerId = m01;
shapes = (
{
closed = 1;
nodes = (
(467,-13,o),
(567,76,o),
(610,199,c),
(551,211,l),
(515,117,o),
(441,43,o),
(329,43,cs),
(182,43,o),
(112,167,o),
(135,357,cs),
(158,542,o),
(273,657,o),
(404,657,cs),
(502,657,o),
(575,581,o),
(581,488,c),
(647,501,l),
(634,624,o),
(556,713,o),
(411,713,cs),
(208,713,o),
(96,541,o),
(73,355,cs),
(49,163,o),
(114,-13,o),
(322,-13,cs)
);
}
);
width = 663;
},
{
anchors = (
{
name = bottom;
pos = (318,-13);
},
{
name = top;
pos = (407,713);
}
);
layerId = m002;
shapes = (
{
closed = 1;
nodes = (
(474,-13,o),
(587,75,o),
(630,198,c),
(543,216,l),
(509,130,o),
(430,67,o),
(338,67,cs),
(207,67,o),
(147,194,o),
(167,357,cs),
(186,512,o),
(276,633,o),
(407,633,cs),
(499,633,o),
(563,570,o),
(576,484,c),
(667,502,l),
(654,625,o),
(563,713,o),
(417,713,cs),
(211,713,o),
(101,548,o),
(77,355,cs),
(54,171,o),
(121,-13,o),
(328,-13,cs)
);
}
);
width = 689;
},
{
anchors = (
{
name = bottom;
pos = (332,-12);
},
{
name = top;
pos = (419,713);
}
);
layerId = m003;
shapes = (
{
closed = 1;
nodes = (
(502,-12,o),
(601,76,o),
(644,199,c),
(507,227,l),
(485,161,o),
(422,119,o),
(366,119,cs),
(245,119,o),
(198,198,o),
(218,357,cs),
(235,499,o),
(298,583,o),
(419,583,cs),
(479,583,o),
(529,532,o),
(537,474,c),
(681,502,l),
(669,625,o),
(566,713,o),
(437,713,cs),
(213,713,o),
(87,549,o),
(63,355,cs),
(41,171,o),
(104,-12,o),
(350,-12,cs)
);
}
);
width = 684;
},
{
associatedMasterId = m01;
layerId = "09577142-2BA9-4939-A4E9-BA986ECE9950";
name = "27 Mar 24 at 12:02";
shapes = (
{
closed = 1;
nodes = (
(596,-12,o),
(684,157,o),
(684,349,cs),
(684,543,o),
(596,712,o),
(372,712,cs),
(148,712,o),
(60,543,o),
(60,349,cs),
(60,157,o),
(148,-12,o),
(372,-12,cs)
);
},
{
closed = 1;
nodes = (
(217,44,o),
(122,154,o),
(122,349,cs),
(122,540,o),
(217,656,o),
(372,656,cs),
(527,656,o),
(622,540,o),
(622,349,cs),
(622,154,o),
(527,44,o),
(372,44,cs)
);
}
);
width = 693;
}
);
unicode = 67;
},
{
glyphname = D;
kernRight = O;
lastChange = "2024-11-25 04:31:09 +0000";
layers = (
{
anchors = (
{
name = bottom;
pos = (283,0);
},
{
name = top;
pos = (369,700);
}
);
layerId = m01;
shapes = (
{
closed = 1;
nodes = (
(260,0,ls),
(486,0,o),
(611,141,o),
(636,349,cs),
(662,560,o),
(572,700,o),
(346,700,cs),
(159,700,l),
(73,0,l)
);
},
{
closed = 1;
nodes = (
(216,644,l),
(342,644,ls),
(536,644,o),
(594,507,o),
(574,350,cs),
(555,192,o),
(464,56,o),
(270,56,cs),
(144,56,l)
);
}
);
width = 681;
},
{
anchors = (
{
name = bottom;
pos = (289,0);
},
{
name = top;
pos = (375,700);
}
);
layerId = m002;
shapes = (
{
closed = 1;
nodes = (
(260,0,ls),
(492,0,o),
(617,141,o),
(642,349,cs),
(668,560,o),
(578,700,o),
(346,700,cs),
(151,700,l),
(65,0,l)
);
},
{
closed = 1;
nodes = (
(229,620,l),
(339,620,ls),
(502,620,o),
(570,507,o),
(550,350,cs),
(531,192,o),
(436,80,o),
(273,80,cs),
(163,80,l)
);
}
);
width = 680;
},
{
anchors = (
{
name = bottom;
pos = (320,0);
},
{
name = top;
pos = (406,700);
}
);
layerId = m003;
shapes = (
{
closed = 1;
nodes = (
(307,0,ls),
(537,0,o),
(661,141,o),
(687,349,cs),
(713,560,o),
(623,700,o),
(393,700,cs),
(145,700,l),
(59,0,l)
);
},
{
closed = 1;
nodes = (
(275,574,l),
(380,574,ls),
(498,574,o),
(552,507,o),
(533,350,cs),
(513,192,o),
(443,126,o),
(325,126,cs),
(220,126,l)
);
}
);
width = 723;
}
);
unicode = 68;
},
{
glyphname = Eth;
lastChange = "2024-11-25 05:35:26 +0000";
layers = (
{
layerId = m01;
shapes = (
{
pos = (-31,0);
ref = D;
},
{
closed = 1;
nodes = (
(318,329,l),
(325,385,l),
(3,385,l),
(-4,329,l)
);
}
);
width = 681;
},
{
layerId = m002;
shapes = (
{
pos = (-31,0);
ref = D;
},
{
closed = 1;
nodes = (
(336,315,l),
(345,385,l),
(8,385,l),
(-1,315,l)
);
}
);
width = 680;
},
{
layerId = m003;
shapes = (
{
pos = (-31,0);
ref = D;
},
{
closed = 1;
nodes = (
(359,291,l),
(372,401,l),
(-11,401,l),
(-24,291,l)
);
}
);
width = 723;
}
);
unicode = 208;
},
{
glyphname = E;
kernLeft = E;
kernRight = E;
lastChange = "2024-11-25 04:31:09 +0000";
layers = (
{
anchors = (
{
name = bottom;
pos = (268,0);
},
{
name = top;
pos = (354,700);
}
);
layerId = m01;
shapes = (
{
closed = 1;
nodes = (
(467,0,l),
(474,56,l),
(140,56,l),
(174,332,l),
(446,332,l),
(453,388,l),
(181,388,l),
(212,644,l),
(546,644,l),
(553,700,l),
(155,700,l),
(69,0,l)
);
}
);
width = 558;
},
{
anchors = (
{
name = bottom;
pos = (271,0);
},
{
name = top;
pos = (357,700);
}
);
layerId = m002;
shapes = (
{
closed = 1;
nodes = (
(476,0,l),
(486,80,l),
(163,80,l),
(193,320,l),
(455,320,l),
(464,398,l),
(202,398,l),
(229,620,l),
(552,620,l),
(562,700,l),
(151,700,l),
(65,0,l)
);
}
);
width = 564;
},
{
anchors = (
{
name = bottom;
pos = (288,0);
},
{
name = top;
pos = (374,700);
}
);
layerId = m003;
shapes = (
{
closed = 1;
nodes = (
(516,0,l),
(531,126,l),
(220,126,l),
(241,297,l),
(501,297,l),
(517,423,l),
(257,423,l),
(275,574,l),
(586,574,l),
(602,700,l),
(145,700,l),
(59,0,l)
);
}
);
width = 589;
}
);
unicode = 69;
},
{
glyphname = Eopen;
lastChange = "2024-11-25 04:31:09 +0000";
layers = (
{
anchors = (
{
name = bottom;
pos = (267,0);
},
{
name = top;
pos = (353,700);
}
);
layerId = m01;
shapes = (
{
closed = 1;
nodes = (
(407,-12,o),
(513,61,o),
(542,195,c),
(481,199,l),
(460,120,o),
(403,44,o),
(280,44,cs),
(156,44,o),
(106,123,o),
(116,203,cs),
(125,278,o),
(190,350,o),
(315,350,cs),
(328,350,o),
(341,349,o),
(353,348,c),
(360,404,l),
(349,402,o),
(336,401,o),
(323,401,cs),
(218,401,o),
(182,465,o),
(190,530,cs),
(197,586,o),
(246,656,o),
(352,656,cs),
(437,656,o),
(476,611,o),
(485,564,c),
(547,584,l),
(534,668,o),
(461,712,o),
(360,712,cs),
(241,712,o),
(143,649,o),
(128,530,cs),
(120,465,o),
(156,415,o),
(192,384,c),
(126,348,o),
(64,286,o),
(54,203,cs),
(37,64,o),
(133,-12,o),
(272,-12,cs)
);
}
);
width = 596;
},
{
anchors = (
{
name = bottom;
pos = (299,0);
},
{
name = top;
pos = (385,700);
}
);
layerId = m002;
shapes = (
{
closed = 1;
nodes = (
(470,-12,o),
(574,63,o),
(606,200,c),
(515,207,l),
(483,93,o),
(412,68,o),
(338,68,cs),
(238,68,o),
(183,123,o),
(193,203,cs),
(202,278,o),
(266,340,o),
(369,340,cs),
(384,340,o),
(398,340,o),
(413,340,c),
(423,418,l),
(409,418,o),
(394,418,o),
(380,418,cs),
(293,418,o),
(255,465,o),
(263,530,cs),
(270,586,o),
(316,636,o),
(404,636,cs),
(482,636,o),
(521,597,o),
(523,549,c),
(611,576,l),
(602,665,o),
(526,712,o),
(415,712,cs),
(288,712,o),
(190,649,o),
(175,530,cs),
(167,465,o),
(191,415,o),
(227,384,c),
(161,348,o),
(111,286,o),
(101,203,cs),
(84,64,o),
(182,-12,o),
(327,-12,cs)
);
}
);
width = 660;
},
{
anchors = (
{
name = bottom;
pos = (313,0);
},
{
name = top;
pos = (399,700);
}
);
layerId = m003;
shapes = (
{
closed = 1;
nodes = (
(521,-12,o),
(618,81,o),
(648,207,c),
(502,216,l),
(488,161,o),
(451,116,o),
(364,116,cs),
(281,116,o),
(251,157,o),
(258,212,cs),
(264,260,o),
(304,306,o),
(385,306,cs),
(400,306,o),
(417,307,o),
(432,307,c),
(448,434,l),
(433,434,o),
(417,433,o),
(402,433,cs),
(354,433,o),
(318,458,o),
(325,512,cs),
(329,550,o),
(370,584,o),
(419,584,cs),
(460,584,o),
(492,559,o),
(498,527,c),
(651,569,l),
(642,656,o),
(565,712,o),
(435,712,cs),
(290,712,o),
(190,639,o),
(177,530,cs),
(169,465,o),
(193,415,o),
(229,384,c),
(163,348,o),
(113,286,o),
(103,203,cs),
(87,74,o),
(187,-12,o),
(347,-12,cs)
);
}
);
width = 687;
}
);
unicode = 400;
},
{
glyphname = Schwa;
lastChange = "2024-11-25 04:31:09 +0000";
layers = (
{
anchors = (
{
name = bottom;
pos = (321,0);
},
{
name = top;
pos = (407,700);
}
);
layerId = m01;
shapes = (
{
closed = 1;
nodes = (
(503,-12,o),
(643,126,o),
(671,352,cs),
(698,575,o),
(601,712,o),
(410,712,cs),
(245,712,o),
(142,608,o),
(95,496,c),
(157,482,l),
(191,559,o),
(268,656,o),
(397,656,cs),
(552,656,o),
(631,531,o),
(609,356,cs),
(588,186,o),
(496,44,o),
(327,44,cs),
(179,44,o),
(114,174,o),
(130,310,c),
(623,310,l),
(630,365,l),
(74,365,l),
(69,326,l),
(43,112,o),
(159,-12,o),
(325,-12,cs)
);
}
);
width = 704;
},
{
anchors = (
{
name = bottom;
pos = (332,0);
},
{
name = top;
pos = (418,700);
}
);
layerId = m002;
shapes = (
{
closed = 1;
nodes = (
(518,-12,o),
(658,126,o),
(686,353,cs),
(713,574,o),
(607,712,o),
(413,712,cs),
(240,712,o),
(146,618,o),
(98,506,c),
(182,485,l),
(210,569,o),
(301,632,o),
(394,632,c),
(566,632,o),
(610,487,o),
(594,357,cs),
(573,187,o),
(483,68,o),
(333,68,cs),
(201,68,o),
(145,163,o),
(161,287,c),
(607,287,l),
(616,367,l),
(78,367,l),
(74,334,l),
(45,96,o),
(155,-12,o),
(328,-12,cs)
);
}
);
width = 726;
},
{
anchors = (
{
name = bottom;
pos = (344,0);
},
{
name = top;
pos = (430,700);
}
);
layerId = m003;
shapes = (
{
closed = 1;
nodes = (
(507,-12,o),
(697,103,o),
(727,347,cs),
(756,583,o),
(599,712,o),
(428,712,cs),
(321,712,o),
(185,663,o),
(103,512,c),
(241,469,l),
(269,538,o),
(342,582,o),
(409,582,cs),
(527,582,o),
(593,504,o),
(573,347,cs),
(556,204,o),
(470,118,o),
(359,118,cs),
(258,118,o),
(204,205,o),
(214,286,c),
(597,286,l),
(610,402,l),
(69,402,l),
(64,357,l),
(35,126,o),
(149,-12,o),
(341,-12,cs)
);
}
);
width = 749;
}
);
unicode = 399;
},
{
glyphname = F;
kernLeft = E;
kernRight = F;
lastChange = "2024-11-25 05:26:25 +0000";
layers = (
{
layerId = m01;
shapes = (
{
closed = 1;
nodes = (
(133,0,l),
(174,335,l),
(446,335,l),
(453,391,l),
(181,391,l),
(212,644,l),
(546,644,l),
(553,700,l),
(155,700,l),
(69,0,l)
);
}
);
width = 558;
},
{
layerId = m002;
shapes = (
{
closed = 1;
nodes = (
(153,0,l),
(193,320,l),
(455,320,l),
(464,400,l),
(202,400,l),
(229,620,l),
(552,620,l),
(562,700,l),
(151,700,l),
(65,0,l)
);
}
);
width = 541;
},
{
layerId = m003;
shapes = (
{
closed = 1;
nodes = (
(205,0,l),
(241,297,l),
(501,297,l),
(517,423,l),
(257,423,l),
(275,574,l),
(586,574,l),
(602,700,l),
(145,700,l),
(59,0,l)
);
}
);
width = 577;
}
);
unicode = 70;
},
{
glyphname = G;
kernLeft = O;
kernRight = O;
lastChange = "2024-11-25 04:31:09 +0000";
layers = (
{
anchors = (
{
name = bottom;
pos = (316,-13);
},
{
name = top;
pos = (405,713);
}
);
layerId = m01;
shapes = (
{
closed = 1;
nodes = (
(438,-13,o),
(529,49,o),
(563,127,c),
(563,127,o),
(554,0,o),
(554,0,c),
(606,0,l),
(651,368,l),
(372,368,l),
(366,312,l),
(583,312,l),
(564,159,o),
(459,43,o),
(334,43,cs),
(180,43,o),
(110,167,o),
(133,357,cs),
(156,542,o),
(271,657,o),
(409,657,cs),
(515,657,o),
(588,581,o),
(594,488,c),
(660,501,l),
(647,624,o),
(569,713,o),
(416,713,cs),
(206,713,o),
(94,541,o),
(71,355,cs),
(47,163,o),
(112,-13,o),
(327,-13,cs)
);
}
);
width = 701;
},
{
anchors = (
{
name = bottom;
pos = (329,-12);
},
{
name = top;
pos = (418,713);
}
);
layerId = m002;
shapes = (
{
closed = 1;
nodes = (
(429,-12,o),
(511,30,o),
(560,107,c),
(560,107,o),
(560,0,o),
(560,0,c),
(629,0,l),
(674,368,l),
(394,368,l),
(384,284,l),
(575,284,l),
(560,158,o),
(447,67,o),
(344,67,cs),
(202,67,o),
(145,194,o),
(165,357,cs),
(184,512,o),
(274,633,o),
(416,633,c),
(519,633,o),
(583,570,o),
(596,484,c),
(687,502,l),
(674,625,o),
(583,713,o),
(426,713,c),
(209,713,o),
(99,548,o),
(75,355,cs),
(51,158,o),
(122,-12,o),
(347,-12,c)
);
}
);
width = 730;
},
{
anchors = (
{
name = bottom;
pos = (323,-12);
},
{
name = top;
pos = (412,712);
}
);
layerId = m003;
shapes = (
{
closed = 1;
nodes = (
(411,-12,o),
(485,13,o),
(533,80,c),
(533,80,o),
(535,0,o),
(535,0,c),
(633,0,l),
(679,380,l),
(394,380,l),
(380,260,l),
(530,260,l),
(512,170,o),
(432,119,o),
(369,119,cs),
(242,119,o),
(195,198,o),
(215,357,cs),
(232,499,o),
(299,583,o),
(426,583,cs),
(490,583,o),
(539,532,o),
(547,474,c),
(691,502,l),
(679,625,o),
(578,712,o),
(442,712,cs),
(212,712,o),
(84,549,o),
(60,355,cs),
(38,171,o),
(101,-12,o),
(353,-12,cs)
);
}
);
width = 726;
},
{
associatedMasterId = m01;
layerId = "60D9B074-3643-47F8-BA45-851CCB9418B6";
name = "6 Jul 24 at 15:54";
shapes = (
{
closed = 0;
nodes = (
(514,106,l)
);
},
{
closed = 0;
nodes = (
(531,106,l),
(533,94,o),
(544,0,o),
(544,0,c),
(596,0,l),
(596,368,l),
(349,368,l),
(349,312,l),
(516,312,l),
(516,158,o),
(420,43,o),
(299,43,cs),
(142,43,o),
(57,167,o),
(57,357,cs),
(57,542,o),
(158,657,o),
(299,657,cs),
(406,657,o),
(488,581,o),
(506,488,c),
(570,501,l),
(542,624,o),
(453,713,o),
(299,713,cs),
(86,713,o),
(-5,541,o),
(-5,355,cs),
(-5,163,o),
(81,-13,o),
(299,-13,cs),
(453,-13,o),
(542,76,o),
(570,199,c)
);
},
{
closed = 1;
nodes = (
(453,-13,o),
(542,76,o),
(570,199,c),
(510,211,l),
(485,117,o),
(420,43,o),
(299,43,cs),
(142,43,o),
(57,167,o),
(57,357,cs),
(57,542,o),
(158,657,o),
(299,657,cs),
(406,657,o),
(488,581,o),
(506,488,c),
(570,501,l),
(542,624,o),
(453,713,o),
(299,713,cs),
(86,713,o),
(-5,541,o),
(-5,355,cs),
(-5,163,o),
(81,-13,o),
(299,-13,cs)
);
}
);
width = 600;
}
);
unicode = 71;
},
{
glyphname = H;
lastChange = "2024-11-25 05:27:38 +0000";
layers = (
{
layerId = m01;
shapes = (
{
closed = 1;
nodes = (
(133,0,l),
(175,336,l),
(537,336,l),
(495,0,l),
(559,0,l),
(645,700,l),
(581,700,l),
(543,392,l),
(181,392,l),
(219,700,l),
(155,700,l),
(69,0,l)
);
}
);
width = 690;
},
{
layerId = m002;
shapes = (
{
closed = 1;
nodes = (
(151,0,l),
(191,324,l),
(527,324,l),
(487,0,l),
(575,0,l),
(661,700,l),
(573,700,l),
(537,404,l),
(201,404,l),
(237,700,l),
(149,700,l),
(63,0,l)
);
}
);
width = 700;
},
{
layerId = m003;
shapes = (
{
closed = 1;
nodes = (
(205,0,l),
(242,301,l),
(524,301,l),
(487,0,l),
(633,0,l),
(719,700,l),
(573,700,l),
(539,427,l),
(257,427,l),
(291,700,l),
(145,700,l),
(59,0,l)
);
}
);
width = 754;
}
);
unicode = 72;
},
{
glyphname = Hbar;
lastChange = "2024-11-25 04:31:09 +0000";
layers = (
{
layerId = m01;
shapes = (
{
closed = 1;
nodes = (
(133,0,l),
(175,336,l),
(537,336,l),
(495,0,l),
(559,0,l),
(645,700,l),
(581,700,l),
(543,392,l),
(181,392,l),
(219,700,l),
(155,700,l),
(69,0,l)
);
},
{
closed = 1;
nodes = (
(699,494,l),
(706,550,l),
(62,550,l),
(55,494,l)
);
}
);
width = 690;
},
{
layerId = m002;
shapes = (
{
closed = 1;
nodes = (
(148,0,l),
(187,318,l),
(523,318,l),
(484,0,l),
(572,0,l),
(658,700,l),
(570,700,l),
(533,398,l),
(197,398,l),
(234,700,l),
(146,700,l),
(60,0,l)
);
},
{
closed = 1;
nodes = (
(699,498,l),
(708,568,l),
(64,568,l),
(55,498,l)
);
}
);
width = 700;
},
{
layerId = m003;
shapes = (
{
closed = 1;
nodes = (
(205,0,l),
(240,290,l),
(522,290,l),
(487,0,l),
(633,0,l),
(719,700,l),
(573,700,l),
(538,416,l),
(256,416,l),
(291,700,l),
(145,700,l),
(59,0,l)
);
},
{
closed = 1;
nodes = (
(780,497,l),
(793,607,l),
(51,607,l),
(38,497,l)
);
}
);
width = 754;
}
);
unicode = 294;
},
{
glyphname = I;
lastChange = "2024-11-25 04:31:09 +0000";
layers = (
{
anchors = (
{
name = bottom;
pos = (217,0);
},
{
name = top;
pos = (303,700);
}
);
layerId = m01;
shapes = (
{
closed = 1;
nodes = (
(380,0,l),
(387,56,l),
(256,56,l),
(328,644,l),
(459,644,l),
(466,700,l),
(140,700,l),
(133,644,l),
(264,644,l),
(192,56,l),
(61,56,l),
(54,0,l)
);
}
);
width = 496;
},
{
anchors = (
{
name = bottom;
pos = (207,0);
},
{
name = top;
pos = (293,700);
}
);
layerId = m002;
shapes = (
{
closed = 1;
nodes = (
(369,0,l),
(379,76,l),
(261,76,l),
(328,624,l),
(446,624,l),
(455,700,l),
(131,700,l),
(122,624,l),
(240,624,l),
(173,76,l),
(55,76,l),
(45,0,l)
);
}
);
width = 476;
},
{
anchors = (
{
name = bottom;
pos = (236,0);
},
{
name = top;
pos = (322,700);
}
);
layerId = m003;
shapes = (
{
closed = 1;
nodes = (
(422,0,l),
(437,122,l),
(324,122,l),
(380,578,l),
(493,578,l),
(508,700,l),
(135,700,l),
(120,578,l),
(234,578,l),
(178,122,l),
(64,122,l),
(49,0,l)
);
}
);
width = 533;
}
);
unicode = 73;
},
{
glyphname = J;
lastChange = "2024-11-25 04:31:09 +0000";
layers = (
{
anchors = (
{
name = top;
pos = (453,700);
}
);
layerId = m01;
shapes = (
{
closed = 1;
nodes = (
(329,-12,o),
(405,65,o),
(428,253,cs),
(483,700,l),
(423,700,l),
(368,252,ls),
(351,111,o),
(304,44,o),
(194,44,cs),
(108,44,o),
(69,107,o),
(66,192,c),
(6,173,l),
(9,56,o),
(74,-12,o),
(191,-12,cs)
);
}
);
width = 516;
},
{
anchors = (
{
name = top;
pos = (454,700);
}
);
layerId = m002;
shapes = (
{
closed = 1;
nodes = (
(348,-12,o),
(425,85,o),
(446,256,cs),
(500,700,l),
(412,700,l),
(358,255,ls),
(344,148,o),
(299,68,o),
(208,68,cs),
(135,68,o),
(93,120,o),
(89,200,c),
(2,173,l),
(5,56,o),
(80,-12,o),
(202,-12,cs)
);
}
);
width = 527;
},
{
anchors = (
{
name = top;
pos = (481,700);
}
);
layerId = m003;
shapes = (
{
closed = 1;
nodes = (
(395,-12,o),
(481,90,o),
(502,261,cs),
(556,700,l),
(410,700,l),
(356,260,ls),
(347,185,o),
(311,118,o),
(238,118,cs),
(162,118,o),
(130,170,o),
(126,227,c),
(-7,183,l),
(-3,66,o),
(83,-12,o),
(223,-12,cs)
);
}
);
width = 575;
},
{
associatedMasterId = m01;
layerId = "F0224C38-C702-4CDE-838B-2E373CDF467B";
name = "5 Aug 24 at 10:34";
shapes = (
{
closed = 1;
nodes = (
(314,-12,o),
(407,94,o),
(407,275,cs),
(407,701,l),
(347,701,l),
(347,275,l),
(347,121,o),
(270,44,o),
(164,44,cs),
(60,44,o),
(-19,121,o),
(-19,275,cs),
(-19,701,l),
(-79,701,l),
(-79,275,ls),
(-79,94,o),
(15,-12,o),
(168,-12,cs)
);
}
);
width = 496;
},
{
associatedMasterId = m002;
layerId = "D039DF4E-49D3-4032-B6A6-5E0752F96B5B";
name = "5 Aug 24 at 10:37";
shapes = (
{
closed = 1;
nodes = (
(328,-12,o),
(413,98,o),
(413,275,cs),
(413,701,l),
(325,701,l),
(325,275,ls),
(325,139,o),
(251,73,o),
(162,73,cs),
(69,73,o),
(-1,139,o),
(-1,275,cs),
(-1,701,l),
(-89,701,l),
(-89,275,ls),
(-89,98,o),
(7,-12,o),
(166,-12,cs)
);
}
);
width = 495;
}
);
unicode = 74;
},
{
glyphname = K;
lastChange = "2024-11-25 04:31:09 +0000";
layers = (
{
anchors = (
{
name = bottom;
pos = (285,0);
}
);
layerId = m01;
shapes = (
{
closed = 1;
nodes = (
(129,0,l),
(159,244,l),
(616,700,l),
(539,700,l),
(170,330,l),
(215,700,l),
(155,700,l),
(69,0,l)
);
},
{
closed = 1;
nodes = (
(545,0,l),
(338,429,l),
(290,382,l),
(467,0,l)
);
}
);
width = 592;
},
{
anchors = (
{
name = bottom;
pos = (321,0);
}
);
layerId = m002;
shapes = (
{
closed = 1;
nodes = (
(149,0,l),
(179,242,l),
(642,700,l),
(535,700,l),
(193,358,l),
(235,700,l),
(147,700,l),
(61,0,l)
);
},
{
closed = 1;
nodes = (
(574,0,l),
(363,435,l),
(294,373,l),
(469,0,l)
);
}
);
width = 615;
},
{
anchors = (
{
name = bottom;
pos = (309,0);
}
);
layerId = m003;
shapes = (
{
closed = 1;
nodes = (
(205,0,l),
(232,224,l),
(706,700,l),
(546,700,l),
(254,404,l),
(291,700,l),
(145,700,l),
(59,0,l)
);
},
{
closed = 1;
nodes = (
(630,0,l),
(439,450,l),
(324,340,l),
(460,0,l)
);
}
);
width = 665;
}
);
unicode = 75;
},
{
glyphname = L;
lastChange = "2024-11-25 05:31:11 +0000";
layers = (
{
anchors = (
{
name = bottom;
pos = (277,0);
},
{
name = top;
pos = (185,700);
}
);
layerId = m01;
shapes = (
{
closed = 1;
nodes = (
(478,0,l),
(485,56,l),
(138,56,l),
(217,700,l),
(153,700,l),
(67,0,l)
);
}
);
width = 529;
},
{
anchors = (
{
name = bottom;
pos = (270,0);
},
{
name = top;
pos = (191,700);
}
);
layerId = m002;
shapes = (
{
closed = 1;
nodes = (
(475,0,l),
(485,80,l),
(161,80,l),
(237,700,l),
(149,700,l),
(63,0,l)
);
}
);
width = 524;
},
{
anchors = (
{
name = bottom;
pos = (304,0);
},
{
name = top;
pos = (214,700);
}
);
layerId = m003;
shapes = (
{
closed = 1;
nodes = (
(534,0,l),
(549,126,l),
(220,126,l),
(291,700,l),
(145,700,l),
(59,0,l)
);
}
);
width = 579;
}
);
unicode = 76;
},
{
glyphname = Lslash;
lastChange = "2024-11-25 04:31:09 +0000";
layers = (
{
layerId = m01;
shapes = (
{
closed = 1;
nodes = (
(253,302,l),
(273,310,l),
(478,392,l),
(464,444,l),
(273,369,l),
(246,358,l),
(113,305,l),
(126,252,l)
);
},
{
pos = (97,0);
ref = L;
}
);
width = 657;
},
{
layerId = m002;
shapes = (
{
closed = 1;
nodes = (
(256,293,l),
(283,304,l),
(508,395,l),
(489,459,l),
(295,381,l),
(261,368,l),
(113,308,l),
(134,243,l)
);
},
{
pos = (101,0);
ref = L;
}
);
width = 656;
},
{
layerId = m003;
shapes = (
{
closed = 1;
nodes = (
(273,283,l),
(376,315,l),
(571,394,l),
(544,494,l),
(394,431,l),
(281,395,l),
(101,320,l),
(127,223,l)
);
},
{
pos = (116,0);
ref = L;
}
);
width = 726;
}
);
unicode = 321;
},
{
glyphname = M;
lastChange = "2024-11-25 04:31:09 +0000";
layers = (
{
layerId = m01;
shapes = (
{
closed = 1;
nodes = (
(240,700,l),
(153,700,l),
(67,0,l),
(127,0,l),
(203,613,l),
(364,80,l),
(434,80,l),
(727,613,l),
(651,0,l),
(711,0,l),
(797,700,l),
(710,700,l),
(407,139,l)
);
}
);
width = 840;
},
{
layerId = m002;
shapes = (
{
closed = 1;
nodes = (
(272,700,l),
(150,700,l),
(64,0,l),
(152,0,l),
(221,562,l),
(366,62,l),
(461,62,l),
(723,562,l),
(654,0,l),
(742,0,l),
(828,700,l),
(706,700,l),
(423,164,l)
);
}
);
width = 868;
},
{
layerId = m003;
shapes = (
{
closed = 1;
nodes = (
(317,700,l),
(145,700,l),
(59,0,l),
(205,0,l),
(257,429,l),
(364,62,l),
(499,62,l),
(691,430,l),
(638,0,l),
(784,0,l),
(870,700,l),
(699,700,l),
(452,244,l)
);
}
);
width = 905;
}
);
unicode = 77;
},
{
glyphname = N;
lastChange = "2024-11-25 04:31:09 +0000";
layers = (
{
anchors = (
{
name = bottom;
pos = (309,0);
},
{
name = top;
pos = (395,700);
}
);
layerId = m01;
shapes = (
{
closed = 1;
nodes = (
(129,0,l),
(210,656,l),
(179,656,l),
(475,0,l),
(550,0,l),
(636,700,l),
(576,700,l),
(496,44,l),
(527,44,l),
(231,700,l),
(155,700,l),
(69,0,l)
);
}
);
width = 681;
},
{
anchors = (
{
name = bottom;
pos = (321,0);
},
{
name = top;
pos = (407,700);
}
);
layerId = m002;
shapes = (
{
closed = 1;
nodes = (
(153,0,l),
(230,623,l),
(200,623,l),
(463,0,l),
(572,0,l),
(658,700,l),
(570,700,l),
(494,77,l),
(524,77,l),
(273,700,l),
(151,700,l),
(65,0,l)
);
}
);
width = 699;
},
{
anchors = (
{
name = bottom;
pos = (342,0);
},
{
name = top;
pos = (425,700);
}
);
layerId = m003;
shapes = (
{
closed = 1;
nodes = (
(199,0,l),
(261,504,l),
(229,504,l),
(474,0,l),
(618,0,l),
(704,700,l),
(558,700,l),
(497,204,l),
(529,204,l),
(295,700,l),
(139,700,l),
(53,0,l)
);
}
);
width = 732;
}
);
unicode = 78;
},
{
glyphname = Nhookleft;
lastChange = "2024-11-25 04:31:09 +0000";
layers = (
{
guides = (
{
pos = (257,-165);
}
);
layerId = m003;
shapes = (
{
closed = 1;
nodes = (
(224,-230,o),
(291,-169,o),
(302,-76,c),
(367,451,l),
(587,0,l),
(730,0,l),
(816,700,l),
(671,700,l),
(616,258,l),
(408,700,l),
(252,700,l),
(162,-28,l),
(158,-66,o),
(133,-90,o),
(97,-90,cs),
(84,-90,o),
(59,-89,o),
(43,-86,c),
(26,-222,l),
(42,-227,o),
(80,-230,o),
(96,-230,cs)
);
}
);
width = 845;
},
{
guides = (
{
pos = (680,-133);
}
);
layerId = m01;
shapes = (
{
closed = 1;
nodes = (
(181,-230,o),
(225,-179,o),
(237,-86,c),
(321,604,l),
(605,0,l),
(660,0,l),
(746,700,l),
(687,700,l),
(617,128,l),
(349,700,l),
(273,700,l),
(176,-85,l),
(166,-158,o),
(142,-176,o),
(94,-176,cs),
(81,-176,o),
(64,-175,o),
(48,-172,c),
(42,-222,l),
(58,-227,o),
(80,-230,o),
(96,-230,cs)
);
}
);
width = 791;
},
{
guides = (
{
pos = (429,-142);
}
);
layerId = m002;
shapes = (
{
closed = 1;
nodes = (
(202,-230,o),
(249,-179,o),
(261,-86,c),
(341,571,l),
(588,0,l),
(675,0,l),
(761,700,l),
(673,700,l),
(609,176,l),
(398,700,l),
(269,700,l),
(175,-85,l),
(169,-139,o),
(140,-158,o),
(93,-158,cs),
(80,-158,o),
(62,-157,o),
(46,-154,c),
(38,-222,l),
(54,-227,o),
(77,-230,o),
(93,-230,cs)
);
}
);
width = 802;
}
);
unicode = 413;
},
{
glyphname = Eng;
lastChange = "2024-11-25 04:31:09 +0000";
layers = (
{
anchors = (
{
name = bottom;
pos = (342,0);
},
{
name = top;
pos = (425,700);
}
);
layerId = m003;
shapes = (
{
closed = 1;
nodes = (
(529,-230,o),
(596,-169,o),
(607,-76,cs),
(703,700,l),
(558,700,l),
(503,258,l),
(295,700,l),
(139,700,l),
(53,0,l),
(199,0,l),
(254,451,l),
(474,0,l),
(470,-28,ls),
(466,-66,o),
(441,-90,o),
(405,-90,cs),
(392,-90,o),
(364,-89,o),
(348,-86,c),
(331,-222,l),
(347,-227,o),
(385,-230,o),
(401,-230,cs)
);
}
);
width = 733;
},
{
anchors = (
{
name = bottom;
pos = (302,0);
},
{
name = top;
pos = (388,700);
}
);
layerId = m01;
shapes = (
{
closed = 1;
nodes = (
(476,-232,o),
(520,-181,o),
(531,-88,cs),
(628,700,l),
(569,700,l),
(499,130,l),
(231,700,l),
(155,700,l),
(69,0,l),
(129,0,l),
(203,604,l),
(488,2,l),
(476,-87,ls),
(466,-160,o),
(436,-178,o),
(388,-178,cs),
(375,-178,o),
(359,-177,o),
(343,-174,c),
(337,-224,l),
(353,-229,o),
(375,-232,o),
(391,-232,cs)
);
}
);
width = 674;
},
{
anchors = (
{
name = bottom;
pos = (306,0);
},
{
name = top;
pos = (392,700);
}
);
layerId = m002;
shapes = (
{
closed = 1;
nodes = (
(488,-230,o),
(535,-179,o),
(547,-86,cs),
(643,700,l),
(555,700,l),
(491,176,l),
(280,700,l),
(151,700,l),
(65,0,l),
(153,0,l),
(223,571,l),
(470,0,l),
(461,-85,ls),
(455,-139,o),
(426,-158,o),
(379,-158,cs),
(366,-158,o),
(348,-157,o),
(332,-154,c),
(324,-222,l),
(340,-227,o),
(363,-230,o),
(379,-230,cs)
);
}
);
width = 684;
}
);
unicode = 330;
},
{
glyphname = O;
kernLeft = O;
kernRight = O;
lastChange = "2024-11-25 05:30:47 +0000";
layers = (
{
anchors = (
{
name = bottom;
pos = (331,-11);
},
{
name = top;
pos = (420,713);
}
);
layerId = m01;
shapes = (
{
closed = 1;
nodes = (
(552,-12,o),
(661,157,o),
(684,349,cs),
(708,543,o),
(641,712,o),
(425,712,cs),
(209,712,o),
(100,543,o),
(76,349,cs),
(53,157,o),
(120,-12,o),
(336,-12,cs)
);
},
{
closed = 1;
nodes = (
(196,44,o),
(114,154,o),
(138,349,cs),
(162,540,o),
(271,656,o),
(418,656,cs),
(565,656,o),
(646,540,o),
(622,349,cs),
(598,154,o),
(490,44,o),
(343,44,cs)
);
}
);
width = 736;
},
{
anchors = (
{
name = bottom;
pos = (336,-11);
},
{
name = top;
pos = (425,713);
}
);
layerId = m002;
shapes = (
{
closed = 1;
nodes = (
(560,-11,o),
(674,158,o),
(697,351,cs),
(721,544,o),
(649,713,o),
(429,713,cs),
(209,713,o),
(95,544,o),
(71,351,cs),
(48,158,o),
(120,-11,o),
(340,-11,cs)
);
},
{
closed = 1;
nodes = (
(207,69,o),
(144,196,o),
(163,351,cs),
(182,506,o),
(276,633,o),
(419,633,cs),
(572,633,o),
(624,506,o),
(605,351,cs),
(586,196,o),
(503,69,o),
(350,69,cs)
);
}
);
width = 744;
},
{
anchors = (
{
name = bottom;
pos = (342,-11);
},
{
name = top;
pos = (431,713);
}
);
layerId = m003;
shapes = (
{
closed = 1;
nodes = (
(571,-11,o),
(697,148,o),
(722,351,cs),
(747,554,o),
(660,713,o),
(436,713,cs),
(212,713,o),
(85,554,o),
(60,351,cs),
(35,148,o),
(123,-11,o),
(347,-11,cs)
);
},
{
closed = 1;
nodes = (
(249,115,o),
(195,196,o),
(214,351,cs),
(233,506,o),
(307,587,o),
(421,587,cs),
(543,587,o),
(587,506,o),
(568,351,cs),
(549,196,o),
(485,115,o),
(363,115,cs)
);
}
);
width = 758;
}
);
unicode = 79;
},
{
glyphname = Ohorn;
kernLeft = O;
lastChange = "2024-11-25 04:34:23 +0000";
layers = (
{
layerId = m01;
shapes = (
{
closed = 1;
nodes = (
(659,627,o),
(753,705,o),
(719,827,c),
(656,808,l),
(678,738,o),
(642,676,o),
(578,676,cs),
(548,676,o),
(519,691,o),
(490,698,c),
(483,641,l),
(572,627,l)
);
},
{
pos = (-31,0);
ref = O;
}
);
width = 757;
},
{
layerId = m002;
shapes = (
{
closed = 1;
nodes = (
(687,612,o),
(761,708,o),
(727,830,c),
(645,808,l),
(666,749,o),
(648,679,o),
(580,679,cs),
(544,679,o),
(517,695,o),
(494,699,c),
(485,625,l),
(553,612,l)
);
},
{
pos = (-31,0);
ref = O;
}
);
width = 764;
},
{
layerId = m003;
shapes = (
{
closed = 1;
nodes = (
(723,602,o),
(821,711,o),
(784,846,c),
(666,815,l),
(688,756,o),
(675,683,o),
(594,683,cs),
(558,683,o),
(536,697,o),
(483,705,c),
(473,622,l),
(590,602,l)
);
},
{
pos = (-31,0);
ref = O;
}
);
width = 775;
}
);
unicode = 416;
},
{
glyphname = Oslash;
lastChange = "2024-11-25 04:31:09 +0000";
layers = (
{
layerId = m01;
shapes = (
{
pos = (21,0);
ref = O;
},
{
closed = 1;
nodes = (
(77,-12,l),
(816,682,l),
(775,720,l),
(39,31,l)
);
}
);
width = 827;
},
{
layerId = m002;
shapes = (
{
pos = (31,0);
ref = O;
},
{
closed = 1;
nodes = (
(83,-12,l),
(846,656,l),
(793,712,l),
(34,47,l)
);
}
);
width = 855;
},
{
layerId = m003;
shapes = (
{
pos = (33,0);
ref = O;
},
{
closed = 1;
nodes = (
(104,-12,l),
(871,619,l),
(789,712,l),
(27,85,l)
);
}
);
width = 874;
}
);
unicode = 216;
},
{
glyphname = OE;
lastChange = "2024-11-25 04:31:09 +0000";
layers = (
{
anchors = (
{
name = bottom;
pos = (459,0);
},
{
name = top;
pos = (545,700);
}
);
layerId = m01;
shapes = (
{
closed = 1;
nodes = (
(888,0,l),
(895,56,l),
(561,56,l),
(595,332,l),
(867,332,l),
(874,388,l),
(602,388,l),
(633,644,l),
(967,644,l),
(974,700,l),
(452,700,ls),
(226,700,o),
(102,560,o),
(76,349,cs),
(51,141,o),
(140,0,o),
(366,0,cs)
);
},
{
closed = 1;
nodes = (
(176,56,o),
(119,192,o),
(138,350,cs),
(158,507,o),
(248,644,o),
(442,644,cs),
(568,644,l),
(496,56,l),
(370,56,ls)
);
}
);
width = 979;
},
{
anchors = (
{
name = bottom;
pos = (460,0);
},
{
name = top;
pos = (546,700);
}
);
layerId = m002;
shapes = (
{
closed = 1;
nodes = (
(893,0,l),
(903,80,l),
(580,80,l),
(610,320,l),
(872,320,l),
(881,398,l),
(619,398,l),
(646,620,l),
(969,620,l),
(979,700,l),
(453,700,ls),
(221,700,o),
(97,560,o),
(71,349,cs),
(46,141,o),
(135,0,o),
(367,0,cs)
);
},
{
closed = 1;
nodes = (
(211,80,o),
(144,192,o),
(163,350,cs),
(183,507,o),
(277,620,o),
(440,620,cs),
(550,620,l),
(484,80,l),
(374,80,ls)
);
}
);
width = 981;
},
{
anchors = (
{
name = bottom;
pos = (456,0);
},
{
name = top;
pos = (542,700);
}
);
layerId = m003;
shapes = (
{
closed = 1;
nodes = (
(901,0,l),
(916,126,l),
(605,126,l),
(626,297,l),
(886,297,l),
(902,423,l),
(642,423,l),
(660,574,l),
(971,574,l),
(987,700,l),
(440,700,ls),
(210,700,o),
(85,554,o),
(60,349,cs),
(35,147,o),
(124,0,o),
(354,0,cs)
);
},
{
closed = 1;
nodes = (
(257,126,o),
(195,198,o),
(214,350,cs),
(232,501,o),
(312,574,o),
(421,574,cs),
(526,574,l),
(471,126,l),
(366,126,ls)
);
}
);
width = 974;
}
);
unicode = 338;
},
{
glyphname = P;
lastChange = "2024-11-25 05:34:29 +0000";
layers = (
{
layerId = m01;
shapes = (
{
closed = 1;
nodes = (
(133,0,l),
(165,262,l),
(333,262,ls),
(471,262,o),
(559,350,o),
(574,472,cs),
(592,615,o),
(516,700,o),
(389,700,cs),
(153,700,l),
(67,0,l)
);
},
{
closed = 1;
nodes = (
(210,644,l),
(380,644,ls),
(474,644,o),
(525,578,o),
(512,472,cs),
(500,375,o),
(436,318,o),
(339,318,cs),
(170,318,l)
);
}
);
width = 585;
},
{
layerId = m002;
shapes = (
{
closed = 1;
nodes = (
(152,0,l),
(183,252,l),
(344,252,l),
(485,252,o),
(578,342,o),
(594,472,cs),
(612,615,o),
(531,700,o),
(401,700,cs),
(150,700,l),
(64,0,l)
);
},
{
closed = 1;
nodes = (
(229,621,l),
(390,621,ls),
(463,621,o),
(517,573,o),
(504,472,cs),
(492,376,o),
(427,332,o),
(353,332,cs),
(193,332,l)
);
}
);
width = 602;
},
{
layerId = m003;
shapes = (
{
closed = 1;
nodes = (
(207,-1,l),
(235,231,l),
(385,231,ls),
(529,231,o),
(628,336,o),
(644,465,cs),
(662,609,o),
(578,701,o),
(445,701,cs),
(145,701,l),
(59,-1,l)
);
},
{
closed = 1;
nodes = (
(275,575,l),
(404,575,ls),
(467,575,o),
(498,527,o),
(490,467,cs),
(483,410,o),
(442,357,o),
(378,357,cs),
(249,357,l)
);
}
);
width = 638;
}
);
unicode = 80;
},
{
glyphname = Thorn;
lastChange = "2024-11-25 04:31:09 +0000";
layers = (
{
layerId = m01;
shapes = (
{
closed = 1;
nodes = (
(133,0,l),
(150,138,l),
(318,138,ls),
(456,138,o),
(544,226,o),
(559,348,cs),
(577,491,o),
(501,576,o),
(374,576,cs),
(138,576,l),
(67,0,l)
);
},
{
closed = 1;
nodes = (
(195,520,l),
(365,520,ls),
(459,520,o),
(510,454,o),
(497,348,cs),
(485,251,o),
(421,194,o),
(324,194,cs),
(155,194,l)
);
},
{
closed = 1;
nodes = (
(130,512,l),
(195,512,l),
(218,700,l),
(153,700,l)
);
}
);
width = 585;
},
{
layerId = m002;
shapes = (
{
closed = 1;
nodes = (
(152,0,l),
(168,128,l),
(329,128,l),
(470,128,o),
(563,218,o),
(579,348,cs),
(597,491,o),
(516,576,o),
(386,576,cs),
(135,576,l),
(64,0,l)
);
},
{
closed = 1;
nodes = (
(213,497,l),
(374,497,ls),
(447,497,o),
(501,449,o),
(489,348,cs),
(477,252,o),
(412,208,o),
(338,208,cs),
(178,208,l)
);
},
{
closed = 1;
nodes = (
(126,500,l),
(212,500,l),
(236,700,l),
(150,700,l)
);
}
);
width = 602;
},
{
layerId = m003;
shapes = (
{
closed = 1;
nodes = (
(207,-1,l),
(222,122,l),
(372,122,ls),
(516,122,o),
(615,227,o),
(631,356,cs),
(648,500,o),
(565,592,o),
(432,592,cs),
(132,592,l),
(59,-1,l)
);
},
{
closed = 1;
nodes = (
(262,466,l),
(391,466,ls),
(454,466,o),
(484,418,o),
(477,358,cs),
(470,301,o),
(428,248,o),
(364,248,cs),
(235,248,l)
);
},
{
closed = 1;
nodes = (
(116,462,l),
(264,462,l),
(293,700,l),
(145,700,l)
);
}
);
width = 638;
}
);
unicode = 222;
},
{
glyphname = Q;
kernLeft = O;
kernRight = O;
lastChange = "2024-11-25 04:31:09 +0000";
layers = (
{
layerId = m01;
shapes = (
{
closed = 1;
nodes = (
(552,-12,o),
(661,157,o),
(684,349,cs),
(708,543,o),
(641,712,o),
(425,712,cs),
(209,712,o),
(100,543,o),
(76,349,cs),
(53,157,o),
(120,-12,o),
(336,-12,cs)
);
},
{
closed = 1;
nodes = (
(648,-33,l),
(437,256,l),
(389,220,l),
(599,-71,l)
);
},
{
closed = 1;
nodes = (
(196,44,o),
(114,154,o),
(138,349,cs),
(162,540,o),
(271,656,o),
(418,656,cs),
(565,656,o),
(646,540,o),
(622,349,cs),
(598,154,o),
(490,44,o),
(343,44,cs)
);
}
);
width = 745;
},
{
layerId = m002;
shapes = (
{
closed = 1;
nodes = (
(560,-11,o),
(674,158,o),
(697,351,cs),
(721,544,o),
(649,713,o),
(429,713,cs),
(209,713,o),
(95,544,o),
(71,351,cs),
(48,158,o),
(120,-11,o),
(340,-11,cs)
);
},
{
closed = 1;
nodes = (
(666,-34,l),
(439,272,l),
(379,227,l),
(603,-82,l)
);
},
{
closed = 1;
nodes = (
(197,69,o),
(144,196,o),
(163,351,cs),
(182,506,o),
(266,633,o),
(419,633,cs),
(572,633,o),
(624,506,o),
(605,351,cs),
(586,196,o),
(503,69,o),
(350,69,cs)
);
}
);
width = 752;
},
{
layerId = m003;
shapes = (
{
closed = 1;
nodes = (
(565,-11,o),
(686,158,o),
(710,351,cs),
(734,544,o),
(654,713,o),
(430,713,cs),
(206,713,o),
(84,544,o),
(60,351,cs),
(36,158,o),
(117,-11,o),
(341,-11,cs)
);
},
{
closed = 1;
nodes = (
(676,-30,l),
(436,299,l),
(338,226,l),
(577,-105,l)
);
},
{
closed = 1;
nodes = (
(213,111,o),
(176,224,o),
(192,351,cs),
(206,463,o),
(266,592,o),
(416,592,cs),
(566,592,o),
(590,463,o),
(576,351,cs),
(560,224,o),
(506,111,o),
(356,111,cs)
);
}
);
width = 734;
}
);
unicode = 81;
},
{
glyphname = R;
lastChange = "2024-11-25 04:31:09 +0000";
layers = (
{
anchors = (
{
name = bottom;
pos = (274,0);
},
{
name = top;
pos = (329,700);
}
);
layerId = m01;
shapes = (
{
closed = 1;
nodes = (
(133,0,l),
(169,292,l),
(321,292,ls),
(454,292,o),
(544,395,o),
(555,488,cs),
(573,631,o),
(495,700,o),
(373,700,cs),
(153,700,l),
(67,0,l)
);
},
{
closed = 1;
nodes = (
(532,0,l),
(392,306,l),
(331,292,l),
(462,0,l)
);
},
{
closed = 1;
nodes = (
(210,644,l),
(364,644,ls),
(453,644,o),
(506,594,o),
(493,488,cs),
(485,420,o),
(418,348,o),
(326,348,cs),
(174,348,l)
);
}
);
width = 608;
},
{
anchors = (
{
name = bottom;
pos = (297,0);
},
{
name = top;
pos = (383,700);
}
);
layerId = m002;
shapes = (
{
closed = 1;
nodes = (
(152,0,l),
(188,290,l),
(331,290,ls),
(475,290,o),
(579,376,o),
(594,498,cs),
(611,631,o),
(529,700,o),
(407,700,cs),
(150,700,l),
(64,0,l)
);
},
{
closed = 1;
nodes = (
(571,0,l),
(424,319,l),
(338,292,l),
(469,0,l)
);
},
{
closed = 1;
nodes = (
(228,620,l),
(391,620,ls),
(461,620,o),
(514,573,o),
(504,498,cs),
(495,422,o),
(431,370,o),
(361,370,cs),
(198,370,l)
);
}
);
width = 644;
},
{
anchors = (
{
name = bottom;
pos = (286,0);
},
{
name = top;
pos = (372,700);
}
);
layerId = m003;
shapes = (
{
closed = 1;
nodes = (
(207,-1,l),
(238,251,l),
(388,251,ls),
(532,251,o),
(629,341,o),
(646,478,cs),
(663,622,o),
(578,701,o),
(445,701,cs),
(145,701,l),
(59,-1,l)
);
},
{
closed = 1;
nodes = (
(636,0,l),
(493,283,l),
(332,269,l),
(463,0,l)
);
},
{
closed = 1;
nodes = (
(275,575,l),
(404,575,ls),
(467,575,o),
(498,533,o),
(492,480,cs),
(483,410,o),
(444,377,o),
(380,377,cs),
(251,377,l)
);
}
);
width = 699;
}
);
unicode = 82;
},
{
glyphname = S;
lastChange = "2024-11-25 04:31:09 +0000";
layers = (
{
anchors = (
{
name = bottom;
pos = (275,-12);
},
{
name = top;
pos = (361,712);
}
);
layerId = m01;
shapes = (
{
closed = 1;
nodes = (
(410,-12,o),
(519,58,o),
(536,195,cs),
(566,437,o),
(139,334,o),
(162,521,cs),
(171,591,o),
(235,656,o),
(342,656,cs),
(460,656,o),
(501,580,o),
(501,513,c),
(567,513,l),
(573,603,o),
(501,712,o),
(356,712,cs),
(199,712,o),
(112,618,o),
(100,516,cs),
(68,259,o),
(497,382,o),
(473,186,cs),
(464,114,o),
(401,44,o),
(280,44,cs),
(157,44,o),
(111,121,o),
(107,214,c),
(40,214,l),
(38,99,o),
(109,-12,o),
(273,-12,cs)
);
}
);
width = 596;
},
{
anchors = (
{
name = bottom;
pos = (281,-12);
},
{
name = top;
pos = (367,712);
}
);
layerId = m002;
shapes = (
{
closed = 1;
nodes = (
(421,-12,o),
(535,58,o),
(552,195,cs),
(584,457,o),
(177,344,o),
(198,521,cs),
(207,591,o),
(280,632,o),
(350,632,cs),
(445,632,o),
(486,572,o),
(488,513,c),
(581,513,l),
(587,603,o),
(520,712,o),
(367,712,cs),
(207,712,o),
(118,618,o),
(106,516,cs),
(73,246,o),
(482,371,o),
(459,186,cs),
(450,114,o),
(374,68,o),
(291,68,cs),
(196,68,o),
(148,129,o),
(145,214,c),
(48,214,l),
(46,99,o),
(111,-12,o),
(281,-12,cs)
);
}
);
width = 597;
},
{
anchors = (
{
name = bottom;
pos = (281,-5);
},
{
name = top;
pos = (370,712);
}
);
layerId = m003;
shapes = (
{
closed = 1;
nodes = (
(439,-12,o),
(552,63,o),
(568,200,cs),
(600,459,o),
(228,386,o),
(243,509,cs),
(251,568,o),
(310,582,o),
(354,582,cs),
(410,582,o),
(444,554,o),
(447,505,c),
(600,505,l),
(606,595,o),
(548,712,o),
(370,712,cs),
(193,712,o),
(102,606,o),
(90,504,cs),
(57,234,o),
(431,338,o),
(413,186,cs),
(407,142,o),
(357,118,o),
(296,118,cs),
(240,118,o),
(192,147,o),
(187,222,c),
(31,222,l),
(30,107,o),
(86,-12,o),
(280,-12,cs)
);
}
);
width = 611;
}
);
unicode = 83;
},
{
glyphname = Germandbls;
lastChange = "2024-11-25 04:31:09 +0000";
layers = (
{
layerId = m01;
shapes = (
{
closed = 1;
nodes = (
(129,0,l),
(215,700,l),
(155,700,l),
(69,0,l)
);
},
{
closed = 1;
nodes = (
(183,98,l),
(215,29,o),
(284,-12,o),
(369,-12,cs),
(491,-12,o),
(595,69,o),
(610,204,cs),
(624,320,o),
(555,423,o),
(401,423,c),
(628,639,l),
(635,700,l),
(177,700,l),
(170,644,l),
(555,644,l),
(320,423,l),
(314,370,l),
(371,370,ls),
(500,370,o),
(562,305,o),
(550,208,cs),
(540,124,o),
(478,44,o),
(376,44,cs),
(302,44,o),
(259,76,o),
(239,128,c)
);
}
);
width = 667;
},
{
layerId = m002;
shapes = (
{
closed = 1;
nodes = (
(166,0,l),
(252,700,l),
(164,700,l),
(78,0,l)
);
},
{
closed = 1;
nodes = (
(216,91,l),
(236,31,o),
(299,-12,o),
(394,-12,cs),
(529,-12,o),
(620,77,o),
(636,210,cs),
(649,312,o),
(581,414,o),
(446,414,c),
(643,615,l),
(653,700,l),
(229,700,l),
(219,620,l),
(537,620,l),
(335,414,l),
(327,346,l),
(386,346,ls),
(494,346,o),
(555,295,o),
(543,200,cs),
(532,114,o),
(472,68,o),
(404,68,cs),
(344,68,o),
(312,105,o),
(302,139,c)
);
}
);
width = 699;
},
{
layerId = m003;
shapes = (
{
closed = 1;
nodes = (
(224,0,l),
(310,700,l),
(164,700,l),
(78,0,l)
);
},
{
closed = 1;
nodes = (
(270,92,l),
(298,21,o),
(373,-13,o),
(460,-13,cs),
(623,-13,o),
(702,92,o),
(718,218,cs),
(731,331,o),
(655,423,o),
(554,423,c),
(719,574,l),
(735,700,l),
(239,700,l),
(223,574,l),
(556,574,l),
(391,422,l),
(378,317,l),
(450,317,ls),
(525,317,o),
(581,288,o),
(572,217,cs),
(565,155,o),
(520,117,o),
(472,117,cs),
(435,117,o),
(407,133,o),
(395,166,c)
);
}
);
width = 760;
}
);
unicode = 7838;
},
{
glyphname = T;
kernLeft = T;
kernRight = T;
lastChange = "2024-11-25 05:34:11 +0000";
layers = (
{
anchors = (
{
name = bottom;
pos = (221,0);
},
{
name = top;
pos = (305,700);
}
);
layerId = m01;
shapes = (
{
closed = 1;
nodes = (
(251,0,l),
(330,644,l),
(532,644,l),
(539,700,l),
(71,700,l),
(64,644,l),
(266,644,l),
(187,0,l)
);
}
);
width = 500;
},
{
anchors = (
{
name = bottom;
pos = (290,0);
},
{
name = top;
pos = (376,700);
}
);
layerId = m002;
shapes = (
{
closed = 1;
nodes = (
(334,0,l),
(410,620,l),
(599,620,l),
(609,700,l),
(143,700,l),
(133,620,l),
(322,620,l),
(246,0,l)
);
}
);
width = 600;
},
{
anchors = (
{
name = bottom;
pos = (309,0);
},
{
name = top;
pos = (391,700);
}
);
layerId = m003;
shapes = (
{
closed = 1;
nodes = (
(378,0,l),
(448,574,l),
(635,574,l),
(651,700,l),
(135,700,l),
(119,574,l),
(302,574,l),
(232,0,l)
);
}
);
width = 636;
}
);
unicode = 84;
},
{
glyphname = U;
lastChange = "2024-11-25 05:28:13 +0000";
layers = (
{
anchors = (
{
name = bottom;
pos = (304,-12);
},
{
name = top;
pos = (393,713);
}
);
layerId = m01;
shapes = (
{
closed = 1;
nodes = (
(451,-12,o),
(557,94,o),
(579,275,cs),
(631,701,l),
(571,701,l),
(519,275,ls),
(500,121,o),
(414,44,o),
(308,44,cs),
(204,44,o),
(134,121,o),
(153,275,cs),
(205,701,l),
(145,701,l),
(93,275,ls),
(71,94,o),
(152,-12,o),
(305,-12,cs)
);
}
);
width = 666;
},
{
anchors = (
{
name = bottom;
pos = (310,-12);
},
{
name = top;
pos = (399,713);
}
);
layerId = m002;
shapes = (
{
closed = 1;
nodes = (
(477,-12,o),
(575,98,o),
(597,275,cs),
(649,701,l),
(561,701,l),
(509,275,ls),
(492,139,o),
(410,73,o),
(318,73,cs),
(222,73,o),
(160,139,o),
(177,275,cs),
(229,701,l),
(141,701,l),
(89,275,ls),
(67,98,o),
(150,-12,o),
(312,-12,cs)
);
}
);
width = 680;
},
{
anchors = (
{
name = bottom;
pos = (318,-12);
},
{
name = top;
pos = (406,700);
}
);
layerId = m003;
shapes = (
{
closed = 1;
nodes = (
(494,-12,o),
(607,98,o),
(629,275,cs),
(681,701,l),
(535,701,l),
(483,275,ls),
(471,184,o),
(417,118,o),
(330,118,cs),
(239,118,o),
(205,184,o),
(217,275,cs),
(269,701,l),
(123,701,l),
(71,275,ls),
(49,98,o),
(145,-12,o),
(318,-12,cs)
);
}
);
width = 694;
}
);
unicode = 85;
},
{
glyphname = Uhorn;
kernLeft = U;
kernRight = Uhorn;
lastChange = "2024-11-25 04:34:48 +0000";
layers = (
{
layerId = m01;
shapes = (
{
pos = (-31,0);
ref = U;
},
{
closed = 1;
nodes = (
(676,652,o),
(770,730,o),
(736,852,c),
(673,833,l),
(695,763,o),
(659,701,o),
(595,701,c),
(589,652,l)
);
}
);
width = 701;
},
{
layerId = m002;
shapes = (
{
pos = (-31,0);
ref = U;
},
{
closed = 1;
nodes = (
(731,647,o),
(803,730,o),
(769,852,c),
(686,830,l),
(708,771,o),
(695,701,o),
(614,701,c),
(608,647,l)
);
}
);
width = 744;
},
{
layerId = m003;
shapes = (
{
pos = (-31,0);
ref = U;
},
{
closed = 1;
nodes = (
(758,620,o),
(859,729,o),
(822,864,c),
(704,833,l),
(726,774,o),
(716,701,o),
(635,701,c),
(625,620,l)
);
}
);
width = 777;
}
);
unicode = 431;
},
{
glyphname = V;
kernLeft = V;
kernRight = V;
lastChange = "2024-11-25 05:32:38 +0000";
layers = (
{
layerId = m01;
shapes = (
{
closed = 1;
nodes = (
(226,0,l),
(288,0,l),
(131,700,l),
(63,700,l)
);
},
{
closed = 1;
nodes = (
(228,0,l),
(288,0,l),
(623,700,l),
(555,700,l)
);
}
);
width = 579;
},
{
layerId = m002;
shapes = (
{
closed = 1;
nodes = (
(222,0,l),
(308,0,l),
(157,700,l),
(63,700,l)
);
},
{
closed = 1;
nodes = (
(228,0,l),
(308,0,l),
(638,700,l),
(550,700,l)
);
}
);
width = 590;
},
{
layerId = m003;
shapes = (
{
closed = 1;
nodes = (
(216,0,l),
(366,0,l),
(212,700,l),
(57,700,l)
);
},
{
closed = 1;
nodes = (
(248,0,l),
(386,0,l),
(716,700,l),
(561,700,l)
);
}
);
width = 663;
}
);
unicode = 86;
},
{
glyphname = W;
kernLeft = V;
kernRight = V;
lastChange = "2024-11-25 04:31:09 +0000";
layers = (
{
anchors = (
{
name = bottom;
pos = (443,0);
},
{
name = top;
pos = (529,700);
}
);
guides = (
{
angle = 270;
pos = (268,658);
},
{
angle = 270;
pos = (474,649);
},
{
angle = 270;
pos = (695,658);
}
);
layerId = m01;
shapes = (
{
closed = 1;
nodes = (
(274,0,l),
(533,638,l),
(516,638,l),
(622,0,l),
(701,0,l),
(981,700,l),
(918,700,l),
(662,48,l),
(678,48,l),
(578,700,l),
(495,700,l),
(235,48,l),
(251,48,l),
(157,700,l),
(87,700,l),
(193,0,l)
);
}
);
width = 958;
},
{
anchors = (
{
name = bottom;
pos = (438,0);
},
{
name = top;
pos = (533,700);
}
);
guides = (
{
angle = 89.2931;
pos = (265,413);
},
{
angle = 89.2931;
pos = (474,411);
},
{
angle = 89.2931;
pos = (696,411);
}
);
layerId = m002;
shapes = (
{
closed = 1;
nodes = (
(287,0,l),
(535,616,l),
(509,616,l),
(605,0,l),
(720,0,l),
(981,700,l),
(888,700,l),
(656,59,l),
(685,59,l),
(587,700,l),
(477,700,l),
(223,59,l),
(252,59,l),
(176,700,l),
(83,700,l),
(172,0,l)
);
}
);
width = 954;
},
{
anchors = (
{
name = bottom;
pos = (460,0);
},
{
name = top;
pos = (546,700);
}
);
guides = (
{
angle = 270;
pos = (287,528);
},
{
angle = 270;
pos = (491,528);
},
{
angle = 270;
pos = (696,528);
}
);
layerId = m003;
shapes = (
{
closed = 1;
nodes = (
(331,0,l),
(547,567,l),
(511,567,l),
(591,0,l),
(755,0,l),
(1022,700,l),
(865,700,l),
(662,129,l),
(702,129,l),
(628,700,l),
(464,700,l),
(252,129,l),
(291,129,l),
(228,700,l),
(71,700,l),
(167,0,l)
);
}
);
width = 983;
},
{
associatedMasterId = m002;
layerId = "61F56607-383A-4625-9FCC-44CDCF2F703C";
name = "14 Jul 24 at 12:33";
shapes = (
{
closed = 1;
nodes = (
(293,0,l),
(463,569,l),
(633,0,l),
(748,0,l),
(898,700,l),
(805,700,l),
(688,116,l),
(517,700,l),
(409,700,l),
(238,116,l),
(121,700,l),
(28,700,l),
(178,0,l)
);
}
);
width = 926;
},
{
associatedMasterId = m003;
layerId = "5ACD06B8-073E-40FC-B562-77ADC4AD2B58";
name = "14 Jul 24 at 12:35";
shapes = (
{
closed = 1;
nodes = (
(332,0,l),
(168,0,l),
(18,700,l),
(175,700,l),
(262,213,l),
(408,700,l),
(556,700,l),
(702,213,l),
(789,700,l),
(946,700,l),
(796,0,l),
(632,0,l),
(482,485,l)
);
}
);
width = 964;
}
);
unicode = 87;
},
{
glyphname = X;
lastChange = "2024-11-25 05:30:50 +0000";
layers = (
{
layerId = m01;
shapes = (
{
closed = 1;
nodes = (
(542,-1,l),
(167,699,l),
(96,699,l),
(472,-1,l)
);
},
{
closed = 1;
nodes = (
(59,-1,l),
(605,699,l),
(534,699,l),
(-11,-1,l)
);
}
);
width = 593;
},
{
layerId = m002;
shapes = (
{
closed = 1;
nodes = (
(549,0,l),
(182,700,l),
(81,700,l),
(449,0,l)
);
},
{
closed = 1;
nodes = (
(84,0,l),
(624,700,l),
(524,700,l),
(-15,0,l)
);
}
);
width = 596;
},
{
layerId = m003;
shapes = (
{
closed = 1;
nodes = (
(605,0,l),
(221,700,l),
(62,700,l),
(447,0,l)
);
},
{
closed = 1;
nodes = (
(133,0,l),
(689,700,l),
(530,700,l),
(-25,0,l)
);
}
);
width = 642;
}
);
unicode = 88;
},
{
glyphname = Y;
lastChange = "2024-11-25 05:31:29 +0000";
layers = (
{
anchors = (
{
name = bottom;
pos = (255,0);
},
{
name = top;
pos = (341,700);
}
);
layerId = m01;
shapes = (
{
closed = 1;
nodes = (
(286,0,l),
(319,294,l),
(613,700,l),
(544,701,l),
(296,351,l),
(135,700,l),
(61,700,l),
(262,294,l),
(223,0,l)
);
}
);
width = 564;
},
{
anchors = (
{
name = bottom;
pos = (263,0);
},
{
name = top;
pos = (349,700);
}
);
layerId = m002;
shapes = (
{
closed = 1;
nodes = (
(308,0,l),
(341,294,l),
(632,700,l),
(539,700,l),
(308,375,l),
(160,700,l),
(60,700,l),
(259,294,l),
(220,0,l)
);
}
);
width = 582;
},
{
anchors = (
{
name = bottom;
pos = (293,0);
},
{
name = top;
pos = (378,700);
}
);
layerId = m003;
shapes = (
{
closed = 1;
nodes = (
(366,0,l),
(398,289,l),
(700,700,l),
(542,700,l),
(342,411,l),
(216,700,l),
(55,700,l),
(257,289,l),
(219,0,l)
);
}
);
width = 645;
}
);
unicode = 89;
},
{
glyphname = Z;
lastChange = "2024-11-25 04:31:09 +0000";
layers = (
{
anchors = (
{
name = bottom;
pos = (233,0);
},
{
name = top;
pos = (319,700);
}
);
layerId = m01;
shapes = (
{
closed = 1;
nodes = (
(452,1,l),
(459,57,l),
(90,57,l),
(531,642,l),
(538,700,l),
(101,700,l),
(94,644,l),
(464,644,l),
(23,59,l),
(15,1,l)
);
}
);
width = 533;
},
{
anchors = (
{
name = bottom;
pos = (240,0);
},
{
name = top;
pos = (326,700);
}
);
layerId = m002;
shapes = (
{
closed = 1;
nodes = (
(464,1,l),
(474,81,l),
(129,81,l),
(540,618,l),
(550,700,l),
(101,700,l),
(91,620,l),
(436,620,l),
(25,83,l),
(15,1,l)
);
}
);
width = 545;
},
{
anchors = (
{
name = bottom;
pos = (240,0);
},
{
name = top;
pos = (326,700);
}
);
layerId = m003;
shapes = (
{
closed = 1;
nodes = (
(486,1,l),
(501,127,l),
(183,127,l),
(557,578,l),
(572,700,l),
(85,700,l),
(69,574,l),
(389,574,l),
(14,123,l),
(-1,1,l)
);
}
);
width = 549;
}
);
unicode = 90;
},
{
glyphname = a;
kernLeft = a;
lastChange = "2024-11-25 04:31:09 +0000";
layers = (
{
anchors = (
{
name = bottom;
pos = (250,-12);
},
{
name = top;
pos = (313,512);
}
);
layerId = m01;
shapes = (
{
closed = 1;
nodes = (
(302,-12,o),
(391,23,o),
(423,92,c),
(411,0,l),
(467,0,l),
(529,500,l),
(473,500,l),
(461,406,l),
(448,461,o),
(385,512,o),
(300,512,cs),
(183,512,o),
(77,419,o),
(56,250,cs),
(36,86,o),
(119,-12,o),
(236,-12,cs)
);
},
{
closed = 1;
nodes = (
(155,38,o),
(100,124,o),
(115,252,cs),
(131,377,o),
(193,462,o),
(306,462,cs),
(385,462,o),
(459,392,o),
(443,250,cs),
(425,112,o),
(350,38,o),
(254,38,cs)
);
}
);
width = 568;
},
{
anchors = (
{
name = bottom;
pos = (259,-12);
},
{
name = top;
pos = (323,512);
}
);
layerId = m002;
shapes = (
{
closed = 1;
nodes = (
(312,-12,o),
(390,27,o),
(420,96,c),
(408,0,l),
(492,0,l),
(554,500,l),
(470,500,l),
(458,402,l),
(445,457,o),
(400,512,o),
(312,512,cs),
(173,512,o),
(75,419,o),
(54,250,cs),
(34,86,o),
(109,-12,o),
(243,-12,cs)
);
},
{
closed = 1;
nodes = (
(164,64,o),
(126,148,o),
(139,252,cs),
(152,356,o),
(210,437,o),
(308,437,cs),
(407,437,o),
(452,360,o),
(438,250,cs),
(425,148,o),
(361,64,o),
(265,64,cs)
);
}
);
width = 609;
},
{
anchors = (
{
name = bottom;
pos = (252,-12);
},
{
name = top;
pos = (318,520);
}
);
layerId = m003;
shapes = (
{
closed = 1;
nodes = (
(308,-12,o),
(362,29,o),
(395,83,c),
(385,0,l),
(524,0,l),
(587,508,l),
(447,508,l),
(436,415,l),
(417,470,o),
(374,520,o),
(290,520,cs),
(159,520,o),
(59,421,o),
(38,253,cs),
(18,88,o),
(83,-12,o),
(219,-12,cs)
);
},
{
closed = 1;
nodes = (
(210,95,o),
(172,157,o),
(184,253,cs),
(195,340,o),
(249,410,o),
(321,410,cs),
(389,410,o),
(427,341,o),
(416,253,cs),
(404,158,o),
(351,97,o),
(283,96,cs)
);
}
);
width = 610;
}
);
unicode = 97;
},
{
glyphname = ae;
lastChange = "2024-11-25 04:31:09 +0000";
layers = (
{
anchors = (
{
name = top;
pos = (484,512);
}
);
layerId = m01;
shapes = (
{
closed = 1;
nodes = (
(746,-13,o),
(822,62,o),
(857,144,c),
(805,154,l),
(780,100,o),
(723,37,o),
(627,37,cs),
(508,37,o),
(456,118,o),
(471,245,cs),
(486,368,o),
(546,462,o),
(676,462,cs),
(783,462,o),
(828,381,o),
(818,302,c),
(467,302,l),
(461,252,l),
(872,252,l),
(874,267,l),
(893,422,o),
(806,512,o),
(678,512,cs),
(541,512,o),
(443,412,o),
(423,248,cs),
(403,87,o),
(471,-13,o),
(617,-13,cs)
);
},
{
closed = 1;
nodes = (
(309,-12,o),
(417,65,o),
(429,163,c),
(451,145,l),
(475,338,ls),
(489,450,o),
(440,512,o),
(304,512,cs),
(225,512,o),
(149,476,o),
(100,400,c),
(149,373,l),
(176,420,o),
(229,460,o),
(298,460,cs),
(400,460,o),
(443,409,o),
(426,333,cs),
(419,301,l),
(179,301,o),
(59,271,o),
(42,132,cs),
(30,40,o),
(105,-12,o),
(189,-12,cs)
);
},
{
closed = 1;
nodes = (
(134,38,o),
(96,81,o),
(102,131,cs),
(114,228,o),
(176,251,o),
(413,251,c),
(411,230,ls),
(398,129,o),
(313,38,o),
(197,38,cs)
);
}
);
width = 924;
},
{
anchors = (
{
name = top;
pos = (503,512);
}
);
layerId = m002;
shapes = (
{
closed = 1;
nodes = (
(761,-13,o),
(837,55,o),
(872,137,c),
(792,151,l),
(766,97,o),
(706,63,o),
(649,63,cs),
(524,63,o),
(502,152,o),
(514,247,cs),
(529,369,o),
(583,436,o),
(692,436,cs),
(786,436,o),
(816,360,o),
(809,311,c),
(516,311,l),
(508,241,l),
(887,241,l),
(889,261,l),
(911,434,o),
(821,512,o),
(697,512,cs),
(560,512,o),
(461,414,o),
(441,250,cs),
(421,89,o),
(496,-13,o),
(636,-13,cs)
);
},
{
closed = 1;
nodes = (
(321,-12,o),
(436,73,o),
(445,147,c),
(471,148,l),
(494,332,ls),
(508,447,o),
(454,512,o),
(322,512,cs),
(211,512,o),
(143,462,o),
(104,392,c),
(169,356,l),
(193,413,o),
(255,442,o),
(310,442,cs),
(380,442,o),
(437,414,o),
(428,339,cs),
(425,313,l),
(169,313,o),
(69,261,o),
(55,141,cs),
(43,49,o),
(116,-12,o),
(199,-12,cs)
);
},
{
closed = 1;
nodes = (
(172,62,o),
(131,96,o),
(137,141,cs),
(145,210,o),
(193,247,o),
(417,247,c),
(413,215,ls),
(400,110,o),
(281,62,o),
(219,62,cs)
);
}
);
width = 941;
},
{
anchors = (
{
name = top;
pos = (494,520);
}
);
layerId = m003;
shapes = (
{
closed = 1;
nodes = (
(699,-13,o),
(800,23,o),
(860,134,c),
(733,173,l),
(709,130,o),
(659,107,o),
(629,107,cs),
(540,107,o),
(508,164,o),
(519,256,cs),
(529,337,o),
(576,400,o),
(660,400,cs),
(727,400,o),
(758,346,o),
(754,311,c),
(493,311,l),
(483,225,l),
(886,225,l),
(889,248,l),
(910,418,o),
(826,520,o),
(676,520,cs),
(545,520,o),
(422,436,o),
(400,256,cs),
(379,82,o),
(477,-13,o),
(612,-13,cs)
);
},
{
closed = 1;
nodes = (
(424,-12,o),
(450,173,o),
(450,173,c),
(478,174,l),
(499,340,ls),
(512,451,o),
(468,520,o),
(318,520,cs),
(197,520,o),
(114,459,o),
(81,387,c),
(181,342,l),
(200,385,o),
(241,412,o),
(296,412,cs),
(364,412,o),
(395,374,o),
(388,322,cs),
(388,318,l),
(164,318,o),
(42,273,o),
(26,144,cs),
(15,51,o),
(80,-12,o),
(194,-12,cs)
);
},
{
closed = 1;
nodes = (
(207,93,o),
(162,109,o),
(167,151,cs),
(173,199,o),
(205,226,o),
(377,226,c),
(374,206,ls),
(364,124,o),
(298,93,o),
(228,93,cs)
);
}
);
width = 935;
}
);
unicode = 230;
},
{
glyphname = b;
lastChange = "2024-11-25 04:31:09 +0000";
layers = (
{
layerId = m01;
shapes = (
{
closed = 1;
nodes = (
(207,700,l),
(151,700,l),
(65,0,l),
(121,0,l),
(133,98,l),
(147,43,o),
(209,-12,o),
(294,-12,cs),
(419,-12,o),
(517,81,o),
(538,250,cs),
(558,414,o),
(475,512,o),
(358,512,cs),
(267,512,o),
(197,457,o),
(171,402,c)
);
},
{
closed = 1;
nodes = (
(439,462,o),
(494,376,o),
(479,248,cs),
(463,123,o),
(401,38,o),
(288,38,cs),
(209,38,o),
(135,108,o),
(151,250,c),
(169,392,o),
(261,462,o),
(340,462,cs)
);
}
);
width = 600;
},
{
layerId = m002;
shapes = (
{
closed = 1;
nodes = (
(231,700,l),
(147,700,l),
(61,0,l),
(145,0,l),
(157,98,l),
(170,43,o),
(215,-12,o),
(303,-12,cs),
(442,-12,o),
(540,81,o),
(561,250,cs),
(581,414,o),
(506,512,o),
(372,512,cs),
(303,512,o),
(226,476,o),
(195,407,c)
);
},
{
closed = 1;
nodes = (
(451,436,o),
(489,352,o),
(476,248,cs),
(463,144,o),
(405,63,o),
(307,63,cs),
(208,63,o),
(163,140,o),
(177,250,cs),
(190,352,o),
(254,436,o),
(350,436,cs)
);
}
);
width = 615;
},
{
layerId = m003;
shapes = (
{
closed = 1;
nodes = (
(276,700,l),
(136,700,l),
(49,0,l),
(190,0,l),
(201,93,l),
(220,38,o),
(269,-12,o),
(347,-12,cs),
(478,-12,o),
(578,87,o),
(599,255,cs),
(619,420,o),
(549,520,o),
(418,520,cs),
(335,520,o),
(275,479,o),
(242,425,c)
);
},
{
closed = 1;
nodes = (
(427,413,o),
(465,351,o),
(453,255,cs),
(442,168,o),
(388,98,o),
(316,98,cs),
(248,98,o),
(210,167,o),
(221,255,cs),
(233,350,o),
(286,411,o),
(354,412,cs)
);
}
);
width = 643;
}
);
unicode = 98;
},
{
glyphname = c;
kernLeft = o;
lastChange = "2024-11-25 04:31:09 +0000";
layers = (
{
anchors = (
{
name = bottom;
pos = (252,-12);
},
{
name = top;
pos = (295,512);
}
);
layerId = m01;
shapes = (
{
closed = 1;
nodes = (
(462,468,o),
(395,512,o),
(312,512,cs),
(192,512,o),
(77,422,o),
(56,250,cs),
(35,78,o),
(128,-12,o),
(248,-12,cs),
(348,-12,o),
(406,35,o),
(455,121,c),
(406,142,l),
(378,86,o),
(325,38,o),
(254,38,cs),
(147,38,o),
(98,121,o),
(114,250,cs),
(130,379,o),
(199,462,o),
(306,462,cs),
(376,462,o),
(421,413,o),
(436,363,c),
(490,383,l)
);
}
);
width = 518;
},
{
anchors = (
{
name = bottom;
pos = (243,-12);
},
{
name = top;
pos = (307,512);
}
);
layerId = m002;
shapes = (
{
closed = 1;
nodes = (
(481,464,o),
(412,512,o),
(324,512,c),
(198,512,o),
(75,424,o),
(54,248,cs),
(32,74,o),
(134,-13,o),
(260,-13,cs),
(361,-13,o),
(429,37,o),
(474,120,c),
(402,150,l),
(374,99,o),
(327,63,o),
(267,63,cs),
(163,63,o),
(124,140,o),
(138,251,cs),
(151,359,o),
(208,436,o),
(313,436,cs),
(373,436,o),
(412,402,o),
(426,351,c),
(506,381,l)
);
}
);
width = 536;
},
{
anchors = (
{
name = bottom;
pos = (258,-12);
},
{
name = top;
pos = (324,520);
}
);
layerId = m003;
shapes = (
{
closed = 1;
nodes = (
(506,473,o),
(434,520,o),
(346,520,cs),
(183,520,o),
(64,420,o),
(44,254,cs),
(24,88,o),
(117,-12,o),
(280,-12,cs),
(368,-12,o),
(452,35,o),
(502,127,c),
(392,173,l),
(376,141,o),
(336,108,o),
(290,108,cs),
(218,108,o),
(179,163,o),
(190,255,cs),
(201,347,o),
(254,400,o),
(326,400,cs),
(372,400,o),
(404,367,o),
(412,335,c),
(534,381,l)
);
}
);
width = 550;
},
{
associatedMasterId = m01;
layerId = "D6DBBF6B-18E3-4F95-B026-A0427CA97C42";
name = "26 Mar 24 at 21:35";
visible = 1;
width = 529;
}
);
unicode = 99;
},
{
glyphname = d;
kernLeft = a;
lastChange = "2024-11-25 04:31:09 +0000";
layers = (
{
anchors = (
{
name = bottom;
pos = (272,-12);
}
);
layerId = m01;
shapes = (
{
closed = 1;
nodes = (
(413,17,o),
(451,0,o),
(490,-1,cs),
(515,-2,o),
(526,3,o),
(541,11,c),
(546,58,l),
(501,39,o),
(474,53,o),
(480,103,cs),
(553,700,l),
(497,700,l),
(461,404,l),
(446,473,o),
(366,512,o),
(300,512,cs),
(183,512,o),
(76,414,o),
(56,250,cs),
(35,81,o),
(113,-12,o),
(236,-12,cs),
(302,-12,o),
(391,19,o),
(422,88,c)
);
},
{
closed = 1;
nodes = (
(141,38,o),
(99,123,o),
(115,248,cs),
(130,376,o),
(207,462,o),
(306,462,cs),
(402,462,o),
(459,388,o),
(443,250,cs),
(425,112,o),
(350,38,o),
(254,38,cs)
);
}
);
width = 610;
},
{
anchors = (
{
name = bottom;
pos = (295,-12);
}
);
layerId = m002;
shapes = (
{
closed = 1;
nodes = (
(417,44,o),
(450,-1,o),
(502,-1,cs),
(527,-1,o),
(541,3,o),
(556,11,c),
(564,79,l),
(514,68,o),
(502,86,o),
(507,126,cs),
(577,700,l),
(493,700,l),
(457,406,l),
(445,461,o),
(399,512,o),
(311,512,cs),
(172,512,o),
(74,419,o),
(53,250,cs),
(33,86,o),
(104,-12,o),
(242,-12,cs),
(311,-12,o),
(392,25,o),
(423,94,c)
);
},
{
closed = 1;
nodes = (
(163,64,o),
(125,148,o),
(138,252,cs),
(151,356,o),
(209,437,o),
(307,437,cs),
(406,437,o),
(451,360,o),
(437,250,cs),
(424,148,o),
(360,64,o),
(264,64,cs)
);
}
);
width = 627;
},
{
anchors = (
{
name = bottom;
pos = (292,-12);
}
);
layerId = m003;
shapes = (
{
closed = 1;
nodes = (
(396,30,o),
(469,-1,o),
(516,-1,cs),
(543,-1,o),
(578,6,o),
(593,14,c),
(606,124,l),
(556,113,o),
(544,128,o),
(548,168,cs),
(615,700,l),
(475,700,l),
(440,415,l),
(421,470,o),
(377,520,o),
(294,520,cs),
(163,520,o),
(63,421,o),
(42,253,cs),
(22,88,o),
(92,-12,o),
(223,-12,cs),
(311,-12,o),
(369,32,o),
(405,101,c)
);
},
{
closed = 1;
nodes = (
(215,95,o),
(177,157,o),
(189,253,cs),
(200,340,o),
(254,410,o),
(326,410,cs),
(394,410,o),
(432,341,o),
(421,253,cs),
(409,158,o),
(356,97,o),
(288,96,cs)
);
}
);
width = 660;
},
{
associatedMasterId = m01;
layerId = "F3AABDD4-5D52-40E7-9352-25D68A3D59C9";
name = "5 Apr 24 at 08:05";
shapes = (
{
closed = 1;
nodes = (
(378,462,o),
(444,388,o),
(445,250,cs),
(444,108,o),
(361,38,o),
(282,38,cs),
(169,38,o),
(117,123,o),
(117,248,cs),
(117,376,o),
(183,462,o),
(282,462,cs)
);
},
{
closed = 1;
nodes = (
(500,700,l),
(444,700,l),
(444,404,l),
(421,473,o),
(336,512,o),
(270,512,cs),
(153,512,o),
(58,414,o),
(58,250,cs),
(58,81,o),
(153,-12,o),
(270,-12,cs),
(355,-12,o),
(424,41,o),
(444,96,c),
(444,25,o),
(484,0,o),
(523,-1,cs),
(548,-2,o),
(558,3,o),
(572,11,c),
(572,64,l),
(529,48,o),
(500,69,o),
(500,119,cs)
);
}
);
width = 652;
}
);
unicode = 100;
},
{
glyphname = dcaron;
lastChange = "2024-11-25 04:31:09 +0000";
layers = (
{
layerId = m01;
shapes = (
{
pos = (-31,0);
ref = d;
},
{
closed = 1;
nodes = (
(722,700,l),
(629,700,l),
(602,582,l),
(652,582,l)
);
}
);
width = 667;
},
{
layerId = m002;
shapes = (
{
pos = (-31,0);
ref = d;
},
{
closed = 1;
nodes = (
(763,701,l),
(653,701,l),
(626,564,l),
(698,564,l)
);
}
);
width = 708;
},
{
layerId = m003;
shapes = (
{
pos = (-31,0);
ref = d;
},
{
closed = 1;
nodes = (
(815,701,l),
(685,701,l),
(645,531,l),
(740,531,l)
);
}
);
width = 760;
}
);
unicode = 271;
},
{
glyphname = dcroat;
lastChange = "2024-11-25 04:31:09 +0000";
layers = (
{
layerId = m01;
shapes = (
{
pos = (-31,0);
ref = d;
},
{
closed = 1;
nodes = (
(349,562,l),
(615,562,l),
(621,609,l),
(355,609,l)
);
}
);
width = 617;
},
{
layerId = m002;
shapes = (
{
pos = (-31,0);
ref = d;
},
{
closed = 1;
nodes = (
(341,564,l),
(650,564,l),
(658,632,l),
(349,632,l)
);
}
);
width = 653;
},
{
layerId = m003;
shapes = (
{
pos = (-31,0);
ref = d;
},
{
closed = 1;
nodes = (
(333,540,l),
(676,540,l),
(688,640,l),
(345,640,l)
);
}
);
width = 679;
}
);
unicode = 273;
},
{
glyphname = eth;
lastChange = "2024-11-25 04:31:09 +0000";
layers = (
{
anchors = (
{
name = bottom;
pos = (250,0);
},
{
name = top;
pos = (339,720);
}
);
layerId = m01;
shapes = (
{
closed = 1;
nodes = (
(399,-12,o),
(487,105,o),
(510,289,cs),
(532,472,o),
(484,622,o),
(285,713,c),
(253,664,l),
(308,647,o),
(464,542,o),
(455,389,c),
(434,453,o),
(375,489,o),
(303,489,cs),
(189,489,o),
(75,405,o),
(55,239,cs),
(34,72,o),
(128,-12,o),
(242,-12,cs)
);
},
{
closed = 1;
nodes = (
(147,38,o),
(98,113,o),
(114,239,cs),
(129,365,o),
(196,439,o),
(297,439,cs),
(390,439,o),
(448,365,o),
(433,239,cs),
(417,113,o),
(349,38,o),
(248,38,cs)
);
},
{
closed = 1;
nodes = (
(511,635,l),
(496,678,l),
(244,562,l),
(261,519,l)
);
}
);
width = 561;
},
{
anchors = (
{
name = bottom;
pos = (257,0);
},
{
name = top;
pos = (346,720);
}
);
layerId = m002;
shapes = (
{
closed = 1;
nodes = (
(410,-12,o),
(503,120,o),
(523,284,cs),
(553,529,o),
(458,654,o),
(300,725,c),
(257,660,l),
(308,640,o),
(441,558,o),
(441,429,c),
(410,471,o),
(354,488,o),
(310,488,cs),
(196,488,o),
(75,402,o),
(55,238,cs),
(34,74,o),
(128,-12,o),
(252,-12,cs)
);
},
{
closed = 1;
nodes = (
(169,60,o),
(125,128,o),
(139,238,cs),
(152,348,o),
(214,416,o),
(304,416,cs),
(397,416,o),
(441,348,o),
(428,238,cs),
(414,128,o),
(354,60,o),
(261,60,cs)
);
},
{
closed = 1;
nodes = (
(537,644,l),
(515,702,l),
(246,571,l),
(268,512,l)
);
}
);
width = 575;
},
{
anchors = (
{
name = bottom;
pos = (261,0);
},
{
name = top;
pos = (349,720);
}
);
layerId = m003;
shapes = (
{
closed = 1;
nodes = (
(419,-12,o),
(533,129,o),
(555,307,cs),
(582,533,o),
(468,677,o),
(285,744,c),
(224,651,l),
(262,642,o),
(415,578,o),
(438,432,c),
(420,466,o),
(363,498,o),
(304,498,cs),
(183,498,o),
(56,419,o),
(35,243,cs),
(14,76,o),
(128,-12,o),
(257,-12,cs)
);
},
{
closed = 1;
nodes = (
(200,108,o),
(167,161,o),
(177,243,cs),
(186,323,o),
(234,378,o),
(302,378,cs),
(380,378,o),
(408,323,o),
(399,243,cs),
(389,161,o),
(346,108,o),
(269,108,cs)
);
},
{
closed = 1;
nodes = (
(549,650,l),
(517,722,l),
(222,583,l),
(253,511,l)
);
}
);
width = 584;
}
);
unicode = 240;
},
{
glyphname = e;
kernLeft = o;
kernRight = o;
lastChange = "2024-11-25 05:29:35 +0000";
layers = (
{
anchors = (
{
name = bottom;
pos = (279,-13);
},
{
name = top;
pos = (317,512);
}
);
layerId = m01;
shapes = (
{
closed = 1;
nodes = (
(390,-13,o),
(466,62,o),
(501,144,c),
(449,154,l),
(424,100,o),
(367,37,o),
(271,37,cs),
(152,37,o),
(100,118,o),
(115,245,cs),
(130,368,o),
(190,462,o),
(320,462,cs),
(427,462,o),
(470,368,o),
(461,289,c),
(110,289,l),
(104,239,l),
(515,239,l),
(518,267,l),
(537,422,o),
(450,512,o),
(322,512,cs),
(185,512,o),
(78,412,o),
(58,248,cs),
(38,87,o),
(115,-13,o),
(261,-13,cs)
);
}
);
width = 568;
},
{
anchors = (
{
name = bottom;
pos = (272,-11);
},
{
name = top;
pos = (319,512);
}
);
layerId = m002;
shapes = (
{
closed = 1;
nodes = (
(389,-13,o),
(465,55,o),
(500,137,c),
(420,151,l),
(394,97,o),
(334,63,o),
(277,63,cs),
(152,63,o),
(130,150,o),
(141,245,cs),
(156,367,o),
(211,436,o),
(320,436,cs),
(414,436,o),
(442,345,o),
(437,304,c),
(144,304,l),
(135,234,l),
(514,234,l),
(517,261,l),
(539,434,o),
(449,512,o),
(325,512,cs),
(188,512,o),
(77,412,o),
(57,248,cs),
(37,87,o),
(124,-13,o),
(264,-13,cs)
);
}
);
width = 569;
},
{
anchors = (
{
name = bottom;
pos = (284,-13);
},
{
name = top;
pos = (324,520);
}
);
layerId = m003;
shapes = (
{
closed = 1;
nodes = (
(355,-13,o),
(456,23,o),
(516,134,c),
(389,173,l),
(365,130,o),
(315,107,o),
(285,107,cs),
(196,107,o),
(164,164,o),
(175,256,cs),
(185,337,o),
(232,400,o),
(316,400,cs),
(383,400,o),
(413,336,o),
(409,301,c),
(148,301,l),
(138,215,l),
(541,215,l),
(545,248,l),
(566,418,o),
(482,520,o),
(332,520,cs),
(201,520,o),
(60,436,o),
(38,256,cs),
(17,82,o),
(133,-13,o),
(268,-13,cs)
);
}
);
width = 591;
},
{
associatedMasterId = m003;
layerId = "35791070-3456-4186-8F4C-DCAEEFC69CEB";
name = "28 Feb 24 at 11:45";
shapes = (
{
closed = 1;
nodes = (
(395,-13,o),
(490,19,o),
(537,122,c),
(402,149,l),
(385,115,o),
(339,107,o),
(309,107,cs),
(216,107,o),
(179,161,o),
(179,253,cs),
(179,334,o),
(216,400,o),
(304,400,cs),
(375,400,o),
(410,335,o),
(410,300,c),
(141,300,l),
(142,210,l),
(553,210,l),
(553,245,l),
(553,415,o),
(456,520,o),
(302,520,cs),
(167,520,o),
(37,436,o),
(37,256,cs),
(37,82,o),
(165,-13,o),
(304,-13,cs)
);
}
);
visible = 1;
width = 582;
},
{
associatedMasterId = m01;
layerId = "DC9D73E7-764C-4C88-8E22-C9A4CAB6D2B5";
name = "26 Mar 24 at 21:50";
shapes = (
{
closed = 1;
nodes = (
(416,-12,o),
(550,70,o),
(550,254,cs),
(550,440,o),
(422,520,o),
(293,520,cs),
(168,520,o),
(34,440,o),
(34,254,cs),
(34,70,o),
(160,-12,o),
(293,-12,cs)
);
},
{
closed = 1;
nodes = (
(219,108,o),
(180,164,o),
(180,254,cs),
(180,342,o),
(220,400,o),
(293,400,cs),
(367,400,o),
(404,342,o),
(404,254,cs),
(404,164,o),
(366,108,o),
(293,108,cs)
);
},
{
closed = 0;
nodes = (
(293,520,l)
);
}
);
visible = 1;
width = 572;
}
);
unicode = 101;
},
{
glyphname = eogonek;
lastChange = "2024-11-25 04:46:33 +0000";
layers = (
{
layerId = m01;
shapes = (
{
pos = (-31,0);
ref = e;
},
{
closed = 1;
nodes = (
(388,-143,o),
(414,-134,o),
(429,-121,c),
(412,-70,l),
(380,-92,o),
(335,-78,o),
(339,-40,cs),
(343,-12,o),
(356,3,o),
(421,67,c),
(396,86,l),
(317,49,o),
(281,0,o),
(275,-55,cs),
(268,-110,o),
(308,-143,o),
(362,-143,cs)
);
}
);
width = 568;
},
{
layerId = m002;
shapes = (
{
pos = (-31,0);
ref = e;
},
{
closed = 1;
nodes = (
(385,-152,o),
(417,-140,o),
(433,-127,c),
(417,-64,l),
(372,-91,o),
(332,-79,o),
(337,-39,cs),
(340,-10,o),
(371,16,o),
(409,51,c),
(377,83,l),
(306,52,o),
(268,-4,o),
(261,-59,cs),
(254,-116,o),
(296,-152,o),
(349,-152,cs)
);
}
);
width = 569;
},
{
layerId = m003;
shapes = (
{
pos = (-31,0);
ref = e;
},
{
closed = 1;
nodes = (
(405,-183,o),
(445,-165,o),
(468,-145,c),
(439,-70,l),
(398,-101,o),
(357,-78,o),
(363,-35,cs),
(365,-15,o),
(377,13,o),
(429,60,c),
(409,96,l),
(306,50,o),
(265,3,o),
(255,-74,cs),
(246,-139,o),
(297,-183,o),
(357,-183,cs)
);
}
);
width = 592;
}
);
unicode = 281;
},
{
glyphname = eopen;
lastChange = "2024-11-25 04:31:09 +0000";
layers = (
{
layerId = m01;
shapes = (
{
closed = 1;
nodes = (
(432,143,l),
(406,76,o),
(337,38,o),
(251,38,cs),
(141,38,o),
(95,79,o),
(102,136,cs),
(108,184,o),
(159,240,o),
(289,240,cs),
(289,240,o),
(347,240,o),
(347,240,c),
(354,294,l),
(296,294,l),
(173,294,o),
(150,339,o),
(154,375,cs),
(160,423,o),
(198,462,o),
(299,462,cs),
(367,462,o),
(415,442,o),
(430,403,c),
(476,425,l),
(451,488,o),
(380,512,o),
(305,512,cs),
(184,512,o),
(106,456,o),
(96,374,cs),
(90,320,o),
(115,278,o),
(156,265,c),
(84,239,o),
(50,184,o),
(44,134,cs),
(31,31,o),
(113,-12,o),
(244,-12,cs),
(349,-12,o),
(445,38,o),
(476,128,c)
);
}
);
width = 543;
},
{
layerId = m002;
shapes = (
{
closed = 1;
nodes = (
(410,159,l),
(382,87,o),
(321,64,o),
(256,64,cs),
(157,64,o),
(122,98,o),
(128,147,cs),
(134,194,o),
(176,239,o),
(286,239,cs),
(286,239,o),
(339,239,o),
(339,239,c),
(349,312,l),
(296,312,l),
(200,312,o),
(173,335,o),
(178,371,cs),
(181,398,o),
(209,436,o),
(301,436,cs),
(344,436,o),
(383,426,o),
(400,387,c),
(470,421,l),
(458,479,o),
(373,512,o),
(306,512,cs),
(175,512,o),
(104,457,o),
(94,375,cs),
(88,321,o),
(118,288,o),
(158,275,c),
(98,252,o),
(51,203,o),
(44,142,cs),
(31,38,o),
(108,-12,o),
(246,-12,cs),
(349,-12,o),
(441,39,o),
(478,139,c)
);
}
);
width = 545;
},
{
layerId = m003;
shapes = (
{
closed = 1;
nodes = (
(395,177,l),
(377,140,o),
(341,108,o),
(271,108,cs),
(194,108,o),
(169,131,o),
(173,164,cs),
(177,201,o),
(207,221,o),
(283,221,cs),
(283,221,o),
(334,221,o),
(334,221,c),
(346,309,l),
(295,309,l),
(245,309,o),
(218,325,o),
(221,354,cs),
(225,381,o),
(248,400,o),
(301,400,cs),
(348,400,o),
(370,382,o),
(376,358,c),
(502,415,l),
(491,479,o),
(408,520,o),
(312,520,cs),
(176,520,o),
(91,461,o),
(81,379,cs),
(75,325,o),
(103,282,o),
(144,269,c),
(67,243,o),
(32,209,o),
(25,148,cs),
(12,44,o),
(104,-12,o),
(255,-12,cs),
(391,-12,o),
(475,56,o),
(511,149,c)
);
}
);
width = 569;
}
);
unicode = 603;
},
{
glyphname = f;
lastChange = "2024-11-25 04:31:09 +0000";
layers = (
{
layerId = m01;
shapes = (
{
closed = 1;
nodes = (
(169,0,l),
(225,450,l),
(352,450,l),
(358,500,l),
(231,500,l),
(240,575,ls),
(249,648,o),
(279,666,o),
(327,666,cs),
(340,666,o),
(357,665,o),
(373,662,c),
(379,712,l),
(362,717,o),
(341,720,o),
(325,720,cs),
(240,720,o),
(195,669,o),
(184,576,cs),
(175,500,l),
(83,500,l),
(77,450,l),
(169,450,l),
(113,0,l)
);
}
);
width = 346;
},
{
layerId = m002;
shapes = (
{
closed = 1;
nodes = (
(196,0,l),
(248,424,l),
(376,424,l),
(386,500,l),
(258,500,l),
(267,575,ls),
(274,629,o),
(303,648,o),
(352,648,cs),
(365,648,o),
(383,647,o),
(398,644,c),
(407,712,l),
(390,717,o),
(368,720,o),
(352,720,cs),
(243,720,o),
(194,669,o),
(183,576,cs),
(174,500,l),
(78,500,l),
(68,424,l),
(164,424,l),
(112,0,l)
);
}
);
width = 375;
},
{
layerId = m003;
shapes = (
{
closed = 1;
nodes = (
(241,0,l),
(288,388,l),
(404,388,l),
(419,508,l),
(303,508,l),
(307,539,ls),
(312,576,o),
(330,604,o),
(379,604,cs),
(392,604,o),
(409,603,o),
(424,600,c),
(439,712,l),
(423,717,o),
(388,720,o),
(353,720,cs),
(270,720,o),
(188,686,o),
(173,576,cs),
(163,508,l),
(63,508,l),
(48,388,l),
(148,388,l),
(101,0,l)
);
}
);
width = 400;
}
);
unicode = 102;
},
{
glyphname = g;
kernLeft = a;
lastChange = "2024-11-25 04:31:09 +0000";
layers = (
{
anchors = (
{
name = top;
pos = (349,512);
}
);
layerId = m01;
shapes = (
{
closed = 1;
nodes = (
(400,-103,o),
(335,-176,o),
(221,-176,cs),
(120,-176,o),
(82,-109,o),
(70,-81,c),
(16,-115,l),
(37,-171,o),
(90,-230,o),
(214,-230,cs),
(339,-230,o),
(447,-175,o),
(470,13,c),
(529,500,l),
(473,500,l),
(461,402,l),
(447,457,o),
(385,512,o),
(300,512,cs),
(183,512,o),
(77,419,o),
(56,250,cs),
(36,86,o),
(117,-12,o),
(236,-12,cs),
(302,-12,o),
(393,27,o),
(424,96,c),
(414,13,ls)
);
},
{
closed = 1;
nodes = (
(155,38,o),
(99,124,o),
(114,252,cs),
(130,377,o),
(193,462,o),
(306,462,cs),
(385,462,o),
(459,392,o),
(443,250,cs),
(425,112,o),
(350,38,o),
(254,38,cs)
);
}
);
width = 569;
},
{
anchors = (
{
name = top;
pos = (356,512);
}
);
guides = (
{
angle = 270;
pos = (52,419);
}
);
layerId = m002;
shapes = (
{
closed = 1;
nodes = (
(395,-96,o),
(344,-156,o),
(234,-156,cs),
(167,-156,o),
(116,-117,o),
(98,-60,c),
(20,-107,l),
(45,-195,o),
(135,-229,o),
(222,-230,cs),
(354,-232,o),
(469,-171,o),
(492,17,cs),
(552,500,l),
(468,500,l),
(456,402,l),
(443,457,o),
(398,512,o),
(310,512,cs),
(171,512,o),
(73,419,o),
(52,250,cs),
(32,86,o),
(107,-12,o),
(241,-12,cs),
(310,-12,o),
(388,27,o),
(418,96,c),
(408,17,ls)
);
},
{
closed = 1;
nodes = (
(162,64,o),
(124,148,o),
(137,252,cs),
(150,356,o),
(208,437,o),
(306,437,cs),
(405,437,o),
(450,360,o),
(436,250,cs),
(423,148,o),
(359,64,o),
(263,64,cs)
);
}
);
width = 607;
},
{
anchors = (
{
name = top;
pos = (361,520);
}
);
layerId = m003;
shapes = (
{
closed = 1;
nodes = (
(384,-80,o),
(327,-123,o),
(242,-123,cs),
(175,-123,o),
(127,-76,o),
(111,-29,c),
(-6,-102,l),
(18,-180,o),
(104,-237,o),
(225,-237,cs),
(406,-237,o),
(512,-142,o),
(530,0,cs),
(593,508,l),
(459,508,l),
(448,419,l),
(428,474,o),
(387,520,o),
(303,520,cs),
(172,520,o),
(69,421,o),
(48,253,cs),
(28,88,o),
(101,-12,o),
(232,-12,cs),
(315,-12,o),
(373,25,o),
(404,79,c),
(394,0,ls)
);
},
{
closed = 1;
nodes = (
(220,95,o),
(182,157,o),
(194,253,cs),
(205,340,o),
(259,410,o),
(331,410,cs),
(399,410,o),
(437,341,o),
(426,253,cs),
(414,158,o),
(361,97,o),
(293,96,cs)
);
}
);
width = 632;
}
);
unicode = 103;
},
{
glyphname = h;
lastChange = "2024-11-25 04:31:09 +0000";
layers = (
{
layerId = m01;
shapes = (
{
closed = 1;
nodes = (
(121,0,l),
(154,270,ls),
(166,366,o),
(233,462,o),
(332,462,cs),
(413,462,o),
(468,411,o),
(455,310,cs),
(417,0,l),
(473,0,l),
(513,322,ls),
(528,442,o),
(451,512,o),
(354,512,cs),
(235,512,o),
(183,431,o),
(170,396,c),
(207,700,l),
(151,700,l),
(65,0,l)
);
}
);
width = 592;
},
{
layerId = m002;
shapes = (
{
closed = 1;
nodes = (
(145,0,l),
(178,270,ls),
(190,366,o),
(246,436,o),
(338,436,cs),
(405,436,o),
(446,403,o),
(435,316,cs),
(396,0,l),
(480,0,l),
(521,328,ls),
(535,448,o),
(472,512,o),
(375,512,cs),
(263,512,o),
(208,441,o),
(195,406,c),
(231,700,l),
(147,700,l),
(61,0,l)
);
}
);
width = 597;
},
{
layerId = m003;
shapes = (
{
closed = 1;
nodes = (
(189,0,l),
(218,239,ls),
(231,347,o),
(267,408,o),
(350,408,cs),
(407,408,o),
(430,370,o),
(421,296,cs),
(385,0,l),
(525,0,l),
(563,315,ls),
(578,435,o),
(531,520,o),
(397,520,cs),
(329,520,o),
(269,479,o),
(242,430,c),
(275,700,l),
(135,700,l),
(49,0,l)
);
}
);
width = 624;
}
);
unicode = 104;
},
{
glyphname = hbar;
lastChange = "2024-11-25 04:31:09 +0000";
layers = (
{
layerId = m01;
shapes = (
{
pos = (46,0);
ref = h;
},
{
closed = 1;
nodes = (
(134,562,l),
(400,562,l),
(406,609,l),
(140,609,l)
);
}
);
width = 669;
},
{
layerId = m002;
shapes = (
{
pos = (58,0);
ref = h;
},
{
closed = 1;
nodes = (
(131,564,l),
(440,564,l),
(448,632,l),
(139,632,l)
);
}
);
width = 686;
},
{
layerId = m003;
shapes = (
{
pos = (53,0);
ref = h;
},
{
closed = 1;
nodes = (
(115,540,l),
(458,540,l),
(470,640,l),
(127,640,l)
);
}
);
width = 712;
}
);
unicode = 295;
},
{
glyphname = i;
lastChange = "2024-11-25 04:31:09 +0000";
layers = (
{
guides = (
{
pos = (-47,680);
},
{
pos = (-42,585);
},
{
pos = (-47,632);
}
);
layerId = m01;
shapes = (
{
closed = 1;
nodes = (
(204,585,o),
(228,607,o),
(231,632,cs),
(234,658,o),
(216,680,o),
(191,680,cs),
(165,680,o),
(140,658,o),
(137,632,cs),
(134,607,o),
(153,585,o),
(179,585,cs)
);
},
{
closed = 1;
nodes = (
(134,0,l),
(196,500,l),
(140,500,l),
(78,0,l)
);
}
);
width = 274;
},
{
guides = (
{
pos = (-27,700);
},
{
pos = (-26,590);
},
{
pos = (-27,645);
}
);
layerId = m002;
shapes = (
{
closed = 1;
nodes = (
(199,590,o),
(226,615,o),
(229,645,cs),
(233,675,o),
(212,700,o),
(182,700,cs),
(152,700,o),
(124,675,o),
(120,645,cs),
(117,615,o),
(139,590,o),
(169,590,cs)
);
},
{
closed = 1;
nodes = (
(138,0,l),
(200,500,l),
(116,500,l),
(54,0,l)
);
}
);
width = 253;
},
{
guides = (
{
pos = (15,559);
}
);
layerId = m003;
shapes = (
{
closed = 1;
nodes = (
(219,559,o),
(260,598,o),
(266,644,cs),
(272,690,o),
(240,729,o),
(192,729,cs),
(147,729,o),
(104,690,o),
(98,644,cs),
(92,598,o),
(126,559,o),
(171,559,cs)
);
},
{
closed = 1;
nodes = (
(173,0,l),
(235,508,l),
(95,508,l),
(33,0,l)
);
}
);
width = 268;
}
);
unicode = 105;
},
{
glyphname = idotless;
lastChange = "2024-11-25 04:31:09 +0000";
layers = (
{
anchors = (
{
name = bottom;
pos = (86,0);
},
{
name = top;
pos = (149,500);
}
);
layerId = m01;
shapes = (
{
closed = 1;
nodes = (
(115,0,l),
(177,500,l),
(121,500,l),
(59,0,l)
);
}
);
width = 236;
},
{
anchors = (
{
name = bottom;
pos = (83,0);
},
{
name = top;
pos = (144,500);
}
);
layerId = m002;
shapes = (
{
closed = 1;
nodes = (
(125,0,l),
(187,500,l),
(103,500,l),
(41,0,l)
);
}
);
width = 228;
},
{
anchors = (
{
name = bottom;
pos = (89,0);
},
{
name = top;
pos = (150,508);
}
);
layerId = m003;
shapes = (
{
closed = 1;
nodes = (
(159,0,l),
(221,508,l),
(81,508,l),
(19,0,l)
);
}
);
width = 240;
}
);
unicode = 305;
},
{
glyphname = j;
lastChange = "2024-11-25 04:31:09 +0000";
layers = (
{
guides = (
{
pos = (-37,680);
},
{
pos = (-32,585);
},
{
pos = (-37,632);
}
);
layerId = m01;
shapes = (
{
closed = 1;
nodes = (
(81,-232,o),
(125,-181,o),
(136,-88,cs),
(210,500,l),
(154,500,l),
(81,-87,ls),
(70,-160,o),
(41,-178,o),
(-7,-178,cs),
(-20,-178,o),
(-36,-177,o),
(-52,-174,c),
(-58,-224,l),
(-42,-229,o),
(-20,-232,o),
(-4,-232,cs)
);
},
{
closed = 1;
nodes = (
(214,585,o),
(238,607,o),
(241,632,cs),
(244,658,o),
(226,680,o),
(201,680,cs),
(175,680,o),
(150,658,o),
(147,632,cs),
(144,607,o),
(163,585,o),
(189,585,cs)
);
}
);
width = 278;
},
{
layerId = m002;
shapes = (
{
closed = 1;
nodes = (
(108,-230,o),
(155,-179,o),
(167,-86,cs),
(240,500,l),
(156,500,l),
(84,-85,ls),
(77,-139,o),
(48,-158,o),
(-1,-158,cs),
(-14,-158,o),
(-32,-157,o),
(-48,-154,c),
(-56,-222,l),
(-40,-227,o),
(-17,-230,o),
(-1,-230,cs)
);
},
{
closed = 1;
nodes = (
(237,590,o),
(264,615,o),
(267,645,cs),
(271,675,o),
(250,700,o),
(220,700,cs),
(190,700,o),
(162,675,o),
(158,645,cs),
(155,615,o),
(177,590,o),
(207,590,cs)
);
}
);
width = 289;
},
{
layerId = m003;
shapes = (
{
closed = 1;
nodes = (
(100,-230,o),
(167,-169,o),
(178,-76,cs),
(251,508,l),
(111,508,l),
(45,-28,ls),
(41,-66,o),
(16,-90,o),
(-20,-90,cs),
(-33,-90,o),
(-65,-89,o),
(-81,-86,c),
(-98,-222,l),
(-82,-227,o),
(-44,-230,o),
(-28,-230,cs)
);
},
{
closed = 1;
nodes = (
(235,559,o),
(276,598,o),
(282,644,cs),
(288,690,o),
(256,729,o),
(208,729,cs),
(163,729,o),
(120,690,o),
(114,644,cs),
(108,598,o),
(142,559,o),
(187,559,cs)
);
}
);
width = 284;
}
);
unicode = 106;
},
{
glyphname = jdotless;
lastChange = "2024-11-25 04:31:09 +0000";
layers = (
{
anchors = (
{
name = top;
pos = (181,500);
}
);
layerId = m01;
shapes = (
{
closed = 1;
nodes = (
(81,-232,o),
(125,-181,o),
(136,-88,cs),
(210,500,l),
(154,500,l),
(81,-87,ls),
(70,-160,o),
(41,-178,o),
(-7,-178,cs),
(-20,-178,o),
(-36,-177,o),
(-52,-174,c),
(-58,-224,l),
(-42,-229,o),
(-20,-232,o),
(-4,-232,cs)
);
}
);
width = 265;
},
{
anchors = (
{
name = top;
pos = (197,500);
}
);
layerId = m002;
shapes = (
{
closed = 1;
nodes = (
(108,-230,o),
(155,-179,o),
(167,-86,cs),
(240,500,l),
(156,500,l),
(84,-85,ls),
(77,-139,o),
(48,-158,o),
(-1,-158,cs),
(-14,-158,o),
(-32,-157,o),
(-48,-154,c),
(-56,-222,l),
(-40,-227,o),
(-17,-230,o),
(-1,-230,cs)
);
}
);
width = 279;
},
{
anchors = (
{
name = top;
pos = (181,508);
}
);
layerId = m003;
shapes = (
{
closed = 1;
nodes = (
(100,-230,o),
(167,-169,o),
(178,-76,cs),
(251,508,l),
(111,508,l),
(45,-28,ls),
(41,-66,o),
(16,-90,o),
(-20,-90,cs),
(-33,-90,o),
(-65,-89,o),
(-81,-86,c),
(-98,-222,l),
(-82,-227,o),
(-44,-230,o),
(-28,-230,cs)
);
}
);
width = 270;
}
);
unicode = 567;
},
{
glyphname = k;
lastChange = "2024-11-25 04:31:09 +0000";
layers = (
{
anchors = (
{
name = bottom;
pos = (230,0);
}
);
layerId = m01;
shapes = (
{
closed = 1;
nodes = (
(248,291,l),
(267,301,l),
(483,500,l),
(413,500,l),
(103,219,l),
(94,145,l)
);
},
{
closed = 1;
nodes = (
(121,0,l),
(207,700,l),
(151,700,l),
(65,0,l)
);
},
{
closed = 1;
nodes = (
(437,0,l),
(277,331,l),
(234,294,l),
(372,0,l)
);
}
);
width = 483;
},
{
anchors = (
{
name = bottom;
pos = (252,0);
}
);
layerId = m002;
shapes = (
{
closed = 1;
nodes = (
(270,272,l),
(296,288,l),
(530,500,l),
(426,500,l),
(111,219,l),
(99,120,l)
);
},
{
closed = 1;
nodes = (
(145,0,l),
(231,700,l),
(147,700,l),
(61,0,l)
);
},
{
closed = 1;
nodes = (
(484,0,l),
(320,322,l),
(251,269,l),
(382,0,l)
);
}
);
width = 525;
},
{
anchors = (
{
name = bottom;
pos = (284,0);
}
);
layerId = m003;
shapes = (
{
closed = 1;
nodes = (
(309,241,l),
(335,251,l),
(601,508,l),
(423,508,l),
(97,210,l),
(160,116,l)
);
},
{
closed = 1;
nodes = (
(189,0,l),
(276,712,l),
(136,711,l),
(49,-1,l)
);
},
{
closed = 1;
nodes = (
(557,0,l),
(379,351,l),
(248,280,l),
(389,0,l)
);
}
);
width = 588;
}
);
unicode = 107;
},
{
glyphname = l;
lastChange = "2024-11-25 05:25:58 +0000";
layers = (
{
anchors = (
{
name = bottom;
pos = (87,0);
},
{
name = top;
pos = (174,700);
}
);
layerId = m01;
shapes = (
{
closed = 1;
nodes = (
(115,0,l),
(201,700,l),
(145,700,l),
(59,0,l)
);
}
);
width = 236;
},
{
anchors = (
{
name = bottom;
pos = (82,0);
},
{
name = top;
pos = (168,700);
}
);
layerId = m002;
shapes = (
{
closed = 1;
nodes = (
(125,0,l),
(211,700,l),
(127,700,l),
(41,0,l)
);
}
);
width = 228;
},
{
anchors = (
{
name = bottom;
pos = (117,0);
},
{
name = top;
pos = (204,700);
}
);
layerId = m003;
shapes = (
{
closed = 1;
nodes = (
(187,0,l),
(273,700,l),
(133,700,l),
(47,0,l)
);
}
);
width = 296;
}
);
unicode = 108;
},
{
glyphname = lcaron;
lastChange = "2024-11-25 04:31:09 +0000";
layers = (
{
layerId = m01;
shapes = (
{
pos = (-31,0);
ref = l;
},
{
closed = 1;
nodes = (
(374,700,l),
(281,700,l),
(254,582,l),
(304,582,l)
);
}
);
width = 319;
},
{
layerId = m002;
shapes = (
{
pos = (-31,0);
ref = l;
},
{
closed = 1;
nodes = (
(398,700,l),
(288,700,l),
(260,563,l),
(332,563,l)
);
}
);
width = 343;
},
{
layerId = m003;
shapes = (
{
pos = (-31,0);
ref = l;
},
{
closed = 1;
nodes = (
(473,700,l),
(343,700,l),
(303,530,l),
(398,530,l)
);
}
);
width = 418;
}
);
unicode = 318;
},
{
glyphname = lslash;
lastChange = "2024-11-25 04:31:09 +0000";
layers = (
{
layerId = m01;
shapes = (
{
pos = (-18,0);
ref = l;
},
{
closed = 1;
nodes = (
(305,423,l),
(280,468,l),
(-6,284,l),
(19,238,l)
);
}
);
width = 294;
},
{
layerId = m002;
shapes = (
{
pos = (2,0);
ref = l;
},
{
closed = 1;
nodes = (
(332,420,l),
(296,480,l),
(-6,286,l),
(29,226,l)
);
}
);
width = 321;
},
{
layerId = m003;
shapes = (
{
pos = (-2,0);
ref = l;
},
{
closed = 1;
nodes = (
(409,432,l),
(351,518,l),
(-29,278,l),
(27,190,l)
);
}
);
width = 379;
}
);
unicode = 322;
},
{
glyphname = m;
lastChange = "2024-11-25 04:31:09 +0000";
layers = (
{
layerId = m01;
shapes = (
{
closed = 1;
nodes = (
(121,0,l),
(154,270,ls),
(166,366,o),
(233,462,o),
(332,462,cs),
(413,462,o),
(468,411,o),
(455,310,cs),
(417,0,l),
(473,0,l),
(513,322,ls),
(528,442,o),
(451,512,o),
(354,512,cs),
(235,512,o),
(183,431,o),
(170,396,c),
(183,500,l),
(127,500,l),
(65,0,l)
);
},
{
closed = 1;
nodes = (
(825,0,l),
(865,322,ls),
(880,442,o),
(803,512,o),
(706,512,cs),
(587,512,o),
(522,414,o),
(509,379,c),
(506,270,l),
(519,373,o),
(585,462,o),
(684,462,cs),
(765,462,o),
(820,411,o),
(807,310,cs),
(769,0,l)
);
}
);
width = 944;
},
{
layerId = m002;
shapes = (
{
closed = 1;
nodes = (
(145,0,l),
(178,270,ls),
(190,366,o),
(246,436,o),
(338,436,cs),
(405,436,o),
(446,403,o),
(435,316,cs),
(396,0,l),
(480,0,l),
(521,328,ls),
(535,448,o),
(472,512,o),
(375,512,cs),
(263,512,o),
(208,441,o),
(195,406,c),
(207,500,l),
(123,500,l),
(61,0,l)
);
},
{
closed = 1;
nodes = (
(815,0,l),
(856,328,ls),
(870,448,o),
(807,512,o),
(710,512,cs),
(598,512,o),
(532,432,o),
(519,397,c),
(513,270,l),
(525,366,o),
(581,436,o),
(673,436,cs),
(740,436,o),
(781,403,o),
(770,316,cs),
(731,0,l)
);
}
);
width = 934;
},
{
layerId = m003;
shapes = (
{
closed = 1;
nodes = (
(189,0,l),
(218,239,ls),
(231,347,o),
(271,408,o),
(354,408,cs),
(411,408,o),
(436,373,o),
(426,296,cs),
(390,0,l),
(530,0,l),
(568,315,ls),
(583,435,o),
(531,520,o),
(402,520,cs),
(334,520,o),
(269,479,o),
(242,430,c),
(251,508,l),
(111,508,l),
(49,0,l)
);
},
{
closed = 1;
nodes = (
(871,0,l),
(909,315,ls),
(924,435,o),
(872,520,o),
(743,520,cs),
(679,520,o),
(603,496,o),
(564,410,c),
(559,239,l),
(572,347,o),
(612,408,o),
(695,408,cs),
(752,408,o),
(777,373,o),
(767,296,cs),
(731,0,l)
);
}
);
width = 974;
},
{
associatedMasterId = m01;
layerId = "9734DA5E-3835-4262-844E-572FF4DD55DE";
name = "5 Apr 24 at 07:53";
shapes = (
{
closed = 1;
nodes = (
(152,0,l),
(152,270,ls),
(152,366,o),
(200,458,o),
(299,458,cs),
(380,458,o),
(448,411,o),
(448,310,cs),
(448,0,l),
(504,0,l),
(504,322,ls),
(504,442,o),
(424,512,o),
(327,512,cs),
(208,512,o),
(161,431,o),
(152,396,c),
(152,500,l),
(96,500,l),
(96,0,l)
);
},
{
closed = 1;
nodes = (
(504,270,l),
(504,366,o),
(552,458,o),
(651,458,cs),
(732,458,o),
(800,411,o),
(800,310,cs),
(800,0,l),
(856,0,l),
(856,322,ls),
(856,442,o),
(776,512,o),
(679,512,cs),
(560,512,o),
(513,431,o),
(504,396,c)
);
}
);
width = 926;
}
);
unicode = 109;
},
{
glyphname = n;
lastChange = "2024-11-25 04:31:09 +0000";
layers = (
{
anchors = (
{
name = bottom;
pos = (276,0);
},
{
name = top;
pos = (339,512);
}
);
layerId = m01;
shapes = (
{
closed = 1;
nodes = (
(121,0,l),
(154,270,ls),
(166,366,o),
(233,462,o),
(332,462,cs),
(413,462,o),
(468,411,o),
(455,310,cs),
(417,0,l),
(473,0,l),
(513,322,ls),
(528,442,o),
(451,512,o),
(354,512,cs),
(235,512,o),
(183,431,o),
(170,396,c),
(183,500,l),
(127,500,l),
(65,0,l)
);
}
);
width = 592;
},
{
anchors = (
{
name = bottom;
pos = (276,0);
},
{
name = top;
pos = (339,512);
}
);
layerId = m002;
shapes = (
{
closed = 1;
nodes = (
(145,0,l),
(178,270,ls),
(190,366,o),
(246,436,o),
(338,436,cs),
(405,436,o),
(446,403,o),
(435,316,cs),
(396,0,l),
(480,0,l),
(521,328,ls),
(535,448,o),
(472,512,o),
(375,512,cs),
(263,512,o),
(208,441,o),
(195,406,c),
(207,500,l),
(123,500,l),
(61,0,l)
);
}
);
width = 587;
},
{
anchors = (
{
name = bottom;
pos = (295,0);
},
{
name = top;
pos = (364,520);
}
);
layerId = m003;
shapes = (
{
closed = 1;
nodes = (
(189,0,l),
(218,239,ls),
(231,347,o),
(267,408,o),
(350,408,cs),
(407,408,o),
(430,370,o),
(421,296,cs),
(385,0,l),
(525,0,l),
(563,315,ls),
(578,435,o),
(531,520,o),
(397,520,cs),
(329,520,o),
(269,479,o),
(242,430,c),
(251,508,l),
(111,508,l),
(49,0,l)
);
}
);
width = 624;
}
);
unicode = 110;
},
{
glyphname = nhookleft;
lastChange = "2024-11-25 04:31:09 +0000";
layers = (
{
guides = (
{
pos = (184,-165);
}
);
layerId = m003;
shapes = (
{
pos = (-1,0);
ref = n;
},
{
closed = 1;
nodes = (
(138,-165,o),
(206,-104,o),
(217,-11,cs),
(227,70,l),
(87,70,l),
(83,37,ls),
(79,-1,o),
(54,-25,o),
(18,-25,cs),
(5,-25,o),
(-27,-24,o),
(-43,-21,c),
(-60,-157,l),
(-44,-162,o),
(-6,-165,o),
(10,-165,cs)
);
}
);
width = 666;
},
{
guides = (
{
pos = (562,-133);
}
);
layerId = m01;
shapes = (
{
pos = (-14,0);
ref = n;
},
{
closed = 1;
nodes = (
(83,-133,o),
(127,-88,o),
(139,5,cs),
(140,11,l),
(84,11,l),
(83,6,ls),
(74,-67,o),
(44,-79,o),
(-4,-79,cs),
(-17,-79,o),
(-34,-78,o),
(-50,-75,c),
(-56,-125,l),
(-40,-130,o),
(-18,-133,o),
(-2,-133,cs)
);
}
);
width = 609;
},
{
guides = (
{
pos = (311,-142);
}
);
layerId = m002;
shapes = (
{
pos = (-10,0);
ref = n;
},
{
closed = 1;
nodes = (
(107,-142,o),
(155,-91,o),
(167,2,cs),
(177,90,l),
(93,90,l),
(83,3,ls),
(76,-51,o),
(47,-70,o),
(-2,-70,cs),
(-15,-70,o),
(-33,-69,o),
(-49,-66,c),
(-57,-134,l),
(-41,-139,o),
(-18,-142,o),
(-2,-142,cs)
);
}
);
width = 617;
}
);
unicode = 626;
},
{
glyphname = nhookretroflex;
lastChange = "2024-11-25 04:31:09 +0000";
layers = (
{
guides = (
{
pos = (184,-165);
}
);
layerId = m003;
shapes = (
{
pos = (-1,0);
ref = n;
},
{
closed = 1;
nodes = (
(600,-165,o),
(638,-162,o),
(656,-157,c),
(671,-21,l),
(655,-24,o),
(623,-25,o),
(610,-25,cs),
(574,-25,o),
(555,-1,o),
(559,37,cs),
(562,57,l),
(422,57,l),
(414,-5,ls),
(403,-98,o),
(456,-165,o),
(584,-165,cs)
);
}
);
width = 696;
},
{
guides = (
{
pos = (562,-133);
}
);
layerId = m01;
shapes = (
{
pos = (-14,0);
ref = n;
},
{
closed = 1;
nodes = (
(558,-133,o),
(580,-130,o),
(598,-125,c),
(604,-75,l),
(588,-78,o),
(571,-79,o),
(558,-79,cs),
(510,-79,o),
(483,-61,o),
(492,12,cs),
(494,31,l),
(438,31,l),
(436,11,ls),
(424,-82,o),
(457,-133,o),
(542,-133,cs)
);
}
);
width = 600;
},
{
guides = (
{
pos = (311,-142);
}
);
layerId = m002;
shapes = (
{
pos = (-10,0);
ref = n;
},
{
closed = 1;
nodes = (
(567,-142,o),
(590,-139,o),
(608,-134,c),
(616,-66,l),
(600,-69,o),
(582,-70,o),
(569,-70,cs),
(520,-70,o),
(495,-51,o),
(502,3,cs),
(512,90,l),
(428,90,l),
(418,2,ls),
(406,-91,o),
(442,-142,o),
(551,-142,cs)
);
}
);
width = 600;
}
);
unicode = 627;
},
{
glyphname = eng;
lastChange = "2024-11-25 04:31:09 +0000";
layers = (
{
guides = (
{
pos = (154,-165);
}
);
layerId = m003;
shapes = (
{
pos = (-31,0);
ref = n;
},
{
closed = 1;
nodes = (
(444,-165,o),
(510,-104,o),
(522,-11,cs),
(533,70,l),
(393,70,l),
(389,37,ls),
(385,-1,o),
(360,-25,o),
(324,-25,cs),
(311,-25,o),
(279,-24,o),
(263,-21,c),
(246,-157,l),
(262,-162,o),
(300,-165,o),
(316,-165,cs)
);
}
);
width = 628;
},
{
guides = (
{
pos = (545,-133);
}
);
layerId = m01;
shapes = (
{
pos = (-31,0);
ref = n;
},
{
closed = 1;
nodes = (
(419,-133,o),
(462,-89,o),
(474,4,cs),
(480,56,l),
(424,56,l),
(419,10,ls),
(410,-63,o),
(380,-79,o),
(332,-79,cs),
(319,-79,o),
(302,-78,o),
(286,-75,c),
(280,-125,l),
(296,-130,o),
(318,-133,o),
(334,-133,cs)
);
}
);
width = 592;
},
{
guides = (
{
pos = (290,-142);
}
);
layerId = m002;
shapes = (
{
pos = (-31,0);
ref = n;
},
{
closed = 1;
nodes = (
(421,-142,o),
(469,-91,o),
(481,2,cs),
(491,90,l),
(407,90,l),
(397,3,ls),
(390,-51,o),
(361,-70,o),
(312,-70,cs),
(299,-70,o),
(281,-69,o),
(265,-66,c),
(257,-134,l),
(273,-139,o),
(296,-142,o),
(312,-142,cs)
);
}
);
width = 597;
}
);
unicode = 331;
},
{
glyphname = o;
kernLeft = o;
kernRight = o;
lastChange = "2024-11-25 05:33:57 +0000";
layers = (
{
anchors = (
{
name = bottom;
pos = (252,-12);
},
{
name = top;
pos = (316,512);
}
);
layerId = m01;
shapes = (
{
closed = 1;
nodes = (
(376,-12,o),
(491,78,o),
(512,250,cs),
(533,422,o),
(440,512,o),
(316,512,cs),
(192,512,o),
(77,422,o),
(56,250,cs),
(35,78,o),
(128,-12,o),
(252,-12,cs)
);
},
{
closed = 1;
nodes = (
(147,38,o),
(98,121,o),
(114,250,cs),
(130,379,o),
(199,462,o),
(310,462,cs),
(421,462,o),
(470,379,o),
(454,250,cs),
(438,121,o),
(369,38,o),
(258,38,cs)
);
}
);
width = 568;
},
{
anchors = (
{
name = bottom;
pos = (258,-12);
},
{
name = top;
pos = (322,512);
}
);
layerId = m002;
shapes = (
{
closed = 1;
nodes = (
(382,-12,o),
(503,78,o),
(524,250,cs),
(545,422,o),
(452,512,o),
(322,512,cs),
(198,512,o),
(77,422,o),
(56,250,cs),
(35,78,o),
(128,-12,o),
(258,-12,cs)
);
},
{
closed = 1;
nodes = (
(169,64,o),
(126,135,o),
(140,250,cs),
(154,365,o),
(217,436,o),
(313,436,cs),
(411,436,o),
(454,365,o),
(440,250,cs),
(426,135,o),
(365,64,o),
(267,64,cs)
);
}
);
width = 580;
},
{
anchors = (
{
name = bottom;
pos = (270,-12);
},
{
name = top;
pos = (336,520);
}
);
layerId = m003;
shapes = (
{
closed = 1;
nodes = (
(401,-12,o),
(545,70,o),
(568,254,cs),
(591,440,o),
(473,520,o),
(336,520,cs),
(207,520,o),
(59,440,o),
(36,254,cs),
(13,70,o),
(133,-12,o),
(270,-12,cs)
);
},
{
closed = 1;
nodes = (
(207,108,o),
(171,164,o),
(182,254,cs),
(193,342,o),
(244,400,o),
(321,400,cs),
(403,400,o),
(433,342,o),
(422,254,cs),
(411,164,o),
(366,108,o),
(285,108,cs)
);
}
);
width = 604;
}
);
unicode = 111;
},
{
glyphname = ohorn;
kernLeft = o;
kernRight = ohorn;
lastChange = "2024-11-25 04:35:15 +0000";
layers = (
{
layerId = m01;
shapes = (
{
closed = 1;
nodes = (
(513,434,o),
(606,512,o),
(572,634,c),
(509,615,l),
(531,545,o),
(496,483,o),
(432,483,cs),
(402,483,o),
(372,498,o),
(343,505,c),
(338,462,l),
(426,434,l)
);
},
{
pos = (-31,0);
ref = o;
}
);
width = 568;
},
{
layerId = m002;
shapes = (
{
closed = 1;
nodes = (
(549,430,o),
(621,513,o),
(587,635,c),
(505,613,l),
(526,554,o),
(508,484,o),
(440,484,cs),
(417,484,o),
(377,500,o),
(354,504,c),
(347,447,l),
(415,430,l)
);
},
{
pos = (-31,0);
ref = o;
}
);
width = 580;
},
{
layerId = m003;
shapes = (
{
closed = 1;
nodes = (
(597,413,o),
(695,522,o),
(657,657,c),
(540,626,l),
(561,567,o),
(548,494,o),
(467,494,cs),
(431,494,o),
(410,508,o),
(357,516,c),
(347,433,l),
(464,413,l)
);
},
{
pos = (-31,0);
ref = o;
}
);
width = 685;
}
);
unicode = 417;
},
{
glyphname = oslash;
kernLeft = o;
kernRight = o;
lastChange = "2024-11-25 04:31:09 +0000";
layers = (
{
layerId = m01;
shapes = (
{
pos = (-24,0);
ref = o;
},
{
closed = 1;
nodes = (
(50,-27,l),
(558,493,l),
(525,523,l),
(19,6,l)
);
}
);
width = 576;
},
{
layerId = m002;
shapes = (
{
pos = (-18,0);
ref = o;
},
{
closed = 1;
nodes = (
(62,-34,l),
(578,488,l),
(530,532,l),
(16,13,l)
);
}
);
width = 595;
},
{
layerId = m003;
shapes = (
{
pos = (-25,0);
ref = o;
},
{
closed = 1;
nodes = (
(65,-51,l),
(617,495,l),
(545,556,l),
(-5,13,l)
);
}
);
width = 613;
}
);
unicode = 248;
},
{
glyphname = oe;
kernLeft = o;
kernRight = e;
lastChange = "2024-11-25 04:31:09 +0000";
layers = (
{
anchors = (
{
name = bottom;
pos = (830,-13);
},
{
name = top;
pos = (890,512);
}
);
layerId = m01;
shapes = (
{
closed = 1;
nodes = (
(376,-12,o),
(482,78,o),
(503,250,cs),
(524,422,o),
(440,512,o),
(316,512,cs),
(192,512,o),
(77,422,o),
(56,250,cs),
(35,78,o),
(128,-12,o),
(252,-12,cs)
);
},
{
closed = 1;
nodes = (
(147,38,o),
(98,121,o),
(114,250,cs),
(130,379,o),
(199,462,o),
(310,462,cs),
(421,462,o),
(470,379,o),
(454,250,cs),
(438,121,o),
(369,38,o),
(258,38,cs)
);
},
{
closed = 1;
nodes = (
(791,-13,o),
(867,62,o),
(902,144,c),
(850,154,l),
(825,100,o),
(768,37,o),
(672,37,cs),
(553,37,o),
(501,118,o),
(516,245,cs),
(531,368,o),
(591,462,o),
(721,462,cs),
(828,462,o),
(871,368,o),
(862,289,c),
(511,289,l),
(505,239,l),
(916,239,l),
(919,267,l),
(938,422,o),
(851,512,o),
(723,512,cs),
(586,512,o),
(485,412,o),
(465,248,cs),
(445,87,o),
(516,-13,o),
(662,-13,cs)
);
}
);
width = 973;
},
{
anchors = (
{
name = bottom;
pos = (844,-13);
},
{
name = top;
pos = (904,512);
}
);
layerId = m002;
shapes = (
{
closed = 1;
nodes = (
(382,-12,o),
(493,78,o),
(514,250,cs),
(535,422,o),
(452,512,o),
(322,512,cs),
(198,512,o),
(77,422,o),
(56,250,cs),
(35,78,o),
(128,-12,o),
(258,-12,cs)
);
},
{
closed = 1;
nodes = (
(169,64,o),
(126,135,o),
(140,250,cs),
(154,365,o),
(217,436,o),
(313,436,cs),
(411,436,o),
(454,365,o),
(440,250,cs),
(426,135,o),
(365,64,o),
(267,64,cs)
);
},
{
closed = 1;
nodes = (
(775,-13,o),
(851,55,o),
(886,137,c),
(806,151,l),
(780,97,o),
(720,63,o),
(663,63,cs),
(538,63,o),
(516,150,o),
(527,245,cs),
(542,367,o),
(597,436,o),
(706,436,cs),
(800,436,o),
(828,345,o),
(823,304,c),
(530,304,l),
(521,234,l),
(900,234,l),
(903,261,l),
(925,434,o),
(835,512,o),
(711,512,cs),
(574,512,o),
(472,412,o),
(452,248,cs),
(432,87,o),
(510,-13,o),
(650,-13,cs)
);
}
);
width = 958;
},
{
anchors = (
{
name = bottom;
pos = (301,-13);
},
{
name = top;
pos = (365,520);
}
);
layerId = m003;
shapes = (
{
closed = 1;
nodes = (
(401,-12,o),
(529,70,o),
(552,254,cs),
(575,440,o),
(473,520,o),
(336,520,cs),
(207,520,o),
(59,440,o),
(36,254,cs),
(13,70,o),
(133,-12,o),
(270,-12,cs)
);
},
{
closed = 1;
nodes = (
(207,108,o),
(171,164,o),
(182,254,cs),
(193,342,o),
(244,400,o),
(321,400,cs),
(403,400,o),
(433,342,o),
(422,254,cs),
(411,164,o),
(366,108,o),
(285,108,cs)
);
},
{
closed = 1;
nodes = (
(745,-13,o),
(846,23,o),
(906,134,c),
(779,173,l),
(755,130,o),
(705,107,o),
(675,107,cs),
(586,107,o),
(554,164,o),
(565,256,cs),
(575,337,o),
(622,400,o),
(706,400,cs),
(773,400,o),
(803,336,o),
(799,301,c),
(538,301,l),
(528,215,l),
(931,215,l),
(935,248,l),
(956,418,o),
(872,520,o),
(722,520,cs),
(591,520,o),
(464,436,o),
(442,256,cs),
(421,82,o),
(523,-13,o),
(658,-13,cs)
);
}
);
width = 972;
}
);
unicode = 339;
},
{
glyphname = p;
kernRight = o;
lastChange = "2024-11-25 04:31:09 +0000";
layers = (
{
layerId = m01;
shapes = (
{
closed = 1;
nodes = (
(147,43,o),
(203,-12,o),
(294,-12,cs),
(411,-12,o),
(518,86,o),
(538,250,cs),
(559,419,o),
(489,512,o),
(358,512,cs),
(273,512,o),
(197,457,o),
(171,402,c),
(183,500,l),
(127,500,l),
(37,-230,l),
(93,-230,l),
(133,98,l)
);
},
{
closed = 1;
nodes = (
(209,38,o),
(135,108,o),
(151,250,c),
(169,392,o),
(261,462,o),
(340,462,cs),
(453,462,o),
(495,377,o),
(479,252,cs),
(464,124,o),
(387,38,o),
(288,38,cs)
);
}
);
width = 594;
},
{
layerId = m002;
shapes = (
{
closed = 1;
nodes = (
(170,24,o),
(239,-12,o),
(308,-12,cs),
(442,-12,o),
(541,86,o),
(561,250,cs),
(582,419,o),
(506,512,o),
(367,512,cs),
(279,512,o),
(220,457,o),
(195,402,c),
(207,500,l),
(123,500,l),
(33,-230,l),
(117,-230,l),
(157,93,l)
);
},
{
closed = 1;
nodes = (
(208,64,o),
(164,148,o),
(177,250,cs),
(191,360,o),
(254,437,o),
(353,437,cs),
(451,437,o),
(489,356,o),
(476,252,cs),
(463,148,o),
(405,64,o),
(304,64,cs)
);
}
);
width = 615;
},
{
layerId = m003;
shapes = (
{
closed = 1;
nodes = (
(183,29,o),
(228,-12,o),
(311,-12,cs),
(442,-12,o),
(543,88,o),
(563,253,cs),
(584,421,o),
(503,520,o),
(372,520,cs),
(294,520,o),
(238,470,o),
(205,415,c),
(216,508,l),
(75,508,l),
(-14,-230,l),
(126,-230,l),
(164,83,l)
);
},
{
closed = 1;
nodes = (
(212,97,o),
(173,158,o),
(185,253,cs),
(196,341,o),
(250,410,o),
(318,410,cs),
(390,410,o),
(428,340,o),
(417,253,cs),
(405,157,o),
(351,95,o),
(280,96,cs)
);
}
);
width = 607;
}
);
unicode = 112;
},
{
glyphname = thorn;
lastChange = "2024-11-25 04:31:09 +0000";
layers = (
{
layerId = m01;
shapes = (
{
closed = 1;
nodes = (
(147,43,o),
(203,-12,o),
(294,-12,cs),
(411,-12,o),
(518,86,o),
(538,250,cs),
(559,419,o),
(489,512,o),
(358,512,cs),
(273,512,o),
(197,457,o),
(171,402,c),
(207,700,l),
(151,700,l),
(37,-230,l),
(93,-230,l),
(133,98,l)
);
},
{
closed = 1;
nodes = (
(209,38,o),
(135,108,o),
(151,250,c),
(169,392,o),
(261,462,o),
(340,462,cs),
(453,462,o),
(495,377,o),
(479,252,cs),
(464,124,o),
(387,38,o),
(288,38,cs)
);
}
);
width = 594;
},
{
layerId = m002;
shapes = (
{
closed = 1;
nodes = (
(170,24,o),
(239,-12,o),
(308,-12,cs),
(442,-12,o),
(541,86,o),
(561,250,cs),
(582,419,o),
(506,512,o),
(367,512,cs),
(279,512,o),
(220,457,o),
(195,402,c),
(231,700,l),
(147,700,l),
(33,-230,l),
(117,-230,l),
(157,93,l)
);
},
{
closed = 1;
nodes = (
(208,64,o),
(164,148,o),
(177,250,cs),
(191,360,o),
(254,437,o),
(353,437,cs),
(451,437,o),
(489,356,o),
(476,252,cs),
(463,148,o),
(405,64,o),
(304,64,cs)
);
}
);
width = 615;
},
{
layerId = m003;
shapes = (
{
closed = 1;
nodes = (
(191,29,o),
(236,-12,o),
(319,-12,cs),
(450,-12,o),
(551,88,o),
(571,253,cs),
(592,421,o),
(511,520,o),
(380,520,cs),
(302,520,o),
(246,470,o),
(213,415,c),
(248,700,l),
(107,700,l),
(-6,-230,l),
(134,-230,l),
(172,83,l)
);
},
{
closed = 1;
nodes = (
(220,97,o),
(181,158,o),
(193,253,cs),
(204,341,o),
(258,410,o),
(326,410,cs),
(398,410,o),
(436,340,o),
(425,253,cs),
(413,157,o),
(359,95,o),
(288,96,cs)
);
}
);
width = 600;
}
);
unicode = 254;
},
{
glyphname = q;
kernLeft = o;
lastChange = "2024-11-25 04:31:09 +0000";
layers = (
{
layerId = m01;
shapes = (
{
closed = 1;
nodes = (
(488,-231,o),
(499,-226,o),
(514,-218,c),
(519,-171,l),
(476,-190,o),
(447,-176,o),
(453,-126,c),
(529,500,l),
(473,500,l),
(461,402,l),
(447,457,o),
(385,512,o),
(300,512,cs),
(169,512,o),
(77,419,o),
(56,250,cs),
(36,86,o),
(119,-12,o),
(236,-12,cs),
(327,-12,o),
(397,43,o),
(423,98,c),
(395,-141,ls),
(386,-212,o),
(424,-229,o),
(463,-230,cs)
);
},
{
closed = 1;
nodes = (
(155,38,o),
(100,124,o),
(115,252,cs),
(131,377,o),
(193,462,o),
(306,462,cs),
(385,462,o),
(459,392,o),
(443,250,c),
(425,108,o),
(333,38,o),
(254,38,cs)
);
}
);
width = 600;
},
{
layerId = m002;
shapes = (
{
closed = 1;
nodes = (
(498,-230,o),
(512,-226,o),
(527,-218,c),
(535,-150,l),
(485,-161,o),
(474,-143,o),
(481,-103,cs),
(555,500,l),
(472,500,l),
(460,402,l),
(445,457,o),
(400,512,o),
(312,512,cs),
(181,512,o),
(75,419,o),
(54,250,cs),
(34,86,o),
(112,-12,o),
(243,-12,cs),
(312,-12,o),
(392,27,o),
(421,96,c),
(394,-124,ls),
(384,-204,o),
(421,-230,o),
(473,-230,cs)
);
},
{
closed = 1;
nodes = (
(163,64,o),
(125,148,o),
(138,252,cs),
(151,356,o),
(209,437,o),
(307,437,cs),
(406,437,o),
(451,360,o),
(437,250,cs),
(424,148,o),
(360,64,o),
(264,64,cs)
);
}
);
width = 604;
},
{
layerId = m003;
shapes = (
{
closed = 1;
nodes = (
(512,-229,o),
(553,-222,o),
(568,-214,c),
(581,-104,l),
(531,-115,o),
(519,-100,o),
(523,-60,cs),
(594,508,l),
(453,508,l),
(442,415,l),
(423,470,o),
(379,520,o),
(301,520,cs),
(170,520,o),
(65,421,o),
(44,253,cs),
(24,88,o),
(99,-12,o),
(230,-12,cs),
(313,-12,o),
(368,29,o),
(401,83,c),
(378,-100,ls),
(366,-191,o),
(410,-229,o),
(485,-229,cs)
);
},
{
closed = 1;
nodes = (
(216,95,o),
(178,157,o),
(190,253,cs),
(201,340,o),
(255,410,o),
(327,410,cs),
(395,410,o),
(433,341,o),
(422,253,cs),
(410,158,o),
(357,97,o),
(289,96,cs)
);
}
);
width = 655;
}
);
unicode = 113;
},
{
glyphname = r;
lastChange = "2024-11-25 04:31:09 +0000";
layers = (
{
anchors = (
{
name = bottom;
pos = (94,0);
},
{
name = top;
pos = (247,500);
}
);
layerId = m01;
shapes = (
{
closed = 1;
nodes = (
(121,0,l),
(154,270,ls),
(166,366,o),
(232,456,o),
(331,456,cs),
(349,456,o),
(367,454,o),
(382,449,c),
(390,509,l),
(378,511,o),
(366,512,o),
(354,512,cs),
(235,512,o),
(183,431,o),
(170,396,c),
(183,500,l),
(127,500,l),
(65,0,l)
);
}
);
width = 375;
},
{
anchors = (
{
name = bottom;
pos = (105,0);
},
{
name = top;
pos = (167,500);
}
);
layerId = m002;
shapes = (
{
closed = 1;
nodes = (
(145,0,l),
(178,270,ls),
(190,366,o),
(242,420,o),
(325,436,cs),
(350,441,o),
(385,436,o),
(404,430,c),
(414,508,l),
(405,510,o),
(381,512,o),
(371,512,cs),
(268,512,o),
(221,454,o),
(195,401,c),
(207,500,l),
(123,500,l),
(61,0,l)
);
}
);
width = 402;
},
{
anchors = (
{
name = bottom;
pos = (118,0);
},
{
name = top;
pos = (254,520);
}
);
layerId = m003;
shapes = (
{
closed = 1;
nodes = (
(189,0,l),
(216,221,ls),
(228,317,o),
(257,375,o),
(338,391,cs),
(363,396,o),
(398,391,o),
(417,385,c),
(433,516,l),
(425,519,o),
(401,520,o),
(391,520,cs),
(323,520,o),
(267,477,o),
(241,424,c),
(251,508,l),
(111,508,l),
(49,0,l)
);
}
);
width = 419;
}
);
unicode = 114;
},
{
glyphname = s;
lastChange = "2024-11-25 04:31:09 +0000";
layers = (
{
anchors = (
{
name = bottom;
pos = (220,-12);
},
{
name = top;
pos = (285,512);
}
);
layerId = m01;
shapes = (
{
closed = 1;
nodes = (
(364,-12,o),
(427,53,o),
(437,134,cs),
(461,331,o),
(125,228,o),
(143,371,cs),
(150,432,o),
(212,462,o),
(278,462,cs),
(354,462,o),
(397,418,o),
(390,367,c),
(450,367,l),
(458,429,o),
(434,512,o),
(285,512,cs),
(162,512,o),
(93,441,o),
(84,368,cs),
(60,168,o),
(395,269,o),
(379,134,cs),
(371,70,o),
(313,38,o),
(228,38,cs),
(163,38,o),
(89,80,o),
(98,156,c),
(38,156,l),
(26,57,o),
(117,-12,o),
(220,-12,cs)
);
}
);
width = 505;
},
{
anchors = (
{
name = bottom;
pos = (219,-12);
},
{
name = top;
pos = (275,512);
}
);
layerId = m002;
shapes = (
{
closed = 1;
nodes = (
(366,-12,o),
(433,60,o),
(443,141,cs),
(467,338,o),
(137,253,o),
(151,365,cs),
(156,407,o),
(192,436,o),
(265,436,cs),
(345,436,o),
(378,400,o),
(374,367,c),
(460,367,l),
(468,429,o),
(428,512,o),
(275,512,cs),
(145,512,o),
(75,433,o),
(67,360,cs),
(42,161,o),
(373,258,o),
(358,137,cs),
(352,87,o),
(304,64,o),
(230,64,cs),
(172,64,o),
(113,93,o),
(120,156,c),
(30,156,l),
(18,57,o),
(110,-12,o),
(219,-12,c)
);
}
);
width = 503;
},
{
anchors = (
{
name = bottom;
pos = (242,-12);
},
{
name = top;
pos = (305,520);
}
);
layerId = m003;
shapes = (
{
closed = 1;
nodes = (
(396,-12,o),
(489,53,o),
(503,162,cs),
(525,347,o),
(199,287,o),
(208,361,cs),
(212,389,o),
(235,406,o),
(290,406,cs),
(347,406,o),
(379,380,o),
(376,351,c),
(512,351,l),
(521,424,o),
(477,520,o),
(305,520,cs),
(150,520,o),
(80,447,o),
(68,355,cs),
(44,157,o),
(371,224,o),
(363,155,cs),
(358,116,o),
(320,102,o),
(263,102,cs),
(197,102,o),
(156,126,o),
(162,175,c),
(26,176,l),
(14,77,o),
(84,-12,o),
(242,-12,c)
);
}
);
width = 554;
},
{
associatedMasterId = m003;
layerId = "F69D4450-EE1F-4301-BB03-F9CA77403C17";
name = "10 Aug 24 at 16:46";
shapes = (
{
closed = 1;
nodes = (
(434,-12,o),
(514,66,o),
(514,145,cs),
(514,351,o),
(195,285,o),
(195,361,cs),
(195,389,o),
(216,406,o),
(271,406,cs),
(328,406,o),
(364,380,o),
(364,351,c),
(500,351,l),
(500,424,o),
(444,520,o),
(272,520,cs),
(117,520,o),
(56,448,o),
(56,364,cs),
(56,156,o),
(375,226,o),
(375,155,cs),
(375,116,o),
(339,102,o),
(282,102,cs),
(216,102,o),
(172,126,o),
(172,175,c),
(36,176,l),
(36,77,o),
(117,-12,o),
(275,-12,c)
);
}
);
visible = 1;
width = 554;
}
);
unicode = 115;
},
{
glyphname = germandbls;
lastChange = "2024-11-25 04:31:09 +0000";
layers = (
{
layerId = m01;
shapes = (
{
closed = 1;
nodes = (
(191,122,l),
(182,46,o),
(238,-12,o),
(335,-12,cs),
(425,-12,o),
(504,41,o),
(516,140,cs),
(537,303,o),
(367,302,o),
(377,379,cs),
(383,431,o),
(447,461,o),
(459,557,cs),
(470,646,o),
(409,712,o),
(313,712,cs),
(204,712,o),
(132,642,o),
(115,506,cs),
(53,0,l),
(109,0,l),
(171,506,ls),
(183,598,o),
(220,662,o),
(310,662,cs),
(372,662,o),
(407,608,o),
(401,557,cs),
(390,473,o),
(329,458,o),
(319,379,cs),
(304,260,o),
(476,286,o),
(458,138,cs),
(450,74,o),
(404,38,o),
(342,38,cs),
(274,38,o),
(238,82,o),
(243,122,c)
);
}
);
width = 570;
},
{
layerId = m002;
shapes = (
{
closed = 1;
nodes = (
(201,140,l),
(191,58,o),
(236,-12,o),
(358,-12,cs),
(460,-12,o),
(537,54,o),
(550,157,cs),
(569,316,o),
(405,327,o),
(414,393,cs),
(420,445,o),
(475,460,o),
(486,552,cs),
(497,642,o),
(427,712,o),
(329,712,cs),
(206,712,o),
(133,631,o),
(117,506,cs),
(55,0,l),
(143,0,l),
(205,506,ls),
(215,583,o),
(241,636,o),
(322,636,cs),
(374,636,o),
(407,595,o),
(402,552,cs),
(393,480,o),
(339,472,o),
(330,393,cs),
(314,268,o),
(481,284,o),
(465,155,cs),
(458,97,o),
(419,64,o),
(367,64,cs),
(305,64,o),
(279,95,o),
(284,140,c)
);
}
);
width = 596;
},
{
layerId = m003;
shapes = (
{
closed = 1;
nodes = (
(236,163,l),
(221,43,o),
(297,-12,o),
(412,-12,cs),
(547,-12,o),
(620,68,o),
(633,170,cs),
(653,334,o),
(486,332,o),
(493,392,cs),
(499,443,o),
(538,462,o),
(547,537,cs),
(558,626,o),
(485,712,o),
(358,712,cs),
(185,712,o),
(123,602,o),
(106,463,cs),
(49,0,l),
(189,0,l),
(245,457,ls),
(257,554,o),
(287,598,o),
(345,598,cs),
(384,598,o),
(412,570,o),
(408,537,cs),
(399,465,o),
(361,459,o),
(353,392,cs),
(336,256,o),
(508,271,o),
(496,171,cs),
(490,126,o),
(467,102,o),
(427,102,cs),
(385,102,o),
(362,122,o),
(367,163,c)
);
}
);
width = 673;
}
);
unicode = 223;
},
{
glyphname = t;
lastChange = "2024-11-25 04:33:31 +0000";
layers = (
{
anchors = (
{
name = bottom;
pos = (210,-3);
},
{
name = top;
pos = (206,629);
}
);
layerId = m01;
shapes = (
{
closed = 1;
nodes = (
(237,-11,o),
(259,-8,o),
(277,-3,c),
(283,47,l),
(267,44,o),
(250,43,o),
(237,43,cs),
(189,43,o),
(163,61,o),
(172,134,cs),
(210,449,l),
(339,449,l),
(346,499,l),
(217,499,l),
(232,627,l),
(180,627,l),
(173,570,ls),
(165,506,o),
(155,500,o),
(94,500,cs),
(71,500,l),
(64,449,l),
(154,449,l),
(116,133,ls),
(104,40,o),
(136,-11,o),
(221,-11,cs)
);
}
);
width = 355;
},
{
anchors = (
{
name = bottom;
pos = (213,-8);
},
{
name = top;
pos = (203,627);
}
);
layerId = m002;
shapes = (
{
closed = 1;
nodes = (
(250,-12,o),
(272,-9,o),
(290,-4,c),
(298,64,l),
(282,61,o),
(265,60,o),
(252,60,cs),
(203,60,o),
(179,78,o),
(186,132,cs),
(221,423,l),
(350,423,l),
(360,499,l),
(231,499,l),
(246,627,l),
(162,627,l),
(155,570,ls),
(148,512,o),
(134,500,o),
(80,500,cs),
(57,500,l),
(47,423,l),
(137,423,l),
(102,132,ls),
(90,39,o),
(125,-12,o),
(234,-12,cs)
);
}
);
width = 366;
},
{
anchors = (
{
name = bottom;
pos = (229,-4);
},
{
name = top;
pos = (233,628);
}
);
layerId = m003;
shapes = (
{
closed = 1;
nodes = (
(284,-12,o),
(314,-9,o),
(331,-4,c),
(346,126,l),
(330,123,o),
(307,122,o),
(294,122,cs),
(267,122,o),
(240,137,o),
(245,184,cs),
(270,387,l),
(386,387,l),
(401,507,l),
(285,507,l),
(300,627,l),
(166,627,l),
(160,582,ls),
(154,527,o),
(131,508,o),
(68,508,cs),
(49,508,l),
(34,387,l),
(130,387,l),
(101,149,ls),
(88,42,o),
(137,-12,o),
(268,-12,cs)
);
}
);
width = 400;
}
);
unicode = 116;
},
{
glyphname = tcaron;
lastChange = "2024-11-25 04:31:09 +0000";
layers = (
{
layerId = m01;
shapes = (
{
closed = 1;
nodes = (
(344,582,l),
(414,700,l),
(321,700,l),
(294,582,l)
);
},
{
pos = (-31,0);
ref = t;
}
);
width = 359;
},
{
layerId = m002;
shapes = (
{
closed = 1;
nodes = (
(371,562,l),
(437,699,l),
(327,699,l),
(299,562,l)
);
},
{
pos = (-31,0);
ref = t;
}
);
width = 382;
},
{
layerId = m003;
shapes = (
{
closed = 1;
nodes = (
(438,562,l),
(510,702,l),
(380,702,l),
(343,562,l)
);
},
{
pos = (-31,0);
ref = t;
}
);
width = 455;
}
);
unicode = 357;
},
{
glyphname = u;
lastChange = "2024-11-25 04:31:09 +0000";
layers = (
{
anchors = (
{
name = bottom;
pos = (253,-12);
},
{
name = top;
pos = (316,500);
}
);
layerId = m01;
shapes = (
{
closed = 1;
nodes = (
(469,500,l),
(436,230,ls),
(424,134,o),
(357,38,o),
(258,38,cs),
(177,38,o),
(122,89,o),
(135,190,cs),
(173,500,l),
(117,500,l),
(77,178,ls),
(62,58,o),
(139,-12,o),
(236,-12,cs),
(355,-12,o),
(407,69,o),
(420,104,c),
(407,0,l),
(463,0,l),
(525,500,l)
);
}
);
width = 584;
},
{
anchors = (
{
name = bottom;
pos = (258,-12);
},
{
name = top;
pos = (321,500);
}
);
layerId = m002;
shapes = (
{
closed = 1;
nodes = (
(452,500,l),
(419,230,ls),
(407,134,o),
(351,64,o),
(259,64,cs),
(192,64,o),
(151,97,o),
(162,184,cs),
(201,500,l),
(117,500,l),
(76,172,ls),
(62,52,o),
(125,-12,o),
(222,-12,cs),
(334,-12,o),
(389,59,o),
(402,94,c),
(390,0,l),
(474,0,l),
(536,500,l)
);
}
);
width = 597;
},
{
anchors = (
{
name = bottom;
pos = (254,-12);
},
{
name = top;
pos = (325,520);
}
);
layerId = m003;
shapes = (
{
closed = 1;
nodes = (
(427,508,l),
(398,269,ls),
(385,161,o),
(349,100,o),
(266,100,cs),
(209,100,o),
(186,138,o),
(195,212,cs),
(231,508,l),
(91,508,l),
(53,193,ls),
(38,73,o),
(85,-12,o),
(219,-12,cs),
(287,-12,o),
(347,29,o),
(374,78,c),
(365,0,l),
(505,0,l),
(567,508,l)
);
}
);
width = 616;
}
);
unicode = 117;
},
{
glyphname = uhorn;
kernLeft = u;
kernRight = uhorn;
lastChange = "2024-11-25 04:35:40 +0000";
layers = (
{
layerId = m01;
shapes = (
{
pos = (-31,0);
ref = u;
},
{
closed = 1;
nodes = (
(573,451,o),
(666,529,o),
(632,651,c),
(569,632,l),
(591,562,o),
(556,500,o),
(492,500,c),
(486,451,l)
);
}
);
width = 640;
},
{
layerId = m002;
shapes = (
{
pos = (-31,0);
ref = u;
},
{
closed = 1;
nodes = (
(619,446,o),
(691,529,o),
(657,651,c),
(575,629,l),
(596,570,o),
(584,500,o),
(503,500,c),
(496,446,l)
);
}
);
width = 675;
},
{
layerId = m003;
shapes = (
{
pos = (-31,0);
ref = u;
},
{
closed = 1;
nodes = (
(654,427,o),
(756,536,o),
(718,671,c),
(600,640,l),
(622,581,o),
(612,508,o),
(531,508,c),
(521,427,l)
);
}
);
width = 736;
}
);
unicode = 432;
},
{
glyphname = v;
lastChange = "2024-11-25 05:33:21 +0000";
layers = (
{
layerId = m01;
shapes = (
{
closed = 1;
nodes = (
(183,0,l),
(243,0,l),
(111,500,l),
(46,500,l)
);
},
{
closed = 1;
nodes = (
(427,500,l),
(183,0,l),
(243,0,l),
(495,500,l)
);
}
);
width = 480;
},
{
layerId = m002;
shapes = (
{
closed = 1;
nodes = (
(173,0,l),
(256,0,l),
(131,500,l),
(45,500,l)
);
},
{
closed = 1;
nodes = (
(422,500,l),
(183,0,l),
(264,0,l),
(513,500,l)
);
}
);
width = 496;
},
{
layerId = m003;
shapes = (
{
closed = 1;
nodes = (
(173,0,l),
(298,0,l),
(172,508,l),
(34,508,l)
);
},
{
closed = 1;
nodes = (
(438,508,l),
(188,0,l),
(307,0,l),
(572,508,l)
);
}
);
width = 544;
}
);
unicode = 118;
},
{
glyphname = w;
lastChange = "2024-11-25 04:31:09 +0000";
layers = (
{
anchors = (
{
name = bottom;
pos = (383,0);
},
{
name = top;
pos = (445,500);
}
);
guides = (
{
angle = 270;
pos = (414,596);
},
{
angle = 270;
pos = (232,568);
},
{
angle = 270;
pos = (601,594);
}
);
layerId = m01;
shapes = (
{
closed = 1;
nodes = (
(237,0,l),
(454,473,l),
(430,473,l),
(532,0,l),
(592,0,l),
(821,500,l),
(758,500,l),
(566,61,l),
(579,61,l),
(486,500,l),
(408,500,l),
(210,61,l),
(224,61,l),
(139,500,l),
(71,500,l),
(176,0,l)
);
}
);
width = 830;
},
{
anchors = (
{
name = bottom;
pos = (396,0);
},
{
name = top;
pos = (458,500);
}
);
layerId = m002;
shapes = (
{
closed = 1;
nodes = (
(264,0,l),
(466,420,l),
(430,420,l),
(527,0,l),
(617,0,l),
(843,500,l),
(756,500,l),
(572,62,l),
(593,62,l),
(501,500,l),
(418,500,l),
(221,62,l),
(240,62,l),
(162,500,l),
(67,500,l),
(174,0,l)
);
}
);
width = 848;
},
{
anchors = (
{
name = bottom;
pos = (427,-12);
},
{
name = top;
pos = (493,520);
}
);
layerId = m003;
shapes = (
{
closed = 1;
nodes = (
(313,0,l),
(493,408,l),
(464,408,l),
(541,0,l),
(678,0,l),
(917,508,l),
(781,508,l),
(606,95,l),
(630,95,l),
(568,508,l),
(422,508,l),
(251,95,l),
(275,95,l),
(209,508,l),
(63,508,l),
(176,0,l)
);
}
);
width = 918;
},
{
associatedMasterId = m002;
layerId = "30F2B960-0829-4076-A92C-CF2E7BC166CC";
name = m;
shapes = (
{
closed = 1;
nodes = (
(68,0,l),
(68,270,ls),
(68,366,o),
(115,436,o),
(207,436,cs),
(274,436,o),
(319,403,o),
(319,316,cs),
(319,0,l),
(403,0,l),
(403,328,ls),
(403,448,o),
(332,512,o),
(235,512,cs),
(123,512,o),
(77,441,o),
(68,406,c),
(68,500,l),
(-16,500,l),
(-16,0,l)
);
},
{
closed = 1;
nodes = (
(738,0,l),
(738,328,ls),
(738,448,o),
(667,512,o),
(570,512,cs),
(458,512,o),
(402,432,o),
(393,397,c),
(403,270,l),
(403,366,o),
(450,436,o),
(542,436,cs),
(609,436,o),
(654,403,o),
(654,316,cs),
(654,0,l)
);
}
);
width = 730;
},
{
associatedMasterId = m002;
layerId = "54EF5A92-DF5C-4F27-901D-AD1120EB6B99";
name = v;
shapes = (
{
closed = 1;
nodes = (
(130,0,l),
(213,0,l),
(39,500,l),
(-60,500,l)
);
},
{
closed = 1;
nodes = (
(317,500,l),
(140,0,l),
(221,0,l),
(408,500,l)
);
}
);
width = 730;
},
{
associatedMasterId = m003;
layerId = "6140675B-CD52-4F0B-8FAC-842A7E23690F";
name = "29 Jul 24 at 14:44";
shapes = (
{
closed = 1;
nodes = (
(332,0,l),
(442,394,l),
(395,394,l),
(500,0,l),
(673,0,l),
(812,508,l),
(671,508,l),
(566,60,l),
(609,60,l),
(490,508,l),
(345,508,l),
(225,60,l),
(270,60,l),
(165,508,l),
(25,508,l),
(164,0,l)
);
}
);
width = 837;
},
{
associatedMasterId = m003;
layerId = "C266404C-C364-4E5A-B81C-638BAB07B38C";
name = "29 Jul 24 at 14:44";
shapes = (
{
closed = 1;
nodes = (
(142,0,l),
(142,239,ls),
(142,347,o),
(174,408,o),
(257,408,cs),
(314,408,o),
(343,373,o),
(343,296,cs),
(343,0,l),
(483,0,l),
(483,315,ls),
(483,435,o),
(420,520,o),
(291,520,cs),
(223,520,o),
(163,479,o),
(142,430,c),
(142,508,l),
(2,508,l),
(2,0,l)
);
},
{
closed = 1;
nodes = (
(483,239,l),
(483,347,o),
(515,408,o),
(598,408,cs),
(655,408,o),
(684,373,o),
(684,296,cs),
(684,0,l),
(824,0,l),
(824,315,ls),
(824,435,o),
(761,520,o),
(632,520,cs),
(568,520,o),
(490,490,o),
(468,404,c)
);
}
);
width = 837;
},
{
associatedMasterId = m01;
guides = (
{
angle = 270;
pos = (415,596);
},
{
angle = 270;
pos = (233,568);
},
{
angle = 270;
pos = (602,594);
}
);
layerId = "CC5DFB62-56C2-4ABB-B478-555D61F8676C";
name = "29 Jul 24 at 16:40";
shapes = (
{
closed = 1;
nodes = (
(80,0,l),
(80,270,ls),
(80,366,o),
(135,458,o),
(234,458,cs),
(315,458,o),
(376,411,o),
(376,310,cs),
(376,0,l),
(432,0,l),
(432,322,ls),
(432,442,o),
(347,512,o),
(250,512,cs),
(131,512,o),
(89,431,o),
(80,396,c),
(80,500,l),
(24,500,l),
(24,0,l)
);
},
{
closed = 1;
nodes = (
(432,270,l),
(432,373,o),
(487,458,o),
(586,458,cs),
(667,458,o),
(728,411,o),
(728,310,cs),
(728,0,l),
(784,0,l),
(784,322,ls),
(784,442,o),
(699,512,o),
(602,512,cs),
(483,512,o),
(430,414,o),
(421,379,c)
);
}
);
width = 830;
}
);
unicode = 119;
},
{
glyphname = x;
lastChange = "2024-11-25 04:31:09 +0000";
layers = (
{
layerId = m01;
shapes = (
{
closed = 1;
nodes = (
(434,0,l),
(264,287,l),
(259,296,l),
(138,500,l),
(67,500,l),
(217,248,l),
(224,235,l),
(363,0,l)
);
},
{
closed = 1;
nodes = (
(58,0,l),
(248,227,l),
(259,239,l),
(478,500,l),
(409,500,l),
(233,290,l),
(219,274,l),
(-11,0,l)
);
}
);
width = 491;
},
{
layerId = m002;
shapes = (
{
closed = 1;
nodes = (
(437,0,l),
(270,283,l),
(264,292,l),
(141,500,l),
(41,500,l),
(199,233,l),
(205,224,l),
(337,0,l)
);
},
{
closed = 1;
nodes = (
(69,0,l),
(250,215,l),
(261,229,l),
(489,500,l),
(394,500,l),
(219,292,l),
(205,275,l),
(-26,0,l)
);
}
);
width = 473;
},
{
layerId = m003;
shapes = (
{
closed = 1;
nodes = (
(518,0,l),
(326,306,l),
(317,313,l),
(197,508,l),
(43,508,l),
(224,218,l),
(232,212,l),
(364,0,l)
);
},
{
closed = 1;
nodes = (
(124,0,l),
(309,213,l),
(319,220,l),
(569,508,l),
(420,508,l),
(249,310,l),
(239,304,l),
(-25,0,l)
);
}
);
width = 555;
}
);
unicode = 120;
},
{
glyphname = y;
lastChange = "2024-11-25 05:31:54 +0000";
layers = (
{
anchors = (
{
name = top;
pos = (297,500);
}
);
layerId = m01;
shapes = (
{
closed = 1;
nodes = (
(148,-230,o),
(183,-164,o),
(250,-34,cs),
(525,500,l),
(461,500,l),
(244,71,l),
(117,500,l),
(48,500,l),
(206,0,l),
(146,-126,o),
(111,-170,o),
(64,-170,c),
(46,-170,o),
(28,-169,o),
(16,-166,c),
(9,-222,l),
(22,-226,o),
(33,-230,o),
(54,-230,cs)
);
}
);
width = 510;
},
{
anchors = (
{
name = top;
pos = (296,500);
}
);
layerId = m002;
shapes = (
{
closed = 1;
nodes = (
(157,-230,o),
(194,-164,o),
(259,-34,cs),
(526,500,l),
(431,500,l),
(248,110,l),
(136,500,l),
(40,500,l),
(191,3,l),
(141,-126,o),
(106,-152,o),
(55,-152,c),
(37,-152,o),
(22,-151,o),
(10,-148,c),
(1,-222,l),
(14,-226,o),
(42,-230,o),
(63,-230,cs)
);
}
);
width = 507;
},
{
anchors = (
{
name = top;
pos = (307,520);
}
);
layerId = m003;
shapes = (
{
closed = 1;
nodes = (
(163,-230,o),
(234,-177,o),
(305,-34,cs),
(572,508,l),
(431,508,l),
(271,141,l),
(175,508,l),
(35,508,l),
(181,3,l),
(152,-78,o),
(98,-104,o),
(52,-104,c),
(42,-104,o),
(15,-103,o),
(4,-100,c),
(-12,-220,l),
(0,-224,o),
(33,-230,o),
(73,-230,cs)
);
}
);
width = 543;
},
{
associatedMasterId = m002;
layerId = "D87BC176-5E8B-42A9-9E7C-690C4401C1BD";
name = "14 Jul 24 at 12:20";
shapes = (
{
closed = 1;
nodes = (
(209,0,l),
(292,0,l),
(118,500,l),
(22,500,l)
);
},
{
closed = 1;
nodes = (
(396,500,l),
(219,0,l),
(300,0,l),
(484,500,l)
);
}
);
visible = 1;
width = 498;
}
);
unicode = 121;
},
{
glyphname = z;
lastChange = "2024-11-25 04:31:09 +0000";
layers = (
{
anchors = (
{
name = bottom;
pos = (208,0);
},
{
name = top;
pos = (270,500);
}
);
layerId = m01;
shapes = (
{
closed = 1;
nodes = (
(388,1,l),
(395,51,l),
(92,51,l),
(442,454,l),
(448,501,l),
(81,501,l),
(75,451,l),
(373,451,l),
(26,51,l),
(19,1,l)
);
}
);
width = 475;
},
{
anchors = (
{
name = bottom;
pos = (215,0);
},
{
name = top;
pos = (277,500);
}
);
layerId = m002;
shapes = (
{
closed = 1;
nodes = (
(398,1,l),
(408,77,l),
(133,77,l),
(449,428,l),
(458,501,l),
(85,501,l),
(75,425,l),
(348,425,l),
(33,75,l),
(23,1,l)
);
}
);
width = 483;
},
{
anchors = (
{
name = bottom;
pos = (221,0);
},
{
name = top;
pos = (288,508);
}
);
layerId = m003;
shapes = (
{
closed = 1;
nodes = (
(441,1,l),
(456,121,l),
(209,121,l),
(488,396,l),
(501,508,l),
(71,508,l),
(57,388,l),
(303,388,l),
(24,114,l),
(9,1,l)
);
}
);
width = 516;
}
);
unicode = 122;
},
{
glyphname = a.ss01;
kernLeft = a2;
kernRight = a2;
lastChange = "2024-11-25 04:31:09 +0000";
layers = (
{
anchors = (
{
name = bottom;
pos = (247,-10);
},
{
name = top;
pos = (311,512);
}
);
layerId = m01;
shapes = (
{
closed = 1;
nodes = (
(336,-12,o),
(394,97,o),
(394,97,c),
(386,30,o),
(418,-1,o),
(461,-1,cs),
(486,-1,o),
(497,3,o),
(512,11,c),
(518,59,l),
(473,43,o),
(446,63,o),
(452,113,cs),
(480,338,ls),
(494,450,o),
(437,512,o),
(301,512,cs),
(222,512,o),
(146,476,o),
(97,400,c),
(146,373,l),
(173,420,o),
(226,460,o),
(295,460,cs),
(397,460,o),
(433,409,o),
(423,333,cs),
(421,318,l),
(193,318,o),
(59,278,o),
(42,135,cs),
(31,43,o),
(96,-12,o),
(180,-12,cs)
);
},
{
closed = 1;
nodes = (
(131,38,o),
(93,81,o),
(99,131,cs),
(111,228,o),
(190,268,o),
(415,268,c),
(411,233,ls),
(399,132,o),
(310,38,o),
(194,38,cs)
);
}
);
width = 581;
},
{
anchors = (
{
name = bottom;
pos = (285,-10);
},
{
name = top;
pos = (351,520);
}
);
layerId = m003;
shapes = (
{
closed = 1;
nodes = (
(330,-12,o),
(361,97,o),
(361,97,c),
(353,37,o),
(389,0,o),
(464,0,cs),
(491,0,o),
(532,6,o),
(547,14,c),
(560,124,l),
(510,113,o),
(498,128,o),
(502,168,cs),
(524,340,ls),
(537,451,o),
(468,520,o),
(318,520,cs),
(197,520,o),
(114,459,o),
(81,387,c),
(181,342,l),
(200,385,o),
(241,412,o),
(296,412,cs),
(364,412,o),
(396,383,o),
(389,331,cs),
(389,327,l),
(172,327,o),
(42,273,o),
(26,144,cs),
(15,51,o),
(80,-12,o),
(194,-12,cs)
);
},
{
closed = 1;
nodes = (
(207,93,o),
(162,109,o),
(167,151,cs),
(173,199,o),
(206,239,o),
(378,239,c),
(374,206,ls),
(364,124,o),
(298,93,o),
(228,93,cs)
);
}
);
width = 631;
},
{
anchors = (
{
name = bottom;
pos = (265,-10);
},
{
name = top;
pos = (329,512);
}
);
layerId = m002;
shapes = (
{
closed = 1;
nodes = (
(344,-12,o),
(398,96,o),
(398,96,c),
(392,25,o),
(428,0,o),
(480,0,cs),
(505,0,o),
(519,4,o),
(534,12,c),
(543,80,l),
(493,69,o),
(481,87,o),
(486,127,cs),
(511,330,ls),
(525,445,o),
(459,512,o),
(322,512,cs),
(211,512,o),
(143,462,o),
(104,392,c),
(169,356,l),
(193,413,o),
(255,442,o),
(310,442,cs),
(380,442,o),
(437,414,o),
(428,339,cs),
(426,326,l),
(170,326,o),
(69,261,o),
(55,141,cs),
(43,49,o),
(111,-12,o),
(194,-12,cs)
);
},
{
closed = 1;
nodes = (
(172,62,o),
(131,96,o),
(137,141,cs),
(145,210,o),
(194,260,o),
(418,260,c),
(414,225,ls),
(401,120,o),
(281,62,o),
(219,62,cs)
);
}
);
width = 620;
},
{
associatedMasterId = m003;
layerId = "75EC2996-E87C-4405-B059-48FBE7BE3912";
name = "6 May 24 at 07:51";
shapes = (
{
closed = 1;
nodes = (
(198,190,o),
(236,239,o),
(423,239,c),
(423,208,ls),
(423,126,o),
(351,93,o),
(281,93,cs),
(245,93,o),
(198,109,o),
(198,142,cs)
);
},
{
closed = 1;
nodes = (
(58,51,o),
(131,-12,o),
(245,-12,cs),
(391,-12,o),
(430,97,o),
(430,97,c),
(430,37,o),
(469,0,o),
(544,0,cs),
(569,0,o),
(613,4,o),
(627,12,c),
(627,107,l),
(577,96,o),
(563,114,o),
(563,154,cs),
(563,340,ls),
(563,459,o),
(444,520,o),
(315,520,cs),
(135,520,o),
(71,393,o),
(71,393,c),
(175,339,l),
(192,368,o),
(237,405,o),
(307,405,cs),
(373,405,o),
(423,366,o),
(423,331,cs),
(423,329,l),
(187,329,o),
(58,273,o),
(58,144,cs)
);
}
);
width = 629;
}
);
},
{
glyphname = g.ss01;
kernLeft = g2;
kernRight = g2;
lastChange = "2024-11-25 04:31:09 +0000";
layers = (
{
anchors = (
{
name = bottom;
pos = (222,-230);
},
{
name = top;
pos = (301,512);
}
);
layerId = m01;
shapes = (
{
closed = 1;
nodes = (
(389,-230,o),
(477,-156,o),
(490,-54,cs),
(498,17,o),
(440,77,o),
(328,77,cs),
(149,77,ls),
(107,77,o),
(97,109,o),
(99,129,cs),
(103,159,o),
(134,182,o),
(173,192,c),
(130,218,l),
(67,192,o),
(46,157,o),
(40,115,cs),
(36,78,o),
(59,44,o),
(86,35,c),
(19,16,o),
(-5,-51,o),
(-8,-74,cs),
(-20,-173,o),
(58,-230,o),
(219,-230,cs)
);
},
{
closed = 1;
nodes = (
(97,-180,o),
(42,-140,o),
(51,-69,cs),
(56,-24,o),
(103,27,o),
(176,27,c),
(315,27,l),
(392,28,o),
(438,-6,o),
(431,-59,cs),
(425,-110,o),
(384,-180,o),
(220,-180,cs)
);
},
{
closed = 1;
nodes = (
(377,176,o),
(462,243,o),
(475,345,cs),
(487,445,o),
(418,512,o),
(301,512,cs),
(187,512,o),
(100,445,o),
(88,345,cs),
(75,243,o),
(146,176,o),
(260,176,cs)
);
},
{
closed = 1;
nodes = (
(177,226,o),
(136,279,o),
(144,345,cs),
(152,409,o),
(206,462,o),
(295,462,cs),
(385,462,o),
(427,409,o),
(419,345,cs),
(411,279,o),
(356,226,o),
(266,226,cs)
);
},
{
closed = 1;
nodes = (
(463,484,o),
(520,508,o),
(567,495,c),
(574,553,l),
(483,569,o),
(435,516,o),
(420,475,c),
(446,455,l)
);
}
);
width = 562;
},
{
anchors = (
{
name = bottom;
pos = (242,-230);
},
{
name = top;
pos = (323,520);
}
);
layerId = m003;
shapes = (
{
closed = 1;
nodes = (
(449,-230,o),
(533,-137,o),
(546,-35,cs),
(555,41,o),
(494,104,o),
(373,104,cs),
(205,104,ls),
(171,104,o),
(151,112,o),
(154,137,cs),
(156,154,o),
(170,160,o),
(185,166,c),
(126,226,l),
(59,198,o),
(34,161,o),
(27,110,cs),
(21,61,o),
(41,28,o),
(84,7,c),
(29,-10,o),
(1,-50,o),
(-4,-92,cs),
(-14,-167,o),
(51,-230,o),
(235,-230,cs)
);
},
{
closed = 1;
nodes = (
(154,-117,o),
(129,-90,o),
(133,-55,cs),
(136,-33,o),
(163,-6,o),
(200,-6,c),
(340,-6,l),
(381,-6,o),
(405,-21,o),
(401,-56,cs),
(397,-91,o),
(339,-117,o),
(243,-117,cs)
);
},
{
closed = 1;
nodes = (
(417,145,o),
(515,226,o),
(528,333,cs),
(541,440,o),
(463,520,o),
(323,520,cs),
(187,520,o),
(87,440,o),
(74,333,cs),
(61,226,o),
(141,145,o),
(277,145,cs)
);
},
{
closed = 1;
nodes = (
(229,257,o),
(206,293,o),
(211,333,cs),
(215,372,o),
(251,410,o),
(309,410,c),
(371,410,o),
(395,372,o),
(391,333,cs),
(386,293,o),
(352,257,o),
(290,257,cs)
);
},
{
closed = 1;
nodes = (
(511,471,o),
(577,469,o),
(605,456,c),
(619,568,l),
(528,584,o),
(456,525,o),
(447,480,c),
(494,442,l)
);
}
);
width = 601;
},
{
anchors = (
{
name = bottom;
pos = (231,-230);
},
{
name = top;
pos = (300,512);
}
);
layerId = m002;
shapes = (
{
closed = 1;
nodes = (
(396,-230,o),
(484,-156,o),
(497,-54,cs),
(506,22,o),
(463,82,o),
(333,82,cs),
(157,82,ls),
(115,82,o),
(101,104,o),
(104,129,cs),
(108,159,o),
(142,182,o),
(181,192,c),
(113,218,l),
(50,192,o),
(19,156,o),
(14,114,cs),
(10,77,o),
(26,37,o),
(67,16,c),
(1,-3,o),
(-24,-67,o),
(-27,-93,cs),
(-36,-167,o),
(36,-230,o),
(217,-230,cs)
);
},
{
closed = 1;
nodes = (
(100,-154,o),
(54,-114,o),
(60,-69,cs),
(65,-23,o),
(111,6,o),
(169,6,c),
(319,6,l),
(385,6,o),
(417,-21,o),
(411,-69,cs),
(405,-114,o),
(361,-154,o),
(221,-154,cs)
);
},
{
closed = 1;
nodes = (
(378,162,o),
(469,236,o),
(482,338,cs),
(494,438,o),
(421,512,o),
(300,512,cs),
(182,512,o),
(89,438,o),
(77,338,cs),
(64,236,o),
(139,162,o),
(257,162,cs)
);
},
{
closed = 1;
nodes = (
(184,238,o),
(148,281,o),
(155,338,cs),
(162,393,o),
(208,436,o),
(291,436,cs),
(376,436,o),
(411,393,o),
(404,338,cs),
(397,281,o),
(352,238,o),
(267,238,cs)
);
},
{
closed = 1;
nodes = (
(474,471,o),
(534,473,o),
(572,467,c),
(582,555,l),
(491,571,o),
(435,520,o),
(426,475,c),
(458,442,l)
);
}
);
width = 580;
},
{
associatedMasterId = m01;
layerId = "3EA75350-8DAD-4CD2-A32D-BF5A6E43F144";
name = "10 Aug 24 at 16:59";
shapes = (
{
closed = 1;
nodes = (
(443,-229,o),
(522,-148,o),
(522,-46,cs),
(522,20,o),
(479,87,o),
(352,87,cs),
(174,87,ls),
(105,87,o),
(113,176,o),
(173,176,cs),
(184,176,o),
(255,176,o),
(267,176,cs),
(399,176,o),
(469,247,o),
(469,340,cs),
(469,375,o),
(457,419,o),
(424,452,c),
(437,481,o),
(481,505,o),
(530,492,c),
(530,555,l),
(437,571,o),
(399,522,o),
(395,477,c),
(369,495,o),
(335,512,o),
(260,512,cs),
(119,512,o),
(56,420,o),
(56,340,cs),
(56,280,o),
(86,222,o),
(133,197,c),
(97,193,o),
(60,163,o),
(60,126,cs),
(60,85,o),
(89,58,o),
(122,49,c),
(58,30,o),
(37,-31,o),
(37,-73,cs),
(37,-172,o),
(122,-229,o),
(278,-229,cs)
);
},
{
closed = 1;
nodes = (
(155,-179,o),
(94,-137,o),
(94,-66,cs),
(94,-25,o),
(116,22,o),
(173,37,c),
(345,37,l),
(426,38,o),
(464,-2,o),
(464,-49,cs),
(464,-100,o),
(432,-179,o),
(273,-179,cs)
);
},
{
closed = 1;
nodes = (
(154,225,o),
(114,275,o),
(114,344,cs),
(114,408,o),
(154,463,o),
(259,463,cs),
(368,463,o),
(411,408,o),
(411,345,cs),
(411,275,o),
(368,225,o),
(259,225,cs)
);
}
);
width = 562;
},
{
associatedMasterId = m002;
layerId = "C08E6C22-B8C2-4688-8674-8526B1088BC5";
name = "10 Aug 24 at 17:56";
shapes = (
{
closed = 0;
nodes = (
(408,480,l),
(390,494,o),
(346,512,o),
(262,512,cs),
(116,512,o),
(49,424,o),
(49,337,cs),
(49,280,o),
(83,223,o),
(130,198,c),
(94,194,o),
(55,160,o),
(55,123,cs),
(55,87,o),
(79,60,o),
(113,48,c),
(54,27,o),
(30,-31,o),
(30,-73,cs),
(30,-172,o),
(117,-229,o),
(275,-229,cs),
(453,-229,o),
(532,-148,o),
(532,-46,cs),
(532,20,o),
(496,98,o),
(367,98,cs),
(192,98,ls),
(130,98,o),
(124,177,o),
(200,177,cs),
(211,177,o),
(257,177,o),
(269,177,cs),
(404,177,o),
(478,246,o),
(479,340,cs),
(479,375,o),
(467,417,o),
(444,447,c)
);
},
{
closed = 1;
nodes = (
(155,-154,o),
(108,-122,o),
(108,-59,cs),
(108,-22,o),
(134,16,o),
(177,26,c),
(359,26,l),
(431,26,o),
(453,-2,o),
(454,-49,cs),
(455,-100,o),
(416,-154,o),
(275,-154,cs)
);
},
{
closed = 1;
nodes = (
(163,247,o),
(127,289,o),
(127,344,cs),
(127,397,o),
(163,442,o),
(261,442,cs),
(365,442,o),
(401,398,o),
(401,345,cs),
(401,287,o),
(365,247,o),
(261,247,cs)
);
}
);
width = 580;
},
{
associatedMasterId = m003;
layerId = "F79AD273-4246-4744-B8B8-59AC46FF7D92";
name = "10 Aug 24 at 19:33";
shapes = (
{
closed = 1;
nodes = (
(475,-229,o),
(587,-151,o),
(587,-46,cs),
(587,20,o),
(551,111,o),
(394,111,cs),
(218,111,ls),
(174,111,o),
(175,166,o),
(218,166,cs),
(229,166,o),
(286,166,o),
(298,166,cs),
(435,166,o),
(534,242,o),
(534,340,cs),
(534,375,o),
(529,414,o),
(506,444,c),
(519,473,o),
(574,469,o),
(603,456,c),
(603,568,l),
(510,584,o),
(458,533,o),
(454,488,c),
(436,502,o),
(373,520,o),
(291,520,cs),
(129,520,o),
(51,432,o),
(51,337,cs),
(51,266,o),
(89,220,o),
(136,195,c),
(100,191,o),
(55,164,o),
(55,116,cs),
(55,75,o),
(83,46,o),
(116,37,c),
(57,16,o),
(32,-30,o),
(32,-72,cs),
(32,-171,o),
(152,-229,o),
(304,-229,cs)
);
},
{
closed = 1;
nodes = (
(211,-119,o),
(172,-96,o),
(172,-59,cs),
(172,-21,o),
(200,1,o),
(234,1,cs),
(323,1,ls),
(402,1,o),
(446,-4,o),
(446,-51,cs),
(446,-94,o),
(394,-119,o),
(304,-119,cs)
);
},
{
closed = 1;
nodes = (
(230,275,o),
(191,298,o),
(191,343,cs),
(191,387,o),
(230,411,o),
(290,411,cs),
(357,411,o),
(394,386,o),
(394,343,cs),
(394,297,o),
(357,275,o),
(290,275,cs)
);
}
);
width = 633;
}
);
},
{
export = 0;
glyphname = ldot;
lastChange = "2024-11-25 04:31:09 +0000";
layers = (
{
layerId = m01;
shapes = (
{
pos = (-31,0);
ref = l;
},
{
closed = 1;
nodes = (
(329,303,o),
(352,325,o),
(355,349,cs),
(358,375,o),
(340,397,o),
(316,397,cs),
(290,397,o),
(265,375,o),
(262,349,cs),
(259,325,o),
(279,303,o),
(305,303,cs)
);
}
);
width = 369;
},
{
layerId = m002;
shapes = (
{
pos = (-31,0);
ref = l;
},
{
closed = 1;
nodes = (
(337,285,o),
(370,315,o),
(374,350,cs),
(379,386,o),
(353,416,o),
(318,416,cs),
(282,416,o),
(249,386,o),
(244,350,cs),
(240,315,o),
(266,285,o),
(302,285,cs)
);
}
);
width = 382;
},
{
layerId = m003;
shapes = (
{
pos = (-31,0);
ref = l;
},
{
closed = 1;
nodes = (
(423,262,o),
(469,302,o),
(475,352,cs),
(481,400,o),
(445,439,o),
(397,439,cs),
(348,439,o),
(302,400,o),
(296,352,cs),
(290,302,o),
(326,262,o),
(375,262,cs)
);
}
);
width = 467;
}
);
unicode = 320;
},
{
glyphname = ordfeminine;
lastChange = "2024-11-25 04:31:09 +0000";
layers = (
{
guides = (
{
pos = (185,370);
}
);
layerId = m01;
shapes = (
{
closed = 1;
nodes = (
(235,370,o),
(268,441,o),
(268,441,c),
(265,395,o),
(291,378,o),
(324,378,cs),
(340,378,o),
(349,381,o),
(359,386,c),
(365,441,l),
(333,433,o),
(325,445,o),
(328,471,cs),
(343,594,ls),
(352,668,o),
(310,712,o),
(221,712,cs),
(148,712,o),
(107,681,o),
(76,637,c),
(114,604,l),
(134,634,o),
(165,657,o),
(212,657,cs),
(255,657,o),
(292,634,o),
(288,599,cs),
(287,591,l),
(121,591,o),
(57,549,o),
(47,471,cs),
(40,410,o),
(83,370,o),
(137,370,cs)
);
},
{
closed = 1;
nodes = (
(349,307,l),
(29,308,l),
(22,249,l),
(342,248,l)
);
},
{
closed = 1;
nodes = (
(123,426,o),
(102,444,o),
(105,471,cs),
(110,514,o),
(139,541,o),
(281,541,c),
(279,526,ls),
(272,466,o),
(198,426,o),
(157,426,cs)
);
}
);
width = 362;
},
{
guides = (
{
pos = (182,354);
}
);
layerId = m002;
shapes = (
{
closed = 1;
nodes = (
(244,353,o),
(268,427,o),
(268,427,c),
(264,379,o),
(292,361,o),
(337,361,cs),
(354,361,o),
(364,364,o),
(374,370,c),
(382,435,l),
(349,427,o),
(339,440,o),
(343,467,cs),
(358,588,ls),
(367,666,o),
(323,712,o),
(229,712,cs),
(158,712,o),
(110,684,o),
(78,637,c),
(120,595,l),
(133,615,o),
(170,644,o),
(218,644,cs),
(263,644,o),
(291,620,o),
(288,593,cs),
(287,585,l),
(113,585,o),
(55,533,o),
(46,459,cs),
(38,395,o),
(80,353,o),
(141,353,cs)
);
},
{
closed = 1;
nodes = (
(366,307,l),
(27,308,l),
(18,232,l),
(357,231,l)
);
},
{
closed = 1;
nodes = (
(133,421,o),
(114,434,o),
(117,462,cs),
(121,491,o),
(144,523,o),
(280,523,c),
(278,508,ls),
(271,454,o),
(206,421,o),
(163,421,cs)
);
}
);
width = 379;
},
{
guides = (
{
pos = (201,349);
}
);
layerId = m003;
shapes = (
{
closed = 1;
nodes = (
(244,349,o),
(277,420,o),
(277,420,c),
(272,380,o),
(303,357,o),
(355,357,cs),
(375,357,o),
(402,361,o),
(413,367,c),
(422,442,l),
(387,434,o),
(378,445,o),
(382,472,cs),
(396,589,ls),
(405,665,o),
(351,712,o),
(252,712,cs),
(189,712,o),
(130,692,o),
(86,637,c),
(143,580,l),
(157,600,o),
(194,621,o),
(236,621,cs),
(276,621,o),
(300,602,o),
(297,581,cs),
(297,578,l),
(143,580,o),
(67,537,o),
(57,456,cs),
(49,393,o),
(81,349,o),
(160,349,cs)
);
},
{
closed = 1;
nodes = (
(406,308,l),
(37,308,l),
(23,198,l),
(392,198,l)
);
},
{
closed = 1;
nodes = (
(183,439,o),
(166,448,o),
(168,467,cs),
(171,487,o),
(197,501,o),
(286,501,c),
(286,497,ls),
(282,466,o),
(252,439,o),
(218,439,cs)
);
}
);
width = 429;
}
);
unicode = 170;
},
{
glyphname = ordmasculine;
lastChange = "2024-11-25 04:31:09 +0000";
layers = (
{
guides = (
{
pos = (169,370);
}
);
layerId = m01;
shapes = (
{
closed = 1;
nodes = (
(21,249,l),
(317,248,l),
(324,307,l),
(28,308,l)
);
},
{
closed = 1;
nodes = (
(267,370,o),
(342,429,o),
(356,541,cs),
(369,653,o),
(309,712,o),
(226,712,cs),
(143,712,o),
(67,653,o),
(54,541,cs),
(40,429,o),
(101,370,o),
(184,370,cs)
);
},
{
closed = 1;
nodes = (
(133,427,o),
(104,470,o),
(113,540,cs),
(121,610,o),
(161,656,o),
(219,656,cs),
(277,656,o),
(305,611,o),
(297,541,cs),
(288,471,o),
(249,427,o),
(191,427,cs)
);
}
);
width = 338;
},
{
guides = (
{
pos = (181,354);
}
);
layerId = m002;
shapes = (
{
closed = 1;
nodes = (
(18,232,l),
(340,231,l),
(349,307,l),
(27,308,l)
);
},
{
closed = 1;
nodes = (
(284,354,o),
(362,416,o),
(377,533,cs),
(391,650,o),
(328,712,o),
(238,712,cs),
(148,712,o),
(69,650,o),
(55,533,cs),
(40,416,o),
(104,354,o),
(194,354,c)
);
},
{
closed = 1;
nodes = (
(147,428,o),
(120,468,o),
(128,532,cs),
(135,596,o),
(173,639,o),
(229,639,cs),
(285,639,o),
(312,597,o),
(304,533,cs),
(296,469,o),
(259,428,o),
(203,428,c)
);
}
);
width = 362;
},
{
layerId = m003;
shapes = (
{
closed = 1;
nodes = (
(18,198,l),
(371,198,l),
(385,308,l),
(32,308,l)
);
},
{
closed = 1;
nodes = (
(304,349,o),
(402,405,o),
(417,530,cs),
(432,657,o),
(352,712,o),
(258,712,cs),
(170,712,o),
(69,657,o),
(54,530,cs),
(39,405,o),
(121,349,o),
(214,349,cs)
);
},
{
closed = 1;
nodes = (
(187,456,o),
(169,485,o),
(175,530,cs),
(180,575,o),
(206,605,o),
(245,605,cs),
(287,605,o),
(301,575,o),
(296,530,cs),
(290,485,o),
(269,456,o),
(227,456,c)
);
}
);
width = 403;
}
);
unicode = 186;
},
{
glyphname = zero;
lastChange = "2024-11-25 04:31:10 +0000";
layers = (
{
layerId = m01;
shapes = (
{
closed = 1;
nodes = (
(475,-13,o),
(560,171,o),
(583,354,cs),
(606,547,o),
(562,712,o),
(370,712,cs),
(177,712,o),
(90,547,o),
(67,354,cs),
(44,171,o),
(86,-13,o),
(281,-13,cs)
);
},
{
closed = 1;
nodes = (
(149,42,o),
(107,177,o),
(129,355,cs),
(151,536,o),
(225,657,o),
(364,657,cs),
(497,657,o),
(543,536,o),
(521,355,cs),
(499,177,o),
(421,42,o),
(287,42,cs)
);
},
{
closed = 1;
nodes = (
(189,68,l),
(528,635,l),
(463,635,l),
(124,68,l)
);
}
);
width = 624;
},
{
layerId = m002;
shapes = (
{
closed = 1;
nodes = (
(475,-13,o),
(566,171,o),
(589,354,cs),
(612,547,o),
(562,712,o),
(370,712,cs),
(176,712,o),
(84,547,o),
(61,354,cs),
(38,171,o),
(85,-13,o),
(281,-13,cs)
);
},
{
closed = 1;
nodes = (
(167,67,o),
(133,197,o),
(153,355,cs),
(173,516,o),
(236,632,o),
(361,632,cs),
(480,632,o),
(517,516,o),
(497,355,cs),
(477,197,o),
(411,67,o),
(291,67,cs)
);
},
{
closed = 1;
nodes = (
(209,75,l),
(534,625,l),
(444,625,l),
(119,75,l)
);
}
);
width = 624;
},
{
layerId = m003;
shapes = (
{
closed = 1;
nodes = (
(505,-13,o),
(614,161,o),
(637,354,cs),
(662,557,o),
(592,712,o),
(396,712,cs),
(197,712,o),
(89,557,o),
(64,354,cs),
(41,161,o),
(106,-13,o),
(307,-13,c)
);
},
{
closed = 1;
nodes = (
(219,117,o),
(187,213,o),
(204,355,cs),
(222,500,o),
(276,582,o),
(381,582,cs),
(480,582,o),
(515,500,o),
(497,355,cs),
(480,213,o),
(423,117,o),
(323,117,cs)
);
},
{
closed = 1;
nodes = (
(261,86,l),
(571,610,l),
(441,610,l),
(131,86,l)
);
}
);
width = 677;
}
);
unicode = 48;
},
{
glyphname = one;
lastChange = "2024-11-25 04:31:10 +0000";
layers = (
{
layerId = m01;
shapes = (
{
closed = 1;
nodes = (
(338,0,l),
(345,57,l),
(218,57,l),
(297,699,l),
(250,699,l),
(236,586,o),
(216,563,o),
(98,563,c),
(92,512,l),
(214,512,l),
(158,57,l),
(31,57,l),
(24,0,l)
);
}
);
width = 424;
},
{
layerId = m002;
shapes = (
{
closed = 1;
nodes = (
(372,0,l),
(382,80,l),
(249,80,l),
(325,699,l),
(250,699,l),
(239,606,o),
(212,592,o),
(102,592,c),
(92,512,l),
(214,512,l),
(161,80,l),
(34,80,l),
(24,0,l)
);
}
);
width = 458;
},
{
layerId = m003;
shapes = (
{
closed = 1;
nodes = (
(428,0,l),
(443,126,l),
(314,126,l),
(385,699,l),
(252,699,l),
(240,606,o),
(216,592,o),
(99,592,c),
(83,467,l),
(210,467,l),
(168,126,l),
(37,126,l),
(22,0,l)
);
}
);
width = 512;
}
);
unicode = 49;
},
{
glyphname = two;
lastChange = "2024-11-25 04:31:10 +0000";
layers = (
{
layerId = m01;
shapes = (
{
closed = 1;
nodes = (
(437,1,l),
(444,57,l),
(104,57,l),
(133,290,o),
(459,283,o),
(489,528,cs),
(504,647,o),
(422,712,o),
(307,712,cs),
(247,712,o),
(170,677,o),
(127,615,cs),
(109,589,o),
(95,555,o),
(91,519,c),
(151,519,l),
(158,576,o),
(209,656,o),
(302,656,cs),
(418,656,o),
(436,584,o),
(429,528,cs),
(406,337,o),
(69,306,o),
(40,73,cs),
(31,1,l)
);
}
);
width = 533;
},
{
layerId = m002;
shapes = (
{
closed = 1;
nodes = (
(455,1,l),
(465,81,l),
(132,81,l),
(156,277,o),
(479,284,o),
(509,528,cs),
(524,647,o),
(441,712,o),
(326,712,c),
(246,712,o),
(169,677,o),
(126,615,c),
(108,589,o),
(94,555,o),
(90,519,c),
(178,519,l),
(185,576,o),
(237,632,o),
(315,632,c),
(393,632,o),
(430,584,o),
(423,528,cs),
(399,335,o),
(70,332,o),
(39,81,cs),
(29,1,l)
);
}
);
width = 546;
},
{
layerId = m003;
shapes = (
{
closed = 1;
nodes = (
(488,1,l),
(503,127,l),
(199,127,l),
(215,253,o),
(511,276,o),
(540,518,cs),
(556,642,o),
(456,712,o),
(335,712,c),
(228,712,o),
(161,677,o),
(117,615,c),
(92,579,o),
(82,523,o),
(78,487,c),
(224,487,l),
(230,538,o),
(256,582,o),
(318,582,cs),
(370,582,o),
(389,542,o),
(385,509,cs),
(365,341,o),
(66,332,o),
(38,107,cs),
(25,1,l)
);
}
);
width = 574;
}
);
unicode = 50;
},
{
glyphname = three;
lastChange = "2024-11-25 04:31:10 +0000";
layers = (
{
layerId = m01;
shapes = (
{
closed = 1;
nodes = (
(385,-12,o),
(487,69,o),
(504,208,cs),
(518,324,o),
(461,423,o),
(314,423,c),
(534,639,l),
(541,700,l),
(130,700,l),
(123,644,l),
(461,644,l),
(233,423,l),
(227,370,l),
(277,370,ls),
(399,370,o),
(455,309,o),
(443,212,cs),
(433,128,o),
(372,44,o),
(247,44,cs),
(154,44,o),
(112,88,o),
(103,167,cs),
(101,179,o),
(101,198,o),
(102,210,c),
(42,203,l),
(40,182,o),
(40,162,o),
(43,144,cs),
(58,44,o),
(135,-12,o),
(240,-12,cs)
);
}
);
width = 568;
},
{
layerId = m002;
shapes = (
{
closed = 1;
nodes = (
(378,-12,o),
(500,71,o),
(517,210,cs),
(533,337,o),
(465,423,o),
(342,423,c),
(541,615,l),
(551,700,l),
(124,700,l),
(114,620,l),
(435,620,l),
(224,423,l),
(216,355,l),
(295,355,ls),
(395,355,o),
(436,299,o),
(425,212,cs),
(415,128,o),
(349,68,o),
(260,68,cs),
(187,68,o),
(131,94,o),
(121,173,c),
(119,185,o),
(119,198,o),
(120,210,c),
(29,203,l),
(27,182,o),
(27,162,o),
(29,144,c),
(44,43,o),
(134,-12,o),
(243,-12,cs)
);
}
);
width = 575;
},
{
layerId = m003;
shapes = (
{
closed = 1;
nodes = (
(422,-12,o),
(530,79,o),
(547,218,cs),
(562,347,o),
(488,414,o),
(397,423,c),
(558,574,l),
(574,700,l),
(128,700,l),
(112,574,l),
(401,574,l),
(236,423,l),
(223,318,l),
(299,318,ls),
(370,318,o),
(410,288,o),
(401,215,cs),
(394,153,o),
(336,118,o),
(276,118,cs),
(212,118,o),
(180,144,o),
(171,197,c),
(169,209,o),
(169,222,o),
(171,234,c),
(35,203,l),
(32,182,o),
(33,162,o),
(34,144,c),
(49,43,o),
(141,-12,o),
(264,-12,cs)
);
}
);
width = 598;
}
);
unicode = 51;
},
{
glyphname = four;
lastChange = "2024-11-25 05:34:24 +0000";
layers = (
{
layerId = m01;
shapes = (
{
closed = 1;
nodes = (
(406,1,l),
(423,140,l),
(540,140,l),
(548,200,l),
(431,200,l),
(492,701,l),
(427,701,l),
(39,205,l),
(31,140,l),
(363,140,l),
(346,1,l)
);
},
{
closed = 1;
nodes = (
(420,602,l),
(371,200,l),
(109,200,l)
);
}
);
width = 599;
},
{
layerId = m002;
shapes = (
{
closed = 1;
nodes = (
(421,1,l),
(437,131,l),
(557,131,l),
(567,212,l),
(447,212,l),
(507,701,l),
(416,701,l),
(40,212,l),
(31,132,l),
(350,132,l),
(333,1,l)
);
},
{
closed = 1;
nodes = (
(402,559,l),
(359,212,l),
(135,212,l)
);
}
);
width = 612;
},
{
layerId = m003;
shapes = (
{
closed = 1;
nodes = (
(484,1,l),
(499,121,l),
(606,121,l),
(621,248,l),
(514,248,l),
(570,701,l),
(406,701,l),
(43,238,l),
(29,121,l),
(353,121,l),
(338,1,l)
);
},
{
closed = 1;
nodes = (
(400,504,l),
(368,248,l),
(201,248,l)
);
}
);
width = 661;
}
);
unicode = 52;
},
{
glyphname = five;
lastChange = "2024-11-25 04:31:10 +0000";
layers = (
{
layerId = m01;
shapes = (
{
closed = 1;
nodes = (
(392,-12,o),
(503,77,o),
(522,234,cs),
(541,387,o),
(456,469,o),
(328,469,cs),
(271,469,o),
(203,445,o),
(179,409,c),
(239,640,l),
(517,640,l),
(524,700,l),
(197,700,l),
(111,366,l),
(184,347,l),
(211,386,o),
(257,413,o),
(309,413,cs),
(424,413,o),
(472,330,o),
(460,234,cs),
(447,126,o),
(378,44,o),
(265,44,cs),
(177,44,o),
(119,106,o),
(116,187,c),
(46,163,l),
(59,49,o),
(148,-12,o),
(257,-12,cs)
);
}
);
width = 569;
},
{
layerId = m002;
shapes = (
{
closed = 1;
nodes = (
(398,-12,o),
(521,77,o),
(540,234,cs),
(559,387,o),
(462,469,o),
(334,469,cs),
(277,469,o),
(220,448,o),
(194,417,c),
(243,620,l),
(535,620,l),
(545,700,l),
(186,700,l),
(97,343,l),
(182,322,l),
(209,361,o),
(255,388,o),
(307,388,cs),
(398,388,o),
(460,330,o),
(448,234,cs),
(435,126,o),
(363,68,o),
(274,68,cs),
(200,68,o),
(151,123,o),
(146,195,c),
(52,163,l),
(65,49,o),
(154,-12,o),
(263,-12,cs)
);
}
);
width = 597;
},
{
layerId = m003;
shapes = (
{
closed = 1;
nodes = (
(429,-12,o),
(552,86,o),
(572,243,cs),
(590,396,o),
(495,487,o),
(357,487,cs),
(306,487,o),
(257,472,o),
(243,461,c),
(278,574,l),
(557,574,l),
(573,700,l),
(184,700,l),
(83,333,l),
(208,302,l),
(226,338,o),
(266,367,o),
(318,367,cs),
(382,367,o),
(432,325,o),
(422,243,cs),
(414,178,o),
(359,118,o),
(297,118,cs),
(230,118,o),
(195,155,o),
(190,216,c),
(47,172,l),
(58,74,o),
(134,-12,o),
(284,-12,cs)
);
}
);
width = 616;
}
);
unicode = 53;
},
{
glyphname = six;
lastChange = "2024-11-25 04:31:10 +0000";
layers = (
{
layerId = m01;
shapes = (
{
closed = 1;
nodes = (
(399,-12,o),
(502,90,o),
(519,229,cs),
(536,367,o),
(457,462,o),
(331,462,cs),
(272,462,o),
(236,444,o),
(222,429,c),
(383,700,l),
(313,700,l),
(142,420,ls),
(111,370,o),
(70,308,o),
(60,226,cs),
(43,87,o),
(122,-12,o),
(265,-12,cs)
);
},
{
closed = 1;
nodes = (
(158,44,o),
(109,116,o),
(122,226,cs),
(135,330,o),
(202,406,o),
(313,406,cs),
(418,406,o),
(469,324,o),
(457,226,cs),
(443,110,o),
(374,44,o),
(273,44,cs)
);
}
);
width = 567;
},
{
layerId = m002;
shapes = (
{
closed = 1;
nodes = (
(404,-12,o),
(503,97,o),
(520,233,cs),
(536,368,o),
(458,474,o),
(322,474,cs),
(288,474,o),
(242,464,o),
(228,449,c),
(378,700,l),
(278,700,l),
(120,426,ls),
(90,376,o),
(45,288,o),
(38,231,cs),
(21,92,o),
(94,-12,o),
(248,-12,cs)
);
},
{
closed = 1;
nodes = (
(161,68,o),
(119,147,o),
(130,234,cs),
(139,309,o),
(201,393,o),
(295,393,cs),
(411,393,o),
(437,310,o),
(428,234,cs),
(417,147,o),
(364,68,o),
(259,68,cs)
);
}
);
width = 561;
},
{
layerId = m003;
shapes = (
{
closed = 1;
nodes = (
(426,-12,o),
(543,94,o),
(560,233,cs),
(577,371,o),
(506,477,o),
(365,477,cs),
(319,477,o),
(290,460,o),
(290,460,c),
(431,700,l),
(279,700,l),
(121,434,ls),
(82,367,o),
(56,298,o),
(48,233,cs),
(31,94,o),
(113,-12,o),
(275,-12,cs)
);
},
{
closed = 1;
nodes = (
(211,109,o),
(186,170,o),
(194,237,cs),
(201,291,o),
(242,356,o),
(318,356,cs),
(402,356,o),
(423,291,o),
(416,237,cs),
(408,170,o),
(371,109,o),
(291,109,cs)
);
}
);
width = 600;
}
);
unicode = 54;
},
{
glyphname = seven;
lastChange = "2024-11-25 04:31:10 +0000";
layers = (
{
layerId = m01;
shapes = (
{
closed = 1;
nodes = (
(188,1,l),
(507,646,l),
(513,700,l),
(100,700,l),
(93,644,l),
(441,644,l),
(123,1,l)
);
}
);
width = 493;
},
{
layerId = m002;
shapes = (
{
closed = 1;
nodes = (
(197,1,l),
(519,622,l),
(528,700,l),
(90,700,l),
(80,620,l),
(419,620,l),
(98,1,l)
);
}
);
width = 486;
},
{
layerId = m003;
shapes = (
{
closed = 1;
nodes = (
(231,1,l),
(531,574,l),
(547,700,l),
(90,700,l),
(74,574,l),
(393,574,l),
(88,1,l)
);
}
);
width = 502;
}
);
unicode = 55;
},
{
glyphname = eight;
lastChange = "2024-11-25 04:31:10 +0000";
layers = (
{
layerId = m01;
shapes = (
{
closed = 1;
nodes = (
(408,-12,o),
(524,64,o),
(541,203,cs),
(551,286,o),
(504,348,o),
(445,384,c),
(491,416,o),
(537,465,o),
(545,530,cs),
(560,649,o),
(479,712,o),
(358,712,cs),
(239,712,o),
(141,649,o),
(126,530,cs),
(118,465,o),
(154,415,o),
(190,384,c),
(124,348,o),
(62,286,o),
(52,203,cs),
(35,64,o),
(131,-12,o),
(270,-12,cs)
);
},
{
closed = 1;
nodes = (
(154,44,o),
(104,123,o),
(114,203,cs),
(123,278,o),
(188,350,o),
(313,350,cs),
(438,350,o),
(488,278,o),
(479,203,cs),
(469,123,o),
(403,44,o),
(278,44,cs)
);
},
{
closed = 1;
nodes = (
(216,401,o),
(180,465,o),
(188,530,cs),
(195,586,o),
(244,656,o),
(350,656,cs),
(456,656,o),
(490,586,o),
(483,530,cs),
(475,465,o),
(425,401,o),
(321,401,cs)
);
}
);
width = 605;
},
{
layerId = m002;
shapes = (
{
closed = 1;
nodes = (
(411,-12,o),
(529,64,o),
(546,203,cs),
(556,286,o),
(521,348,o),
(462,384,c),
(508,416,o),
(542,465,o),
(550,530,cs),
(565,649,o),
(484,712,o),
(355,712,cs),
(228,712,o),
(130,649,o),
(115,530,cs),
(107,465,o),
(131,415,o),
(167,384,c),
(101,348,o),
(51,286,o),
(41,203,cs),
(24,64,o),
(122,-12,o),
(267,-12,cs)
);
},
{
closed = 1;
nodes = (
(178,68,o),
(123,123,o),
(133,203,cs),
(142,278,o),
(206,340,o),
(309,340,cs),
(412,340,o),
(463,278,o),
(454,203,cs),
(444,123,o),
(379,68,o),
(278,68,cs)
);
},
{
closed = 1;
nodes = (
(233,418,o),
(195,465,o),
(203,530,cs),
(210,586,o),
(256,636,o),
(344,636,cs),
(432,636,o),
(469,586,o),
(462,530,cs),
(454,465,o),
(406,418,o),
(320,418,cs)
);
}
);
width = 600;
},
{
layerId = m003;
shapes = (
{
closed = 1;
nodes = (
(445,-12,o),
(576,74,o),
(592,203,cs),
(602,286,o),
(567,348,o),
(508,384,c),
(554,416,o),
(588,465,o),
(596,530,cs),
(609,639,o),
(529,712,o),
(381,712,cs),
(236,712,o),
(136,639,o),
(123,530,cs),
(115,465,o),
(139,415,o),
(175,384,c),
(109,348,o),
(59,286,o),
(49,203,cs),
(33,74,o),
(133,-12,o),
(293,-12,cs)
);
},
{
closed = 1;
nodes = (
(227,116,o),
(197,157,o),
(204,212,cs),
(210,260,o),
(250,306,o),
(331,306,cs),
(420,306,o),
(445,260,o),
(439,212,cs),
(432,157,o),
(397,116,o),
(310,116,cs)
);
},
{
closed = 1;
nodes = (
(300,433,o),
(264,458,o),
(271,512,cs),
(275,550,o),
(316,584,o),
(365,584,cs),
(413,584,o),
(448,550,o),
(444,512,cs),
(437,458,o),
(394,433,o),
(348,433,cs)
);
}
);
width = 653;
}
);
unicode = 56;
},
{
glyphname = nine;
lastChange = "2024-11-25 04:31:10 +0000";
layers = (
{
layerId = m01;
shapes = (
{
closed = 1;
nodes = (
(213,712,o),
(109,610,o),
(92,471,cs),
(75,333,o),
(155,238,o),
(281,238,cs),
(340,238,o),
(376,256,o),
(390,271,c),
(228,0,l),
(298,0,l),
(470,280,ls),
(501,330,o),
(541,392,o),
(552,474,cs),
(569,613,o),
(490,712,o),
(347,712,cs)
);
},
{
closed = 1;
nodes = (
(454,656,o),
(503,584,o),
(490,474,cs),
(477,370,o),
(409,294,o),
(298,294,cs),
(193,294,o),
(142,376,o),
(155,474,cs),
(169,590,o),
(238,656,o),
(339,656,cs)
);
}
);
width = 587;
},
{
layerId = m002;
shapes = (
{
closed = 1;
nodes = (
(182,712,o),
(82,603,o),
(66,467,cs),
(49,328,o),
(128,222,o),
(264,222,cs),
(298,222,o),
(343,232,o),
(357,247,c),
(207,0,l),
(307,0,l),
(465,270,ls),
(495,320,o),
(540,408,o),
(548,469,cs),
(565,608,o),
(492,712,o),
(338,712,cs)
);
},
{
closed = 1;
nodes = (
(425,632,o),
(466,553,o),
(456,466,cs),
(446,386,o),
(385,303,o),
(291,303,cs),
(175,303,o),
(148,386,o),
(158,466,cs),
(168,553,o),
(222,632,o),
(327,632,cs)
);
}
);
width = 561;
},
{
layerId = m003;
shapes = (
{
closed = 1;
nodes = (
(215,712,o),
(98,606,o),
(81,467,cs),
(64,324,o),
(135,223,o),
(276,223,cs),
(322,223,o),
(351,240,o),
(351,240,c),
(211,0,l),
(363,0,l),
(521,271,ls),
(560,338,o),
(586,407,o),
(593,467,cs),
(610,606,o),
(528,712,o),
(366,712,cs)
);
},
{
closed = 1;
nodes = (
(430,591,o),
(457,535,o),
(448,468,cs),
(442,414,o),
(400,344,o),
(324,344,cs),
(240,344,o),
(220,414,o),
(226,468,cs),
(235,535,o),
(270,591,o),
(350,591,cs)
);
}
);
width = 597;
}
);
unicode = 57;
},
{
glyphname = period;
lastChange = "2024-11-25 04:31:09 +0000";
layers = (
{
layerId = m01;
shapes = (
{
closed = 1;
nodes = (
(132,-12,o),
(157,10,o),
(160,37,cs),
(163,66,o),
(144,88,o),
(116,88,cs),
(88,88,o),
(62,66,o),
(59,37,cs),
(56,10,o),
(76,-12,o),
(104,-12,cs)
);
}
);
width = 271;
},
{
associatedMasterId = m01;
layerId = "2626C257-C8D1-4BEC-A76B-04061BD798F2";
name = foreground;
width = 309;
},
{
layerId = m002;
shapes = (
{
closed = 1;
nodes = (
(149,-12,o),
(182,18,o),
(186,53,cs),
(190,89,o),
(165,119,o),
(130,119,cs),
(94,119,o),
(60,89,o),
(56,53,cs),
(52,18,o),
(78,-12,o),
(114,-12,cs)
);
}
);
width = 290;
},
{
layerId = m003;
shapes = (
{
closed = 1;
nodes = (
(185,-16,o),
(231,24,o),
(237,74,cs),
(243,122,o),
(207,161,o),
(159,161,cs),
(110,161,o),
(64,122,o),
(58,74,cs),
(52,24,o),
(88,-16,o),
(137,-16,cs)
);
}
);
width = 339;
}
);
unicode = 46;
},
{
glyphname = comma;
lastChange = "2024-11-25 04:31:09 +0000";
layers = (
{
layerId = m01;
shapes = (
{
closed = 1;
nodes = (
(95,-92,o),
(138,-35,o),
(146,27,cs),
(150,62,o),
(136,88,o),
(99,88,cs),
(70,88,o),
(48,63,o),
(45,38,cs),
(42,14,o),
(60,-7,o),
(85,-7,cs),
(86,-7,o),
(90,-7,o),
(91,-7,c),
(85,-58,o),
(32,-69,o),
(32,-69,c),
(32,-69,o),
(28,-92,o),
(29,-92,cs)
);
}
);
width = 244;
},
{
associatedMasterId = m01;
layerId = "7090993E-1050-418C-BDF4-9BE23E3E6164";
name = foreground;
shapes = (
{
closed = 1;
nodes = (
(132,0,o),
(136,0,o),
(139,1,c),
(139,-76,o),
(60,-92,o),
(60,-92,c),
(60,-92,o),
(59,-131,o),
(60,-131,cs),
(171,-131,o),
(214,-21,o),
(214,50,c),
(214,94,o),
(190,142,o),
(131,142,cs),
(91,142,o),
(60,105,o),
(60,67,cs),
(60,32,o),
(92,0,o),
(129,0,cs)
);
}
);
width = 274;
},
{
layerId = m002;
shapes = (
{
closed = 1;
nodes = (
(103,-119,o),
(150,-26,o),
(159,38,c),
(164,76,o),
(150,119,o),
(96,119,cs),
(59,119,o),
(30,86,o),
(26,53,cs),
(22,21,o),
(47,-7,o),
(78,-7,cs),
(80,-7,o),
(84,-7,o),
(88,-6,c),
(79,-74,o),
(8,-89,o),
(8,-89,c),
(8,-89,o),
(4,-119,o),
(5,-119,cs)
);
}
);
width = 235;
},
{
layerId = m003;
shapes = (
{
closed = 1;
nodes = (
(133,-144,o),
(195,-21,o),
(205,58,cs),
(211,106,o),
(191,160,o),
(126,160,cs),
(77,160,o),
(41,118,o),
(36,76,cs),
(31,37,o),
(60,2,o),
(104,2,cs),
(108,2,o),
(113,2,o),
(116,3,c),
(106,-83,o),
(14,-101,o),
(14,-101,c),
(14,-101,o),
(8,-144,o),
(9,-144,cs)
);
}
);
width = 293;
}
);
unicode = 44;
},
{
glyphname = colon;
lastChange = "2024-11-25 04:31:09 +0000";
layers = (
{
layerId = m01;
shapes = (
{
closed = 1;
nodes = (
(151,-12,o),
(176,10,o),
(179,37,cs),
(182,66,o),
(163,88,o),
(135,88,cs),
(107,88,o),
(81,66,o),
(78,37,cs),
(75,10,o),
(95,-12,o),
(123,-12,cs)
);
},
{
closed = 1;
nodes = (
(196,354,o),
(220,376,o),
(224,403,cs),
(227,432,o),
(208,454,o),
(180,454,cs),
(152,454,o),
(126,432,o),
(123,403,cs),
(119,376,o),
(140,354,o),
(168,354,cs)
);
}
);
width = 309;
},
{
associatedMasterId = m01;
layerId = "1129757A-F034-4623-96F5-2C126444C93D";
name = foreground;
shapes = (
{
closed = 1;
nodes = (
(196,-12,o),
(229,23,o),
(229,62,cs),
(229,104,o),
(196,139,o),
(156,139,cs),
(115,139,o),
(80,104,o),
(80,62,cs),
(80,23,o),
(115,-12,o),
(156,-12,cs)
);
},
{
closed = 1;
nodes = (
(196,289,o),
(229,324,o),
(229,363,cs),
(229,405,o),
(196,440,o),
(156,440,cs),
(115,440,o),
(80,405,o),
(80,363,cs),
(80,324,o),
(115,289,o),
(156,289,cs)
);
}
);
width = 309;
},
{
layerId = m002;
shapes = (
{
closed = 1;
nodes = (
(159,-12,o),
(192,18,o),
(196,53,cs),
(200,89,o),
(175,119,o),
(140,119,cs),
(104,119,o),
(70,89,o),
(66,53,cs),
(62,18,o),
(88,-12,o),
(124,-12,cs)
);
},
{
closed = 1;
nodes = (
(203,349,o),
(236,379,o),
(240,414,cs),
(245,450,o),
(219,480,o),
(184,480,cs),
(148,480,o),
(115,450,o),
(110,414,cs),
(106,379,o),
(132,349,o),
(168,349,cs)
);
}
);
width = 310;
},
{
layerId = m003;
shapes = (
{
closed = 1;
nodes = (
(181,-12,o),
(225,27,o),
(231,75,cs),
(237,122,o),
(202,160,o),
(155,160,cs),
(107,160,o),
(64,122,o),
(58,75,cs),
(52,27,o),
(86,-12,o),
(134,-12,cs)
);
},
{
closed = 1;
nodes = (
(223,329,o),
(267,368,o),
(273,416,cs),
(279,463,o),
(244,501,o),
(197,501,cs),
(149,501,o),
(106,463,o),
(100,416,cs),
(94,368,o),
(128,329,o),
(176,329,cs)
);
}
);
width = 333;
}
);
unicode = 58;
},
{
glyphname = semicolon;
lastChange = "2024-11-25 04:31:09 +0000";
layers = (
{
layerId = m01;
shapes = (
{
closed = 1;
nodes = (
(108,-92,o),
(151,-35,o),
(159,27,cs),
(163,62,o),
(149,88,o),
(112,88,cs),
(83,88,o),
(61,63,o),
(58,38,cs),
(55,14,o),
(73,-7,o),
(98,-7,cs),
(99,-7,o),
(103,-7,o),
(104,-7,c),
(98,-58,o),
(45,-69,o),
(45,-69,c),
(45,-69,o),
(41,-92,o),
(42,-92,cs)
);
},
{
closed = 1;
nodes = (
(177,354,o),
(201,376,o),
(205,403,cs),
(208,432,o),
(189,454,o),
(161,454,cs),
(133,454,o),
(107,432,o),
(104,403,cs),
(100,376,o),
(121,354,o),
(149,354,cs)
);
}
);
width = 270;
},
{
associatedMasterId = m01;
layerId = "7C7B3130-D28B-462C-85A7-59917ACED75E";
name = foreground;
shapes = (
{
closed = 1;
nodes = (
(180,289,o),
(213,324,o),
(213,363,cs),
(213,405,o),
(180,440,o),
(140,440,cs),
(99,440,o),
(64,405,o),
(64,363,cs),
(64,324,o),
(99,289,o),
(140,289,cs)
);
},
{
closed = 1;
nodes = (
(132,0,o),
(136,0,o),
(139,1,c),
(139,-76,o),
(60,-92,o),
(60,-92,c),
(60,-92,o),
(59,-131,o),
(60,-131,cs),
(171,-131,o),
(214,-21,o),
(214,50,c),
(214,94,o),
(190,142,o),
(131,142,cs),
(91,142,o),
(60,105,o),
(60,67,cs),
(60,32,o),
(92,0,o),
(129,0,cs)
);
}
);
width = 274;
},
{
layerId = m002;
shapes = (
{
closed = 1;
nodes = (
(126,-119,o),
(173,-26,o),
(182,38,c),
(187,76,o),
(173,119,o),
(119,119,cs),
(82,119,o),
(53,86,o),
(49,53,cs),
(45,21,o),
(70,-7,o),
(101,-7,cs),
(103,-7,o),
(107,-7,o),
(111,-6,c),
(102,-74,o),
(31,-89,o),
(31,-89,c),
(31,-89,o),
(27,-119,o),
(28,-119,cs)
);
},
{
closed = 1;
nodes = (
(189,349,o),
(222,379,o),
(226,414,cs),
(231,450,o),
(205,480,o),
(170,480,cs),
(134,480,o),
(101,450,o),
(96,414,cs),
(92,379,o),
(118,349,o),
(154,349,cs)
);
}
);
width = 265;
},
{
layerId = m003;
shapes = (
{
closed = 1;
nodes = (
(156,-144,o),
(218,-21,o),
(228,58,cs),
(234,106,o),
(214,160,o),
(149,160,cs),
(100,160,o),
(64,118,o),
(59,76,cs),
(54,37,o),
(83,2,o),
(127,2,cs),
(131,2,o),
(136,2,o),
(139,3,c),
(129,-83,o),
(37,-101,o),
(37,-101,c),
(37,-101,o),
(31,-144,o),
(32,-144,cs)
);
},
{
closed = 1;
nodes = (
(223,329,o),
(267,368,o),
(273,416,cs),
(279,463,o),
(244,501,o),
(197,501,cs),
(149,501,o),
(106,463,o),
(100,416,cs),
(94,368,o),
(128,329,o),
(176,329,cs)
);
}
);
width = 333;
}
);
unicode = 59;
},
{
glyphname = exclam;
lastChange = "2024-11-25 04:31:09 +0000";
layers = (
{
layerId = m01;
shapes = (
{
closed = 1;
nodes = (
(167,162,l),
(247,700,l),
(172,700,l),
(123,162,l)
);
},
{
closed = 1;
nodes = (
(149,-12,o),
(174,10,o),
(177,36,cs),
(180,64,o),
(161,85,o),
(134,85,cs),
(107,85,o),
(82,64,o),
(79,36,cs),
(76,10,o),
(95,-12,o),
(122,-12,cs)
);
}
);
width = 308;
},
{
associatedMasterId = m01;
layerId = "A93029F6-5A44-47E5-8EBB-60AEDDECB850";
name = foreground;
shapes = (
{
closed = 1;
nodes = (
(205,215,l),
(218,720,l),
(89,720,l),
(105,215,l)
);
},
{
closed = 1;
nodes = (
(196,-12,o),
(229,23,o),
(229,62,cs),
(229,104,o),
(196,139,o),
(156,139,cs),
(115,139,o),
(80,104,o),
(80,62,cs),
(80,23,o),
(115,-12,o),
(156,-12,cs)
);
}
);
width = 309;
},
{
layerId = m002;
shapes = (
{
closed = 1;
nodes = (
(187,215,l),
(259,700,l),
(152,700,l),
(109,215,l)
);
},
{
closed = 1;
nodes = (
(153,-12,o),
(184,17,o),
(189,51,cs),
(193,86,o),
(168,115,o),
(134,115,cs),
(99,115,o),
(67,86,o),
(63,51,cs),
(58,17,o),
(84,-12,o),
(119,-12,cs)
);
}
);
width = 300;
},
{
layerId = m003;
shapes = (
{
closed = 1;
nodes = (
(239,231,l),
(311,700,l),
(160,700,l),
(117,231,l)
);
},
{
closed = 1;
nodes = (
(195,-12,o),
(239,27,o),
(245,75,cs),
(251,122,o),
(216,160,o),
(169,160,cs),
(121,160,o),
(78,122,o),
(72,75,cs),
(66,27,o),
(100,-12,o),
(148,-12,cs)
);
}
);
width = 361;
}
);
unicode = 33;
},
{
glyphname = exclamdown;
lastChange = "2024-11-25 04:31:09 +0000";
layers = (
{
layerId = m01;
shapes = (
{
closed = 1;
nodes = (
(62,-200,l),
(137,-200,l),
(189,338,l),
(145,338,l)
);
},
{
closed = 1;
nodes = (
(159,512,o),
(134,490,o),
(131,464,cs),
(128,436,o),
(147,415,o),
(174,415,cs),
(201,415,o),
(226,436,o),
(229,464,cs),
(232,490,o),
(213,512,o),
(186,512,cs)
);
}
);
width = 308;
},
{
layerId = m002;
shapes = (
{
closed = 1;
nodes = (
(45,-200,l),
(152,-200,l),
(198,285,l),
(120,285,l)
);
},
{
closed = 1;
nodes = (
(151,512,o),
(119,483,o),
(114,449,cs),
(110,414,o),
(136,385,o),
(171,385,cs),
(205,385,o),
(236,414,o),
(240,449,cs),
(245,483,o),
(220,512,o),
(186,512,cs)
);
}
);
width = 306;
},
{
layerId = m003;
shapes = (
{
closed = 1;
nodes = (
(50,-192,l),
(201,-192,l),
(245,277,l),
(123,277,l)
);
},
{
closed = 1;
nodes = (
(166,520,o),
(122,481,o),
(116,433,cs),
(110,386,o),
(145,348,o),
(193,348,cs),
(240,348,o),
(283,386,o),
(289,433,cs),
(295,481,o),
(261,520,o),
(214,520,cs)
);
}
);
width = 361;
}
);
unicode = 161;
},
{
glyphname = question;
lastChange = "2024-11-25 04:31:09 +0000";
layers = (
{
hints = (
{
horizontal = 1;
origin = (0,16);
target = (0,6);
type = Stem;
},
{
horizontal = 1;
place = (-43,231);
target = (0,22);
type = Stem;
},
{
origin = (0,12);
target = (0,13);
type = Stem;
},
{
origin = (0,22);
target = (0,1);
type = Stem;
},
{
origin = (0,19);
target = (0,3);
type = Stem;
},
{
origin = (0,22);
target = (0,1);
type = Stem;
}
);
layerId = m01;
shapes = (
{
closed = 1;
nodes = (
(252,188,l),
(277,392,o),
(462,332,o),
(487,537,cs),
(501,649,o),
(424,719,o),
(311,719,cs),
(238,719,o),
(170,685,o),
(127,623,c),
(109,597,o),
(96,566,o),
(91,530,c),
(153,530,l),
(163,611,o),
(232,663,o),
(303,663,cs),
(379,663,o),
(435,616,o),
(425,536,cs),
(405,372,o),
(220,426,o),
(190,188,c)
);
},
{
closed = 1;
nodes = (
(224,-12,o),
(249,10,o),
(252,36,cs),
(255,64,o),
(236,85,o),
(209,85,cs),
(182,85,o),
(157,64,o),
(154,36,cs),
(151,10,o),
(170,-12,o),
(197,-12,cs)
);
}
);
width = 502;
},
{
associatedMasterId = m01;
layerId = "CB6FE323-AA22-456B-834C-E280C3EC3E3D";
name = foreground;
shapes = (
{
closed = 1;
nodes = (
(312,380,o),
(500,311,o),
(500,530,cs),
(500,649,o),
(404,719,o),
(289,719,c),
(209,719,o),
(137,685,o),
(101,623,c),
(86,597,o),
(77,566,o),
(77,530,c),
(174,530,l),
(174,587,o),
(210,636,o),
(288,636,c),
(366,636,o),
(405,592,o),
(405,536,cs),
(405,372,o),
(208,437,o),
(208,216,cs),
(208,216,o),
(312,216,o),
(312,216,c)
);
},
{
closed = 1;
nodes = (
(308,-12,o),
(341,23,o),
(341,62,cs),
(341,104,o),
(308,139,o),
(268,139,cs),
(227,139,o),
(192,104,o),
(192,62,cs),
(192,23,o),
(227,-12,o),
(268,-12,cs)
);
}
);
width = 587;
},
{
layerId = m002;
shapes = (
{
closed = 1;
nodes = (
(274,200,l),
(295,371,o),
(472,322,o),
(498,536,cs),
(511,645,o),
(429,719,o),
(314,719,cs),
(238,719,o),
(161,685,o),
(118,623,c),
(100,597,o),
(87,566,o),
(82,530,c),
(164,530,l),
(171,587,o),
(229,639,o),
(303,639,cs),
(381,639,o),
(415,592,o),
(408,536,cs),
(388,372,o),
(209,421,o),
(182,200,c)
);
},
{
closed = 1;
nodes = (
(233,-12,o),
(264,17,o),
(269,51,cs),
(273,86,o),
(248,115,o),
(214,115,cs),
(179,115,o),
(147,86,o),
(143,51,cs),
(138,17,o),
(164,-12,o),
(199,-12,cs)
);
}
);
width = 511;
},
{
layerId = m003;
shapes = (
{
closed = 1;
nodes = (
(311,209,l),
(330,356,o),
(497,325,o),
(522,531,cs),
(537,650,o),
(455,720,o),
(323,720,cs),
(226,720,o),
(155,686,o),
(111,624,cs),
(93,598,o),
(78,544,o),
(73,508,c),
(225,508,l),
(231,555,o),
(252,590,o),
(306,590,cs),
(353,590,o),
(372,560,o),
(368,527,cs),
(350,383,o),
(186,427,o),
(159,209,c)
);
},
{
closed = 1;
nodes = (
(257,-16,o),
(301,23,o),
(307,71,cs),
(312,118,o),
(278,156,o),
(231,156,cs),
(183,156,o),
(139,118,o),
(134,71,cs),
(128,23,o),
(162,-16,o),
(210,-16,cs)
);
}
);
width = 528;
}
);
unicode = 63;
},
{
glyphname = questiondown;
lastChange = "2024-11-25 05:34:04 +0000";
layers = (
{
layerId = m01;
shapes = (
{
closed = 1;
nodes = (
(271,-219,o),
(339,-185,o),
(382,-123,c),
(400,-97,o),
(413,-66,o),
(418,-30,c),
(356,-30,l),
(346,-111,o),
(277,-163,o),
(206,-163,cs),
(130,-163,o),
(74,-116,o),
(84,-36,cs),
(104,128,o),
(289,74,o),
(319,312,c),
(257,312,l),
(232,108,o),
(47,168,o),
(22,-37,cs),
(8,-149,o),
(85,-219,o),
(198,-219,cs)
);
},
{
closed = 1;
nodes = (
(327,415,o),
(352,436,o),
(355,464,cs),
(358,490,o),
(339,512,o),
(312,512,cs),
(285,512,o),
(260,490,o),
(257,464,cs),
(254,436,o),
(273,415,o),
(300,415,cs)
);
}
);
width = 495;
},
{
layerId = m002;
shapes = (
{
closed = 1;
nodes = (
(273,-219,o),
(350,-185,o),
(393,-123,c),
(411,-97,o),
(424,-66,o),
(429,-30,c),
(347,-30,l),
(340,-87,o),
(282,-139,o),
(208,-139,cs),
(130,-139,o),
(96,-92,o),
(103,-36,cs),
(123,128,o),
(302,79,o),
(329,300,c),
(237,300,l),
(216,129,o),
(39,178,o),
(13,-36,cs),
(0,-145,o),
(82,-219,o),
(197,-219,cs)
);
},
{
closed = 1;
nodes = (
(332,385,o),
(364,414,o),
(368,449,cs),
(373,483,o),
(347,512,o),
(312,512,cs),
(278,512,o),
(247,483,o),
(242,449,cs),
(238,414,o),
(263,385,o),
(297,385,cs)
);
}
);
width = 511;
},
{
layerId = m003;
shapes = (
{
closed = 1;
nodes = (
(303,-216,o),
(374,-182,o),
(418,-120,cs),
(436,-94,o),
(452,-40,o),
(456,-4,c),
(304,-4,l),
(299,-51,o),
(277,-86,o),
(223,-86,cs),
(176,-86,o),
(158,-56,o),
(162,-23,cs),
(180,121,o),
(343,77,o),
(370,295,c),
(218,295,l),
(200,148,o),
(33,179,o),
(7,-27,cs),
(-7,-146,o),
(74,-216,o),
(206,-216,cs)
);
},
{
closed = 1;
nodes = (
(347,348,o),
(390,386,o),
(396,433,cs),
(402,481,o),
(368,520,o),
(320,520,cs),
(273,520,o),
(229,481,o),
(223,433,cs),
(217,386,o),
(252,348,o),
(299,348,cs)
);
}
);
width = 528;
}
);
unicode = 191;
},
{
glyphname = periodcentered;
lastChange = "2024-11-25 04:31:09 +0000";
layers = (
{
layerId = m01;
shapes = (
{
closed = 1;
nodes = (
(164,255,o),
(188,277,o),
(192,304,cs),
(195,333,o),
(176,355,o),
(148,355,cs),
(120,355,o),
(94,333,o),
(91,304,cs),
(87,277,o),
(108,255,o),
(136,255,cs)
);
}
);
width = 269;
},
{
layerId = m002;
shapes = (
{
closed = 1;
nodes = (
(188,239,o),
(220,268,o),
(225,304,cs),
(229,340,o),
(204,369,o),
(168,369,cs),
(132,369,o),
(99,340,o),
(95,304,cs),
(90,268,o),
(116,239,o),
(152,239,cs)
);
}
);
width = 306;
},
{
layerId = m003;
shapes = (
{
closed = 1;
nodes = (
(210,217,o),
(256,257,o),
(263,307,cs),
(268,355,o),
(232,394,o),
(184,394,cs),
(135,394,o),
(89,355,o),
(84,307,cs),
(77,257,o),
(113,217,o),
(162,217,cs)
);
}
);
width = 333;
}
);
unicode = 183;
},
{
glyphname = bullet;
lastChange = "2024-11-25 04:31:09 +0000";
layers = (
{
layerId = m01;
shapes = (
{
closed = 1;
nodes = (
(172,247,o),
(202,275,o),
(206,306,cs),
(210,339,o),
(186,367,o),
(155,367,cs),
(122,367,o),
(91,339,o),
(87,306,cs),
(83,275,o),
(108,247,o),
(141,247,cs)
);
}
);
width = 279;
},
{
layerId = m002;
shapes = (
{
closed = 1;
nodes = (
(213,223,o),
(255,262,o),
(261,307,cs),
(267,354,o),
(234,393,o),
(189,393,cs),
(142,393,o),
(98,354,o),
(92,307,cs),
(86,262,o),
(121,223,o),
(168,223,cs)
);
}
);
width = 339;
},
{
layerId = m003;
shapes = (
{
closed = 1;
nodes = (
(233,197,o),
(289,247,o),
(297,309,cs),
(304,370,o),
(260,419,o),
(199,419,cs),
(137,419,o),
(81,370,o),
(74,309,cs),
(66,247,o),
(110,197,o),
(172,197,cs)
);
}
);
width = 357;
}
);
unicode = 8226;
},
{
glyphname = asterisk;
lastChange = "2024-11-25 04:31:09 +0000";
layers = (
{
layerId = m01;
shapes = (
{
closed = 1;
nodes = (
(289,489,l),
(247,489,l),
(356,339,l),
(404,374,l),
(290,533,l),
(280,488,l),
(458,567,l),
(442,616,l),
(269,540,l),
(301,522,l),
(325,712,l),
(269,712,l),
(245,519,l),
(282,536,l),
(126,613,l),
(99,567,l),
(257,488,l),
(258,533,l),
(104,374,l),
(143,339,l)
);
}
);
width = 479;
},
{
associatedMasterId = m01;
layerId = "52A87255-65B2-4E80-95F9-0AF50A018D84";
name = foreground;
shapes = (
{
closed = 1;
nodes = (
(146,321,l),
(246,438,l),
(344,320,l),
(407,374,l),
(310,489,l),
(436,553,l),
(400,624,l),
(287,568,l),
(287,714,l),
(204,714,l),
(204,568,l),
(92,624,l),
(55,553,l),
(180,490,l),
(83,374,l)
);
}
);
width = 491;
},
{
layerId = m002;
shapes = (
{
closed = 1;
nodes = (
(302,489,l),
(244,489,l),
(360,330,l),
(417,374,l),
(303,533,l),
(284,480,l),
(469,562,l),
(449,624,l),
(275,548,l),
(312,522,l),
(336,712,l),
(268,712,l),
(244,519,l),
(288,545,l),
(132,622,l),
(96,561,l),
(260,480,l),
(255,533,l),
(101,374,l),
(148,330,l)
);
}
);
width = 489;
},
{
layerId = m003;
shapes = (
{
closed = 1;
nodes = (
(336,489,l),
(236,489,l),
(368,310,l),
(452,374,l),
(337,533,l),
(295,459,l),
(498,551,l),
(466,646,l),
(291,570,l),
(348,522,l),
(371,712,l),
(261,712,l),
(238,519,l),
(305,568,l),
(143,646,l),
(86,548,l),
(271,456,l),
(248,533,l),
(95,374,l),
(166,311,l)
);
}
);
width = 512;
}
);
unicode = 42;
},
{
glyphname = numbersign;
lastChange = "2024-11-25 04:31:09 +0000";
layers = (
{
hints = (
{
horizontal = 1;
origin = (1,3);
target = (1,2);
type = Stem;
},
{
horizontal = 1;
origin = (3,3);
target = (3,2);
type = Stem;
},
{
origin = (1,3);
target = (3,0);
type = Stem;
}
);
layerId = m01;
shapes = (
{
closed = 1;
nodes = (
(431,0,l),
(693,720,l),
(631,720,l),
(369,0,l)
);
},
{
closed = 1;
nodes = (
(641,183,l),
(647,239,l),
(73,239,l),
(67,183,l)
);
},
{
closed = 1;
nodes = (
(194,0,l),
(456,720,l),
(394,720,l),
(132,0,l)
);
},
{
closed = 1;
nodes = (
(741,482,l),
(748,538,l),
(174,538,l),
(167,482,l)
);
}
);
width = 787;
},
{
associatedMasterId = m01;
layerId = "21C28542-C2BA-4EFE-9B17-DE8F14164D30";
name = foreground;
shapes = (
{
closed = 1;
nodes = (
(227,0,l),
(400,720,l),
(306,720,l),
(133,0,l)
);
},
{
closed = 1;
nodes = (
(462,0,l),
(635,720,l),
(541,720,l),
(368,0,l)
);
},
{
closed = 1;
nodes = (
(707,425,l),
(707,523,l),
(133,523,l),
(133,425,l)
);
},
{
closed = 1;
nodes = (
(644,199,l),
(644,297,l),
(70,297,l),
(70,199,l)
);
}
);
width = 777;
},
{
layerId = m002;
shapes = (
{
closed = 1;
nodes = (
(429,0,l),
(691,720,l),
(618,720,l),
(356,0,l)
);
},
{
closed = 1;
nodes = (
(638,187,l),
(648,267,l),
(74,267,l),
(64,187,l)
);
},
{
closed = 1;
nodes = (
(201,0,l),
(463,720,l),
(390,720,l),
(128,0,l)
);
},
{
closed = 1;
nodes = (
(735,457,l),
(745,537,l),
(171,537,l),
(161,457,l)
);
}
);
width = 782;
},
{
layerId = m003;
shapes = (
{
closed = 1;
nodes = (
(478,0,l),
(739,720,l),
(605,720,l),
(344,0,l)
);
},
{
closed = 1;
nodes = (
(675,152,l),
(691,278,l),
(68,278,l),
(52,152,l)
);
},
{
closed = 1;
nodes = (
(226,0,l),
(487,720,l),
(353,720,l),
(92,0,l)
);
},
{
closed = 1;
nodes = (
(755,416,l),
(770,542,l),
(153,542,l),
(138,416,l)
);
}
);
width = 800;
}
);
unicode = 35;
},
{
glyphname = slash;
lastChange = "2024-11-25 04:31:09 +0000";
layers = (
{
guides = (
{
pos = (208,-160);
},
{
pos = (177,775);
}
);
layerId = m01;
shapes = (
{
closed = 1;
nodes = (
(32,-160,l),
(494,775,l),
(429,775,l),
(-33,-160,l)
);
}
);
width = 438;
},
{
associatedMasterId = m01;
layerId = "B6C497E8-57DB-4813-80B4-1FC1C004D65A";
name = foreground;
shapes = (
{
closed = 1;
nodes = (
(97,0,l),
(390,720,l),
(303,720,l),
(10,0,l)
);
}
);
width = 385;
},
{
guides = (
{
pos = (-230,-160);
},
{
pos = (-230,776);
}
);
layerId = m002;
shapes = (
{
closed = 1;
nodes = (
(56,-160,l),
(524,776,l),
(434,776,l),
(-34,-160,l)
);
}
);
width = 460;
},
{
guides = (
{
pos = (-242,-159);
},
{
pos = (6,775);
}
);
layerId = m003;
shapes = (
{
closed = 1;
nodes = (
(97,-161,l),
(566,775,l),
(426,775,l),
(-43,-161,l)
);
}
);
width = 482;
}
);
unicode = 47;
},
{
glyphname = backslash;
lastChange = "2024-11-25 04:31:09 +0000";
layers = (
{
layerId = m01;
shapes = (
{
closed = 1;
nodes = (
(371,-160,l),
(137,775,l),
(72,775,l),
(306,-160,l)
);
}
);
width = 438;
},
{
associatedMasterId = m01;
layerId = "343D6EAE-1DF2-4E0E-B6B5-032545DCA862";
name = foreground;
shapes = (
{
closed = 1;
nodes = (
(82,720,l),
(-5,720,l),
(288,0,l),
(375,0,l)
);
}
);
width = 385;
},
{
layerId = m002;
shapes = (
{
closed = 1;
nodes = (
(394,-160,l),
(156,776,l),
(66,776,l),
(304,-160,l)
);
}
);
width = 460;
},
{
guides = (
{
pos = (-270,-159);
},
{
pos = (-22,775);
}
);
layerId = m003;
shapes = (
{
closed = 1;
nodes = (
(423,-161,l),
(184,775,l),
(44,775,l),
(283,-161,l)
);
}
);
width = 482;
}
);
unicode = 92;
},
{
glyphname = periodcentered.loclCAT;
lastChange = "2024-11-25 04:31:09 +0000";
layers = (
{
layerId = m01;
shapes = (
{
closed = 1;
nodes = (
(158,257,o),
(182,279,o),
(185,303,cs),
(188,329,o),
(169,351,o),
(145,351,cs),
(119,351,o),
(95,329,o),
(92,303,cs),
(89,279,o),
(108,257,o),
(134,257,cs)
);
}
);
width = 263;
},
{
layerId = m002;
shapes = (
{
closed = 1;
nodes = (
(178,239,o),
(210,269,o),
(215,304,cs),
(219,340,o),
(194,370,o),
(159,370,cs),
(123,370,o),
(89,340,o),
(85,304,cs),
(80,269,o),
(107,239,o),
(143,239,cs)
);
}
);
width = 286;
},
{
layerId = m003;
shapes = (
{
closed = 1;
nodes = (
(210,217,o),
(256,257,o),
(263,307,cs),
(268,355,o),
(232,394,o),
(184,394,cs),
(135,394,o),
(89,355,o),
(84,307,cs),
(77,257,o),
(113,217,o),
(162,217,cs)
);
}
);
width = 333;
}
);
},
{
glyphname = periodcentered.loclCAT.case;
lastChange = "2024-11-25 04:31:09 +0000";
layers = (
{
layerId = m01;
shapes = (
{
closed = 1;
nodes = (
(158,257,o),
(182,279,o),
(185,303,cs),
(188,329,o),
(169,351,o),
(145,351,cs),
(119,351,o),
(95,329,o),
(92,303,cs),
(89,279,o),
(108,257,o),
(134,257,cs)
);
}
);
width = 263;
},
{
layerId = m002;
shapes = (
{
closed = 1;
nodes = (
(185,239,o),
(217,269,o),
(222,304,cs),
(226,340,o),
(201,370,o),
(166,370,cs),
(130,370,o),
(96,340,o),
(92,304,cs),
(87,269,o),
(114,239,o),
(150,239,cs)
);
}
);
width = 300;
},
{
layerId = m003;
shapes = (
{
closed = 1;
nodes = (
(210,217,o),
(256,257,o),
(263,307,cs),
(268,355,o),
(232,394,o),
(184,394,cs),
(135,394,o),
(89,355,o),
(84,307,cs),
(77,257,o),
(113,217,o),
(162,217,cs)
);
}
);
width = 333;
}
);
},
{
glyphname = hyphen;
lastChange = "2024-11-25 04:31:09 +0000";
layers = (
{
guides = (
{
pos = (259,296);
}
);
hints = (
{
horizontal = 1;
origin = (0,3);
target = (0,2);
type = Stem;
},
{
origin = (0,3);
target = (0,0);
type = Stem;
}
);
layerId = m01;
shapes = (
{
closed = 1;
nodes = (
(420,268,l),
(427,324,l),
(79,324,l),
(72,268,l)
);
}
);
width = 488;
},
{
associatedMasterId = m01;
layerId = "A4E3A6E5-E339-49A3-BA7C-5350A83F40F5";
name = foreground;
shapes = (
{
closed = 1;
nodes = (
(428,247,l),
(428,345,l),
(80,345,l),
(80,247,l)
);
}
);
width = 508;
},
{
guides = (
{
pos = (251,295);
}
);
layerId = m002;
shapes = (
{
closed = 1;
nodes = (
(418,253,l),
(429,337,l),
(81,337,l),
(70,253,l)
);
}
);
width = 488;
},
{
guides = (
{
pos = (251,295);
}
);
layerId = m003;
shapes = (
{
closed = 1;
nodes = (
(458,230,l),
(474,358,l),
(78,358,l),
(62,230,l)
);
}
);
width = 526;
}
);
unicode = 45;
},
{
glyphname = endash;
lastChange = "2024-11-25 04:31:09 +0000";
layers = (
{
layerId = m01;
shapes = (
{
closed = 1;
nodes = (
(486,270,l),
(493,322,l),
(79,322,l),
(72,270,l)
);
}
);
width = 554;
},
{
layerId = m002;
shapes = (
{
closed = 1;
nodes = (
(484,256,l),
(493,334,l),
(80,334,l),
(71,256,l)
);
}
);
width = 553;
},
{
layerId = m003;
shapes = (
{
closed = 1;
nodes = (
(515,236,l),
(529,352,l),
(77,352,l),
(63,236,l)
);
}
);
width = 582;
}
);
unicode = 8211;
},
{
glyphname = emdash;
lastChange = "2024-11-25 04:31:09 +0000";
layers = (
{
layerId = m01;
shapes = (
{
closed = 1;
nodes = (
(816,270,l),
(823,322,l),
(79,322,l),
(72,270,l)
);
}
);
width = 884;
},
{
layerId = m002;
shapes = (
{
closed = 1;
nodes = (
(816,254,l),
(826,332,l),
(81,332,l),
(71,254,l)
);
}
);
width = 886;
},
{
layerId = m003;
shapes = (
{
closed = 1;
nodes = (
(851,236,l),
(865,352,l),
(77,352,l),
(63,236,l)
);
}
);
width = 918;
}
);
unicode = 8212;
},
{
glyphname = underscore;
lastChange = "2024-11-25 04:31:09 +0000";
layers = (
{
hints = (
{
horizontal = 1;
origin = (0,3);
target = (0,2);
type = Stem;
},
{
origin = (0,3);
target = (0,0);
type = Stem;
}
);
layerId = m01;
shapes = (
{
closed = 1;
nodes = (
(425,0,l),
(432,52,l),
(-27,52,l),
(-34,0,l)
);
}
);
width = 453;
},
{
associatedMasterId = m01;
layerId = "1AB4D43C-2735-4A3F-815D-32BCD16357D5";
name = foreground;
shapes = (
{
closed = 1;
nodes = (
(546,0,l),
(546,98,l),
(60,98,l),
(60,0,l)
);
}
);
width = 606;
},
{
layerId = m002;
shapes = (
{
closed = 1;
nodes = (
(452,0,l),
(462,78,l),
(-24,78,l),
(-34,0,l)
);
}
);
width = 480;
},
{
layerId = m003;
shapes = (
{
closed = 1;
nodes = (
(501,0,l),
(515,116,l),
(-20,116,l),
(-34,0,l)
);
}
);
width = 529;
}
);
unicode = 95;
},
{
glyphname = parenleft;
lastChange = "2024-11-25 05:33:53 +0000";
layers = (
{
guides = (
{
pos = (183,-160);
},
{
pos = (152,775);
}
);
layerId = m01;
shapes = (
{
closed = 1;
nodes = (
(214,-160,l),
(217,-158,o),
(104,4,o),
(141,308,c),
(178,610,o),
(331,773,o),
(328,775,c),
(266,775,l),
(267,775,o),
(110,579,o),
(77,308,c),
(44,35,o),
(153,-160,o),
(153,-160,c)
);
}
);
width = 299;
},
{
associatedMasterId = m01;
layerId = "A003329C-BEC9-4397-9AAD-9155A5EADE70";
name = foreground;
shapes = (
{
closed = 1;
nodes = (
(62,109,o),
(172,-60,o),
(172,-60,c),
(280,-60,l),
(283,-58,o),
(163,82,o),
(163,345,c),
(163,607,o),
(283,748,o),
(280,750,c),
(172,750,l),
(172,750,o),
(62,580,o),
(62,345,c)
);
}
);
width = 313;
},
{
guides = (
{
pos = (-216,-160);
},
{
pos = (-216,776);
}
);
layerId = m002;
shapes = (
{
closed = 1;
nodes = (
(228,-160,l),
(231,-158,o),
(128,5,o),
(165,308,cs),
(202,610,o),
(345,774,o),
(343,776,c),
(259,776,l),
(259,776,o),
(111,580,o),
(77,308,cs),
(44,35,o),
(143,-160,o),
(143,-160,c)
);
}
);
width = 308;
},
{
guides = (
{
pos = (-314,-159);
},
{
pos = (-66,775);
}
);
layerId = m003;
shapes = (
{
closed = 1;
nodes = (
(275,-159,l),
(279,-157,o),
(167,4,o),
(205,309,c),
(242,611,o),
(392,773,o),
(389,775,c),
(250,775,l),
(250,775,o),
(88,579,o),
(55,309,c),
(21,36,o),
(136,-159,o),
(136,-159,c)
);
}
);
width = 394;
}
);
unicode = 40;
},
{
glyphname = parenright;
lastChange = "2024-11-25 04:31:09 +0000";
layers = (
{
layerId = m01;
shapes = (
{
closed = 1;
nodes = (
(46,-160,o),
(203,35,o),
(236,308,c),
(269,579,o),
(160,775,o),
(161,775,c),
(99,775,l),
(96,773,o),
(209,610,o),
(172,308,c),
(135,4,o),
(-18,-158,o),
(-15,-160,c),
(46,-160,l)
);
}
);
width = 299;
},
{
associatedMasterId = m01;
layerId = "FEA7CF8C-5847-4A35-8A6B-C76339FB953A";
name = foreground;
shapes = (
{
closed = 1;
nodes = (
(243,580,o),
(133,750,o),
(133,750,c),
(25,750,l),
(22,748,o),
(142,607,o),
(142,345,c),
(142,82,o),
(22,-58,o),
(25,-60,c),
(133,-60,l),
(133,-60,o),
(243,109,o),
(243,345,c)
);
}
);
width = 303;
},
{
layerId = m002;
shapes = (
{
closed = 1;
nodes = (
(65,-160,o),
(212,35,o),
(245,308,cs),
(279,580,o),
(179,776,o),
(179,776,c),
(95,776,l),
(91,774,o),
(194,610,o),
(157,308,cs),
(120,5,o),
(-23,-158,o),
(-20,-160,c),
(65,-160,l)
);
}
);
width = 308;
},
{
guides = (
{
pos = (-297,-159);
},
{
pos = (-49,775);
}
);
layerId = m003;
shapes = (
{
closed = 1;
nodes = (
(156,-159,o),
(319,36,o),
(353,309,c),
(386,579,o),
(272,775,o),
(272,775,c),
(133,775,l),
(130,773,o),
(240,611,o),
(203,309,c),
(165,4,o),
(15,-157,o),
(17,-159,c),
(156,-159,l)
);
}
);
width = 394;
}
);
unicode = 41;
},
{
glyphname = braceleft;
lastChange = "2024-11-25 04:31:09 +0000";
layers = (
{
guides = (
{
pos = (238,-160);
},
{
pos = (207,775);
}
);
layerId = m01;
shapes = (
{
closed = 1;
nodes = (
(287,-159,l),
(293,-105,l),
(234,-105,ls),
(186,-105,o),
(161,-77,o),
(168,-18,cs),
(195,205,ls),
(203,270,o),
(183,294,o),
(150,303,c),
(150,311,l),
(187,321,o),
(212,340,o),
(221,416,cs),
(248,634,ls),
(255,693,o),
(288,721,o),
(336,721,cs),
(395,721,l),
(401,775,l),
(335,775,ls),
(235,775,o),
(198,712,o),
(188,632,cs),
(161,416,ls),
(157,378,o),
(121,340,o),
(76,340,c),
(68,278,l),
(114,278,o),
(141,251,o),
(135,205,cs),
(108,-16,ls),
(99,-96,o),
(121,-159,o),
(221,-159,cs)
);
}
);
width = 370;
},
{
guides = (
{
pos = (-216,-160);
},
{
pos = (-216,776);
}
);
layerId = m002;
shapes = (
{
closed = 1;
nodes = (
(317,-159,l),
(327,-79,l),
(249,-79,ls),
(206,-79,o),
(183,-46,o),
(188,0,cs),
(214,209,ls),
(221,267,o),
(199,296,o),
(154,305,c),
(155,313,l),
(202,323,o),
(232,354,o),
(239,414,cs),
(264,616,ls),
(271,673,o),
(301,695,o),
(344,695,cs),
(422,695,l),
(431,775,l),
(336,775,ls),
(255,775,o),
(187,705,o),
(177,624,cs),
(155,444,ls),
(148,389,o),
(120,357,o),
(68,357,c),
(57,266,l),
(109,266,o),
(129,235,o),
(122,180,cs),
(99,-9,ls),
(89,-90,o),
(141,-159,o),
(222,-159,cs)
);
}
);
width = 400;
},
{
guides = (
{
pos = (-253,-159);
},
{
pos = (-5,775);
}
);
layerId = m003;
shapes = (
{
closed = 1;
nodes = (
(369,-159,l),
(385,-33,l),
(291,-33,ls),
(256,-33,o),
(241,0,o),
(246,40,cs),
(266,209,ls),
(274,267,o),
(246,296,o),
(201,305,c),
(202,313,l),
(249,323,o),
(284,354,o),
(292,414,cs),
(312,576,ls),
(318,626,o),
(339,649,o),
(374,649,cs),
(468,649,l),
(484,775,l),
(344,775,ls),
(261,775,o),
(187,703,o),
(177,622,cs),
(157,455,ls),
(150,400,o),
(123,376,o),
(71,376,c),
(55,246,l),
(107,246,o),
(128,223,o),
(121,168,cs),
(100,-6,ls),
(90,-87,o),
(146,-159,o),
(229,-159,cs)
);
}
);
width = 442;
}
);
unicode = 123;
},
{
glyphname = braceright;
lastChange = "2024-11-25 04:31:09 +0000";
layers = (
{
layerId = m01;
shapes = (
{
closed = 1;
nodes = (
(149,-159,o),
(187,-96,o),
(196,-16,cs),
(223,205,ls),
(229,251,o),
(262,277,o),
(308,277,c),
(316,342,l),
(271,342,o),
(245,378,o),
(249,416,cs),
(276,632,ls),
(286,712,o),
(263,775,o),
(163,775,cs),
(97,775,l),
(91,721,l),
(150,721,ls),
(198,721,o),
(223,693,o),
(216,634,cs),
(189,416,ls),
(180,340,o),
(201,321,o),
(234,311,c),
(234,303,l),
(197,294,o),
(171,270,o),
(163,205,cs),
(136,-18,ls),
(129,-77,o),
(96,-105,o),
(48,-105,cs),
(-11,-105,l),
(-17,-159,l),
(49,-159,ls)
);
}
);
width = 370;
},
{
layerId = m002;
shapes = (
{
closed = 1;
nodes = (
(159,-159,o),
(227,-90,o),
(237,-9,cs),
(260,180,ls),
(267,235,o),
(295,266,o),
(347,266,c),
(358,357,l),
(306,357,o),
(286,389,o),
(293,444,cs),
(315,624,ls),
(325,705,o),
(273,775,o),
(192,775,cs),
(97,775,l),
(88,695,l),
(166,695,ls),
(209,695,o),
(233,673,o),
(226,616,cs),
(201,414,ls),
(194,354,o),
(213,323,o),
(258,313,c),
(257,305,l),
(210,296,o),
(183,267,o),
(176,209,cs),
(150,0,ls),
(145,-46,o),
(114,-79,o),
(71,-79,cs),
(-7,-79,l),
(-17,-159,l),
(78,-159,ls)
);
}
);
width = 400;
},
{
guides = (
{
pos = (-373,-159);
},
{
pos = (-125,775);
}
);
layerId = m003;
shapes = (
{
closed = 1;
nodes = (
(194,-159,o),
(268,-87,o),
(278,-6,cs),
(299,168,ls),
(306,223,o),
(333,246,o),
(385,246,c),
(401,376,l),
(349,376,o),
(328,400,o),
(335,455,cs),
(355,622,ls),
(365,703,o),
(309,775,o),
(226,775,cs),
(86,775,l),
(70,649,l),
(164,649,ls),
(199,649,o),
(216,626,o),
(210,576,cs),
(190,414,ls),
(182,354,o),
(209,323,o),
(254,313,c),
(253,305,l),
(206,296,o),
(172,267,o),
(164,209,cs),
(144,40,ls),
(139,0,o),
(116,-33,o),
(81,-33,cs),
(-13,-33,l),
(-29,-159,l),
(111,-159,ls)
);
}
);
width = 442;
}
);
unicode = 125;
},
{
glyphname = bracketleft;
lastChange = "2024-11-25 04:31:09 +0000";
layers = (
{
guides = (
{
pos = (181,-160);
},
{
pos = (150,775);
}
);
layerId = m01;
shapes = (
{
closed = 1;
nodes = (
(265,-160,l),
(272,-104,l),
(117,-104,l),
(217,718,l),
(373,718,l),
(380,774,l),
(164,774,l),
(50,-160,l)
);
}
);
width = 356;
},
{
guides = (
{
pos = (-259,-160);
},
{
pos = (-259,776);
}
);
layerId = m002;
shapes = (
{
closed = 1;
nodes = (
(294,-160,l),
(303,-84,l),
(134,-84,l),
(230,700,l),
(400,700,l),
(409,775,l),
(159,775,l),
(45,-160,l)
);
}
);
width = 383;
},
{
guides = (
{
pos = (-305,-159);
}
);
layerId = m003;
shapes = (
{
closed = 1;
nodes = (
(355,-158,l),
(371,-32,l),
(195,-32,l),
(278,649,l),
(455,649,l),
(471,775,l),
(154,775,l),
(39,-158,l)
);
}
);
width = 439;
}
);
unicode = 91;
},
{
glyphname = bracketright;
lastChange = "2024-11-25 04:31:09 +0000";
layers = (
{
layerId = m01;
shapes = (
{
closed = 1;
nodes = (
(320,774,l),
(104,774,l),
(97,718,l),
(253,718,l),
(153,-104,l),
(-2,-104,l),
(-9,-160,l),
(206,-160,l)
);
}
);
width = 356;
},
{
guides = (
{
pos = (-259,-160);
},
{
pos = (-259,776);
}
);
layerId = m002;
shapes = (
{
closed = 1;
nodes = (
(409,775,l),
(159,775,l),
(150,700,l),
(320,700,l),
(224,-84,l),
(55,-84,l),
(46,-160,l),
(295,-160,l)
);
}
);
width = 383;
},
{
guides = (
{
pos = (-305,-159);
},
{
pos = (-57,750);
}
);
layerId = m003;
shapes = (
{
closed = 1;
nodes = (
(472,775,l),
(155,775,l),
(139,649,l),
(316,649,l),
(233,-32,l),
(57,-32,l),
(41,-158,l),
(357,-158,l)
);
}
);
width = 439;
}
);
unicode = 93;
},
{
glyphname = quotedblleft;
lastChange = "2024-11-25 04:31:09 +0000";
layers = (
{
layerId = m01;
shapes = (
{
closed = 1;
nodes = (
(153,712,o),
(110,655,o),
(102,593,cs),
(98,558,o),
(117,532,o),
(151,532,cs),
(176,532,o),
(200,557,o),
(203,582,c),
(206,606,o),
(187,627,o),
(162,627,cs),
(161,627,o),
(157,627,o),
(156,627,c),
(163,678,o),
(216,689,o),
(216,689,c),
(216,689,o),
(220,712,o),
(219,712,cs)
);
},
{
closed = 1;
nodes = (
(291,712,o),
(248,655,o),
(240,593,cs),
(236,558,o),
(255,532,o),
(289,532,cs),
(314,532,o),
(338,557,o),
(341,582,cs),
(344,606,o),
(325,627,o),
(300,627,cs),
(299,627,o),
(295,627,o),
(294,627,c),
(301,678,o),
(354,689,o),
(354,689,c),
(354,689,o),
(358,712,o),
(357,712,cs)
);
}
);
width = 361;
},
{
layerId = m002;
shapes = (
{
closed = 1;
nodes = (
(148,720,o),
(100,627,o),
(91,563,c),
(87,525,o),
(102,482,o),
(154,482,cs),
(188,482,o),
(221,515,o),
(225,548,cs),
(229,580,o),
(203,608,o),
(172,608,cs),
(170,608,o),
(166,608,o),
(163,607,c),
(171,675,o),
(242,690,o),
(242,690,c),
(242,690,o),
(247,720,o),
(246,720,cs)
);
},
{
closed = 1;
nodes = (
(336,720,o),
(288,627,o),
(279,563,c),
(275,525,o),
(290,482,o),
(342,482,cs),
(376,482,o),
(409,515,o),
(413,548,cs),
(417,580,o),
(391,608,o),
(360,608,cs),
(358,608,o),
(354,608,o),
(351,607,c),
(359,675,o),
(430,690,o),
(430,690,c),
(430,690,o),
(435,720,o),
(434,720,cs)
);
}
);
width = 432;
},
{
layerId = m003;
shapes = (
{
closed = 1;
nodes = (
(154,721,o),
(92,598,o),
(83,519,cs),
(77,471,o),
(96,417,o),
(161,417,cs),
(207,417,o),
(246,459,o),
(251,501,cs),
(256,540,o),
(224,575,o),
(183,575,cs),
(179,575,o),
(174,575,o),
(171,574,c),
(182,660,o),
(273,678,o),
(273,678,c),
(273,678,o),
(279,721,o),
(278,721,cs)
);
},
{
closed = 1;
nodes = (
(357,721,o),
(295,598,o),
(286,519,cs),
(280,471,o),
(299,417,o),
(364,417,cs),
(410,417,o),
(449,459,o),
(454,501,cs),
(459,540,o),
(427,575,o),
(386,575,cs),
(382,575,o),
(377,575,o),
(374,574,c),
(385,660,o),
(476,678,o),
(476,678,c),
(476,678,o),
(482,721,o),
(481,721,cs)
);
}
);
width = 467;
}
);
unicode = 8220;
},
{
glyphname = quotedblright;
lastChange = "2024-11-25 04:31:09 +0000";
layers = (
{
layerId = m01;
shapes = (
{
closed = 1;
nodes = (
(300,532,o),
(343,589,o),
(350,651,cs),
(355,686,o),
(336,712,o),
(302,712,cs),
(277,712,o),
(253,687,o),
(250,662,c),
(247,638,o),
(265,617,o),
(290,617,cs),
(291,617,o),
(295,617,o),
(296,617,c),
(290,566,o),
(236,555,o),
(236,555,c),
(236,555,o),
(234,532,o),
(234,532,cs)
);
},
{
closed = 1;
nodes = (
(166,532,o),
(209,589,o),
(216,651,cs),
(221,686,o),
(202,712,o),
(168,712,cs),
(143,712,o),
(119,687,o),
(116,662,cs),
(113,638,o),
(131,617,o),
(156,617,cs),
(157,617,o),
(161,617,o),
(162,617,c),
(156,566,o),
(102,555,o),
(102,555,c),
(102,555,o),
(99,532,o),
(100,532,cs)
);
}
);
width = 361;
},
{
layerId = m002;
shapes = (
{
closed = 1;
nodes = (
(368,482,o),
(416,575,o),
(425,639,c),
(429,677,o),
(414,720,o),
(362,720,cs),
(328,720,o),
(296,687,o),
(292,654,cs),
(288,622,o),
(313,594,o),
(344,594,cs),
(346,594,o),
(350,594,o),
(353,595,c),
(345,527,o),
(274,512,o),
(274,512,c),
(274,512,o),
(269,482,o),
(270,482,cs)
);
},
{
closed = 1;
nodes = (
(180,482,o),
(228,575,o),
(237,639,c),
(241,677,o),
(226,720,o),
(174,720,cs),
(140,720,o),
(108,687,o),
(104,654,cs),
(100,622,o),
(125,594,o),
(156,594,cs),
(158,594,o),
(162,594,o),
(165,595,c),
(157,527,o),
(86,512,o),
(86,512,c),
(86,512,o),
(81,482,o),
(82,482,cs)
);
}
);
width = 432;
},
{
layerId = m003;
shapes = (
{
closed = 1;
nodes = (
(392,417,o),
(454,540,o),
(464,619,cs),
(470,667,o),
(450,721,o),
(385,721,cs),
(339,721,o),
(300,679,o),
(295,637,cs),
(290,598,o),
(322,563,o),
(363,563,cs),
(367,563,o),
(372,563,o),
(375,564,c),
(365,478,o),
(273,460,o),
(273,460,c),
(273,460,o),
(267,417,o),
(268,417,cs)
);
},
{
closed = 1;
nodes = (
(189,417,o),
(251,540,o),
(261,619,cs),
(267,667,o),
(247,721,o),
(182,721,cs),
(136,721,o),
(97,679,o),
(92,637,cs),
(87,598,o),
(119,563,o),
(160,563,cs),
(164,563,o),
(169,563,o),
(172,564,c),
(162,478,o),
(70,460,o),
(70,460,c),
(70,460,o),
(64,417,o),
(65,417,cs)
);
}
);
width = 469;
}
);
unicode = 8221;
},
{
glyphname = quoteleft;
lastChange = "2024-11-25 04:31:09 +0000";
layers = (
{
layerId = m01;
shapes = (
{
closed = 1;
nodes = (
(177,540,o),
(201,565,o),
(204,590,c),
(207,614,o),
(188,635,o),
(163,635,cs),
(162,635,o),
(158,635,o),
(157,635,c),
(164,686,o),
(217,697,o),
(217,697,c),
(217,697,o),
(221,720,o),
(220,720,cs),
(154,720,o),
(111,663,o),
(103,601,cs),
(99,566,o),
(118,540,o),
(152,540,cs)
);
}
);
width = 212;
},
{
layerId = m002;
shapes = (
{
closed = 1;
nodes = (
(180,482,o),
(213,515,o),
(217,548,cs),
(221,580,o),
(195,608,o),
(164,608,cs),
(162,608,o),
(158,608,o),
(155,607,c),
(163,675,o),
(234,690,o),
(234,690,c),
(234,690,o),
(239,720,o),
(238,720,cs),
(140,720,o),
(92,627,o),
(83,563,c),
(79,525,o),
(94,482,o),
(146,482,cs)
);
}
);
width = 244;
},
{
layerId = m003;
shapes = (
{
closed = 1;
nodes = (
(200,416,o),
(239,458,o),
(244,500,cs),
(249,539,o),
(217,574,o),
(176,574,cs),
(172,574,o),
(167,574,o),
(164,573,c),
(175,659,o),
(266,677,o),
(266,677,c),
(266,677,o),
(272,720,o),
(271,720,cs),
(147,720,o),
(85,597,o),
(75,518,cs),
(70,470,o),
(89,416,o),
(154,416,cs)
);
}
);
width = 264;
}
);
unicode = 8216;
},
{
glyphname = quoteright;
lastChange = "2024-11-25 04:31:09 +0000";
layers = (
{
layerId = m01;
shapes = (
{
closed = 1;
nodes = (
(151,532,o),
(194,589,o),
(201,651,cs),
(206,686,o),
(187,712,o),
(153,712,cs),
(128,712,o),
(104,687,o),
(101,662,c),
(98,638,o),
(116,617,o),
(141,617,cs),
(142,617,o),
(146,617,o),
(147,617,c),
(141,566,o),
(87,555,o),
(87,555,c),
(87,555,o),
(84,532,o),
(85,532,cs)
);
}
);
width = 212;
},
{
layerId = m002;
shapes = (
{
closed = 1;
nodes = (
(184,482,o),
(232,575,o),
(241,639,c),
(245,677,o),
(230,720,o),
(178,720,cs),
(144,720,o),
(112,687,o),
(108,654,cs),
(104,622,o),
(129,594,o),
(160,594,cs),
(162,594,o),
(166,594,o),
(169,595,c),
(161,527,o),
(90,512,o),
(90,512,c),
(90,512,o),
(85,482,o),
(86,482,cs)
);
}
);
width = 244;
},
{
layerId = m003;
shapes = (
{
closed = 1;
nodes = (
(194,417,o),
(256,540,o),
(266,619,cs),
(272,667,o),
(252,721,o),
(187,721,cs),
(141,721,o),
(102,679,o),
(97,637,cs),
(92,598,o),
(124,563,o),
(165,563,cs),
(169,563,o),
(174,563,o),
(177,564,c),
(167,478,o),
(75,460,o),
(75,460,c),
(75,460,o),
(69,417,o),
(70,417,cs)
);
}
);
width = 264;
}
);
unicode = 8217;
},
{
glyphname = guillemetleft;
lastChange = "2024-11-25 04:31:09 +0000";
layers = (
{
layerId = m01;
shapes = (
{
closed = 1;
nodes = (
(614,99,l),
(352,291,l),
(351,283,l),
(661,475,l),
(669,545,l),
(315,326,l),
(306,250,l),
(606,31,l)
);
},
{
closed = 1;
nodes = (
(358,99,l),
(96,291,l),
(95,283,l),
(405,475,l),
(413,545,l),
(59,326,l),
(50,250,l),
(350,31,l)
);
}
);
width = 693;
},
{
layerId = m002;
shapes = (
{
closed = 1;
nodes = (
(615,120,l),
(353,312,l),
(346,262,l),
(656,454,l),
(667,544,l),
(313,325,l),
(304,249,l),
(604,30,l)
);
},
{
closed = 1;
nodes = (
(359,121,l),
(97,313,l),
(91,263,l),
(400,455,l),
(411,545,l),
(57,326,l),
(48,250,l),
(348,31,l)
);
}
);
width = 687;
},
{
layerId = m003;
shapes = (
{
closed = 1;
nodes = (
(661,145,l),
(398,337,l),
(386,240,l),
(696,432,l),
(713,571,l),
(359,352,l),
(343,222,l),
(643,3,l)
);
},
{
closed = 1;
nodes = (
(359,145,l),
(96,337,l),
(84,240,l),
(394,432,l),
(411,571,l),
(57,352,l),
(41,222,l),
(341,3,l)
);
}
);
width = 715;
}
);
unicode = 171;
},
{
glyphname = guillemetright;
lastChange = "2024-11-25 04:31:09 +0000";
layers = (
{
layerId = m01;
shapes = (
{
closed = 1;
nodes = (
(643,250,l),
(652,326,l),
(352,545,l),
(344,475,l),
(606,283,l),
(607,291,l),
(297,99,l),
(289,31,l)
);
},
{
closed = 1;
nodes = (
(387,250,l),
(396,326,l),
(96,545,l),
(88,475,l),
(350,283,l),
(351,291,l),
(41,99,l),
(33,31,l)
);
}
);
width = 693;
},
{
layerId = m002;
shapes = (
{
closed = 1;
nodes = (
(639,250,l),
(648,326,l),
(348,545,l),
(337,455,l),
(600,263,l),
(606,313,l),
(296,121,l),
(285,31,l)
);
},
{
closed = 1;
nodes = (
(383,249,l),
(392,325,l),
(92,544,l),
(81,454,l),
(343,262,l),
(350,312,l),
(40,120,l),
(29,30,l)
);
}
);
width = 687;
},
{
layerId = m003;
shapes = (
{
closed = 1;
nodes = (
(670,222,l),
(686,352,l),
(386,571,l),
(369,432,l),
(631,240,l),
(643,337,l),
(334,145,l),
(316,3,l)
);
},
{
closed = 1;
nodes = (
(368,222,l),
(384,352,l),
(84,571,l),
(67,432,l),
(329,240,l),
(341,337,l),
(32,145,l),
(14,3,l)
);
}
);
width = 715;
}
);
unicode = 187;
},
{
glyphname = guilsinglleft;
lastChange = "2024-11-25 04:31:09 +0000";
layers = (
{
layerId = m01;
shapes = (
{
closed = 1;
nodes = (
(329,100,l),
(93,294,l),
(92,281,l),
(375,475,l),
(383,545,l),
(59,326,l),
(50,250,l),
(320,31,l)
);
}
);
width = 407;
},
{
layerId = m002;
shapes = (
{
closed = 1;
nodes = (
(329,121,l),
(94,315,l),
(87,261,l),
(370,455,l),
(381,545,l),
(57,326,l),
(48,250,l),
(318,31,l)
);
}
);
width = 401;
},
{
layerId = m003;
shapes = (
{
closed = 1;
nodes = (
(358,145,l),
(95,337,l),
(83,240,l),
(393,432,l),
(410,571,l),
(56,352,l),
(40,222,l),
(340,3,l)
);
}
);
width = 421;
}
);
unicode = 8249;
},
{
glyphname = guilsinglright;
lastChange = "2024-11-25 04:31:09 +0000";
layers = (
{
layerId = m01;
shapes = (
{
closed = 1;
nodes = (
(357,250,l),
(366,326,l),
(96,545,l),
(88,475,l),
(323,281,l),
(324,294,l),
(42,100,l),
(33,31,l)
);
}
);
width = 407;
},
{
layerId = m002;
shapes = (
{
closed = 1;
nodes = (
(353,250,l),
(362,326,l),
(92,545,l),
(81,455,l),
(316,261,l),
(323,315,l),
(40,121,l),
(29,31,l)
);
}
);
width = 401;
},
{
layerId = m003;
shapes = (
{
closed = 1;
nodes = (
(367,222,l),
(383,352,l),
(83,571,l),
(66,432,l),
(328,240,l),
(340,337,l),
(31,145,l),
(13,3,l)
);
}
);
width = 421;
}
);
unicode = 8250;
},
{
glyphname = quotedbl;
lastChange = "2024-11-25 04:31:09 +0000";
layers = (
{
layerId = m01;
shapes = (
{
closed = 1;
nodes = (
(327,490,l),
(338,519,o),
(383,635,o),
(387,667,c),
(391,699,o),
(371,720,o),
(344,720,cs),
(315,720,o),
(289,699,o),
(285,667,c),
(281,635,o),
(299,519,o),
(302,490,c)
);
},
{
closed = 1;
nodes = (
(178,490,l),
(189,519,o),
(234,635,o),
(238,667,c),
(242,699,o),
(222,720,o),
(195,720,cs),
(166,720,o),
(140,699,o),
(136,667,c),
(132,635,o),
(150,519,o),
(153,490,c)
);
}
);
width = 421;
},
{
associatedMasterId = m01;
layerId = "24C34471-2878-49D9-AC64-055C689381E7";
name = foreground;
shapes = (
{
closed = 1;
nodes = (
(354,459,l),
(387,579,o),
(401,624,o),
(401,651,cs),
(401,689,o),
(371,721,o),
(335,721,cs),
(298,721,o),
(266,689,o),
(266,651,cs),
(266,625,o),
(280,579,o),
(314,459,c)
);
},
{
closed = 1;
nodes = (
(153,459,l),
(186,579,o),
(200,624,o),
(200,651,cs),
(200,689,o),
(170,721,o),
(134,721,cs),
(97,721,o),
(65,689,o),
(65,651,cs),
(65,625,o),
(79,579,o),
(113,459,c)
);
}
);
width = 473;
},
{
layerId = m002;
shapes = (
{
closed = 1;
nodes = (
(346,465,l),
(359,499,o),
(410,621,o),
(414,658,c),
(419,696,o),
(395,720,o),
(364,720,cs),
(331,720,o),
(301,696,o),
(296,658,c),
(292,621,o),
(314,499,o),
(317,465,c)
);
},
{
closed = 1;
nodes = (
(180,465,l),
(193,499,o),
(244,621,o),
(248,658,c),
(253,696,o),
(229,720,o),
(198,720,cs),
(165,720,o),
(135,696,o),
(130,658,c),
(126,621,o),
(148,499,o),
(151,465,c)
);
}
);
width = 444;
},
{
layerId = m003;
shapes = (
{
closed = 1;
nodes = (
(440,401,l),
(458,449,o),
(526,579,o),
(532,632,c),
(539,687,o),
(504,721,o),
(459,721,cs),
(413,721,o),
(370,687,o),
(363,632,c),
(357,579,o),
(395,449,o),
(399,401,c)
);
},
{
closed = 1;
nodes = (
(204,401,l),
(221,449,o),
(289,579,o),
(295,632,c),
(302,687,o),
(267,721,o),
(224,721,cs),
(176,721,o),
(133,687,o),
(126,632,c),
(120,579,o),
(158,449,o),
(163,401,c)
);
}
);
width = 566;
}
);
unicode = 34;
},
{
glyphname = quotesingle;
lastChange = "2024-11-25 04:31:10 +0000";
layers = (
{
layerId = m01;
shapes = (
{
closed = 1;
nodes = (
(178,490,l),
(189,519,o),
(234,635,o),
(238,667,c),
(242,699,o),
(222,720,o),
(195,720,cs),
(166,720,o),
(140,699,o),
(136,667,c),
(132,635,o),
(150,519,o),
(153,490,c)
);
}
);
width = 272;
},
{
associatedMasterId = m01;
layerId = "9EC1078A-27A8-4ABD-A85E-C1F27DFD7ADE";
name = foreground;
shapes = (
{
closed = 1;
nodes = (
(158,459,l),
(191,579,o),
(205,624,o),
(205,651,cs),
(205,689,o),
(175,721,o),
(139,721,cs),
(102,721,o),
(70,689,o),
(70,651,cs),
(70,625,o),
(84,579,o),
(118,459,c)
);
}
);
width = 282;
},
{
layerId = m002;
shapes = (
{
closed = 1;
nodes = (
(180,465,l),
(193,499,o),
(244,621,o),
(248,658,c),
(253,696,o),
(229,720,o),
(198,720,cs),
(165,720,o),
(135,696,o),
(130,658,c),
(126,621,o),
(148,499,o),
(151,465,c)
);
}
);
width = 278;
},
{
layerId = m003;
shapes = (
{
closed = 1;
nodes = (
(204,401,l),
(221,449,o),
(289,579,o),
(295,632,c),
(302,687,o),
(267,721,o),
(224,721,cs),
(176,721,o),
(133,687,o),
(126,632,c),
(120,579,o),
(158,449,o),
(163,401,c)
);
}
);
width = 329;
}
);
unicode = 39;
},
